<?xml version="1.0" encoding="utf-8"?>
<!-- Generator: Adobe Illustrator 24.2.1, SVG Export Plug-In . SVG Version: 6.00 Build 0)  -->
<svg version="1.1" id="Layer_1" xmlns="http://www.w3.org/2000/svg" xmlns:xlink="http://www.w3.org/1999/xlink" x="0px" y="0px"
	 viewBox="0 0 256 256" style="enable-background:new 0 0 256 256;" xml:space="preserve">
<style type="text/css">
	.st0{fill:#FFFFFF;}
	.st1{fill:#28ABE3;}
	.st2{fill:#3FA9F5;}
</style>
<circle class="st0" cx="128" cy="128" r="123.5"/>
<g>
	<path class="st1" d="M195.1,73.9L164.9,58H90.2L61.5,74.2L31.2,114L128,224l96.8-110L195.1,73.9z M214.9,112.2l-37.8,19.2
		l-12.3-37.5l27.9-13.5L214.9,112.2z M92.6,64h69.8l23.7,12.3l-24,11.4H92.3l-21-11.1L92.6,64z M63.6,80.4l24.6,13.5l-8.7,37.5
		l-39.9-20.1L63.6,80.4z M47.4,122.7l30.9,15.9l37.8,65L47.4,122.7z M127.7,211.7l-42.9-74.3l10.5-43.5h63.8l11.4,42.3L127.7,211.7z
		 M138.5,203.4l38.4-64.4l32.1-16.2L138.5,203.4z"/>
	<path class="st2" d="M155.3,144.3c-1.6-4.2-4.7-7.6-8.7-9.6c2.4-0.8,4.4-2.7,5.4-5.1c0.6-1.8,0.6-3.3,0.3-5.1c0,0-0.3-2.7-1.2-5.1
		c-1.8-3.9-7.8-7.5-16.2-8.4v-9.6h-7.5v9.6h-5.7v-9.6h-7.8v9.6h-12.3v6.3c2.7,0.3,5.2,1.9,6.6,4.2c1.2,1.8,1.2,3.3,1.5,4.2l0.6,24
		c0,3-1.2,5.7-3.6,7.2c-3,1.8-6,0.9-6.6,0.9v6.9h13.5v10.2h8.1v-9h5.7l0.3,9h7.5V165h7.2c2.7,0,5.4-0.7,7.8-2.1
		C155.9,159,157.7,150.6,155.3,144.3z M122.3,120.6h9.6c3.6,0,6.6,2.7,6.6,6.3c0,3.6-2.7,6.6-6.3,6.6h-9.9L122.3,120.6z M134.3,156
		h-11.4v-14.1h11.4c3.6,0.3,6.6,3.3,6.9,6.6C141.5,152.4,138.5,155.7,134.3,156z"/>
</g>
<g>
</g>
<g>
</g>
<g>
</g>
<g>
</g>
<g>
</g>
<g>
</g>
<g>
</g>
<g>
</g>
<g>
</g>
<g>
</g>
<g>
</g>
<g>
</g>
<g>
</g>
<g>
</g>
<g>
</g>
</svg>
