<?xml version="1.0" encoding="utf-8"?>
<!-- Generator: Adobe Illustrator 16.0.0, SVG Export Plug-In . SVG Version: 6.00 Build 0)  -->
<!DOCTYPE svg PUBLIC "-//W3C//DTD SVG 1.1//EN" "http://www.w3.org/Graphics/SVG/1.1/DTD/svg11.dtd">
<svg version="1.1" id="Layer_1" xmlns="http://www.w3.org/2000/svg" xmlns:xlink="http://www.w3.org/1999/xlink" x="0px" y="0px"
	 width="128px" height="128px" viewBox="0 0 128 128" enable-background="new 0 0 128 128" xml:space="preserve">
<circle fill="#28ABE3" cx="63.664" cy="63.664" r="61.244"/>
<circle fill="#28ABE3" cx="-8.937" cy="7.471" r="6.656"/>
<g id="Black-_x26_-White">
	<g id="Bitcoin-Cash" transform="translate(-934.000000, -409.000000)">
		<g transform="translate(906.000000, 381.000000)">
			<path fill="#FFFFFF" d="M88.683,96.268l11.349-3.041c5.297-1.419,9.395,1.269,10.618,6.346c0.98,3.656,0.22,7.373-2.469,9.445
				c-1,0.811-2.604,1.373-3.992,1.746l-10.844,2.905L88.683,96.268z M96.657,69.534c2.606,0.653,4.419,2.871,5.194,5.771
				c1.217,4.54-0.586,8.401-5.125,9.619l-10.342,2.771l-4.088-15.258l9.08-2.433C93.396,69.462,95.229,69.241,96.657,69.534z
				 M107.531,119.193c1.574,5.886,2.363,8.826,2.363,8.826s-1.975,0.529-5.926,1.59l-2.365-8.828l-6.179,1.654
				c1.576,5.887,2.364,8.828,2.364,8.828s-1.975,0.53-5.927,1.588l-2.364-8.828c-7.903,2.119-11.854,3.177-11.854,3.177
				s-0.72-2.688-2.162-8.068l3.657-0.979c1.891-0.508,2.873-2.393,2.4-4.155l-9.563-35.688c-0.506-1.891-2.391-2.873-4.156-2.4
				c-2.438,0.654-3.658,0.98-3.658,0.98s-0.72-2.689-2.163-8.071l11.854-3.175c-1.576-5.886-2.364-8.828-2.364-8.828
				s1.975-0.528,5.926-1.588l2.365,8.828l6.178-1.657c-1.577-5.884-2.365-8.826-2.365-8.826s1.976-0.529,5.926-1.589l2.398,8.953
				c3.062-0.685,5.558-0.948,8.226-0.581c5.834,0.598,10.811,4.536,12.567,11.093c1.485,5.548,0.181,10.763-3.843,14.409
				c7.131,0.387,11.554,5.284,13.208,11.463c2.002,7.978-1.741,15.195-7.503,18.904C112.255,117.658,110.055,118.52,107.531,119.193
				z M32.104,108.049c8.852,33.039,42.907,52.699,75.945,43.848c33.039-8.853,52.699-42.906,43.848-75.945
				c-8.853-33.038-42.906-52.7-75.945-43.847C42.913,40.956,23.25,75.011,32.104,108.049z"/>
		</g>
	</g>
</g>
</svg>
