<?xml version="1.0" encoding="utf-8"?>
<!-- Generator: Adobe Illustrator 24.2.1, SVG Export Plug-In . SVG Version: 6.00 Build 0)  -->
<svg version="1.1" id="Layer_1" xmlns="http://www.w3.org/2000/svg" xmlns:xlink="http://www.w3.org/1999/xlink" x="0px" y="0px"
	 viewBox="0 0 256 256" style="enable-background:new 0 0 256 256;" xml:space="preserve">
<style type="text/css">
	.st0{fill:#FFFFFF;}
	.st1{fill:url(#SVGID_1_);}
	.st2{fill:#0F9DCE;}
	.st3{fill:#4AC8F4;}
	.st4{fill:#7CD7F7;}
</style>
<circle class="st0" cx="128" cy="128" r="124"/>
<g>
	
		<linearGradient id="SVGID_1_" gradientUnits="userSpaceOnUse" x1="99.5934" y1="141.6789" x2="172.1508" y2="122.4298" gradientTransform="matrix(1 0 0 -1 0 256)">
		<stop  offset="0" style="stop-color:#0F9DCE"/>
		<stop  offset="8.307621e-02" style="stop-color:#14A0D0"/>
		<stop  offset="0.1784" style="stop-color:#22A7D5"/>
		<stop  offset="0.2797" style="stop-color:#39B3DE"/>
		<stop  offset="0.3844" style="stop-color:#59C4EA"/>
		<stop  offset="0.4792" style="stop-color:#7CD7F7"/>
		<stop  offset="0.5305" style="stop-color:#74D4F6"/>
		<stop  offset="0.7003" style="stop-color:#5DCEF5"/>
		<stop  offset="0.8605" style="stop-color:#4FC9F4"/>
		<stop  offset="1" style="stop-color:#4AC8F4"/>
	</linearGradient>
	<path class="st1" d="M155.4,134.2c-1.9-2.9-5.8-6.1-11.8-9.6l0,0c6.4,0.3,11.1-0.4,14.3-2.2c3.1-1.8,5.2-4.3,6.2-7.6
		c1-3.1,0.9-6.3-0.1-9.6c-1-3.3-2.9-6.1-5.7-8.5c-1.6-1.3-3.9-2.7-7-4l5.4-17.4l-4-1.2l-5.3,17.1c-1.5-0.5-3.1-1.1-4.8-1.6L131,86
		l5.1-16.6l-4-1.2L127,84.8l-15.7-4.9c-0.5-0.2-1,0.1-1.2,0.6s0.1,1,0.6,1.2c2.6,0.9,4.3,1.7,5.1,2.5c1,0.9,1.5,1.9,1.7,3
		s-0.3,3.4-1.5,7.1L102.5,138c-1.1,3.6-2.1,5.9-2.8,6.6c-0.7,0.8-1.7,1.3-3,1.5c-1.2,0.2-3-0.1-5.7-0.8c-0.5-0.1-1,0.1-1.2,0.6
		s0.1,1,0.6,1.2l16.2,5l-4.8,15.4l4,1.2l4.8-15.4l13.1,4c2.4,0.8,4.8,1.3,7,1.7l-5.2,16.8l4,1.2l5.4-17.5c4.7,0.4,8.8-0.1,12.4-1.5
		c5.1-2,8.4-5.6,10-10.7C158.8,142.8,158.2,138.3,155.4,134.2z M134.2,91.1c4.8,1.5,8.2,3,10.1,4.7c1.9,1.7,3.1,3.6,3.7,5.9
		c0.6,2.3,0.4,4.9-0.5,7.9s-2.3,5.2-4.1,6.8c-1.8,1.5-4,2.5-6.5,2.9c-2.6,0.4-6.2-0.2-10.9-1.6L134.2,91.1z M135.6,149.6
		c-2,2-4.7,3.3-7.5,3.6c-2.4,0.3-4.7,0.1-7.1-0.6c-1.8-0.6-3-1.4-3.6-2.6c-0.6-1.2-0.7-2.7-0.1-4.5l0.8-2.5l6.7-21.6
		c5.1,1.5,8.7,3.2,11,5c2.2,1.8,3.7,4.2,4.4,7.1c0.7,3,0.5,6-0.4,9.1C138.9,145.5,137.5,147.8,135.6,149.6z"/>
	<circle class="st2" cx="91.1" cy="79.1" r="7"/>
	<circle class="st3" cx="182.1" cy="92.1" r="7"/>
	<circle class="st3" cx="161.1" cy="176.1" r="7"/>
	<circle class="st2" cx="76.1" cy="152.1" r="7"/>
	<circle class="st2" cx="50" cy="88" r="18"/>
	<circle class="st3" cx="126" cy="37" r="18"/>
	<circle class="st4" cx="215" cy="109" r="18"/>
	<circle class="st3" cx="175" cy="206" r="18"/>
	<circle class="st2" cx="68" cy="186" r="18"/>
	<circle class="st2" cx="79" cy="51" r="12"/>
	<circle class="st2" cx="42.7" cy="137.7" r="12"/>
	<circle class="st3" cx="183.5" cy="55.5" r="12"/>
	<circle class="st4" cx="204.5" cy="160.5" r="12"/>
	<circle class="st3" cx="114.5" cy="213.5" r="12"/>
</g>
</svg>
