<?xml version="1.0" encoding="utf-8"?>
<!-- Generator: Adobe Illustrator 24.2.1, SVG Export Plug-In . SVG Version: 6.00 Build 0)  -->
<svg version="1.1" id="Layer_1" xmlns="http://www.w3.org/2000/svg" xmlns:xlink="http://www.w3.org/1999/xlink" x="0px" y="0px"
	 viewBox="0 0 256 256" style="enable-background:new 0 0 256 256;" xml:space="preserve">
<style type="text/css">
	.st0{fill:#FFFFFF;stroke:#28ABE3;stroke-width:4;stroke-miterlimit:10;enable-background:new    ;}
	.st1{fill:#003F66;enable-background:new    ;}
	.st2{fill:#28ABE3;enable-background:new    ;}
	.st3{fill:#003F66;}
</style>
<circle class="st0" cx="129.2" cy="129.2" r="104.2"/>
<g>
	<path class="st1" d="M103.4,98.2c0,0,0,52.7,0,61.9c0,9.2,9.2,9.2,9.2,9.2s57.3,0,65.3,0s8-11.5,8-11.5v-102l-18.3,29.8
		c0,0-41.3,0-52.7,0S103.4,98.2,103.4,98.2z M122.8,147.5c0,0,0-32.1,0-37.8c0-5.7,3.4-4.6,3.4-4.6s32.1,0,37.8,0c5.7,0,4.6,8,4.6,8
		s0,27.5,0,33.2s-3.4,5.7-3.4,5.7h-39C121.7,152.1,122.8,147.5,122.8,147.5z"/>
	<path class="st2" d="M141.2,116.5c-11.5,0-52.7,0-52.7,0L70.1,86.7v102c0,0,0,11.5,8,11.5s65.3,0,65.3,0s9.2,0,9.2-9.2
		s0-61.9,0-61.9S152.6,116.5,141.2,116.5z M129.7,183h-39c0,0-3.4,0-3.4-5.7s0-33.2,0-33.2s-1.1-8,4.6-8s37.8,0,37.8,0
		s3.4-1.1,3.4,4.6s0,37.8,0,37.8S134.3,183,129.7,183z"/>
	<rect x="103.4" y="105.1" class="st3" width="19.5" height="42.4"/>
</g>
<g>
</g>
<g>
</g>
<g>
</g>
<g>
</g>
<g>
</g>
<g>
</g>
<g>
</g>
<g>
</g>
<g>
</g>
<g>
</g>
<g>
</g>
<g>
</g>
<g>
</g>
<g>
</g>
<g>
</g>
</svg>
