<?xml version="1.0" encoding="utf-8"?>
<!-- Generator: Adobe Illustrator 24.0.1, SVG Export Plug-In . SVG Version: 6.00 Build 0)  -->
<svg version="1.1" id="Layer_1" xmlns="http://www.w3.org/2000/svg" xmlns:xlink="http://www.w3.org/1999/xlink" x="0px" y="0px"
	 viewBox="0 0 256 256" style="enable-background:new 0 0 256 256;" xml:space="preserve">
<style type="text/css">
	.st0{fill:#FFFFFF;}
	.st1{fill:#28ABE3;}
	.st2{fill:#1BB9EF;}
	.st3{fill:#119DCE;}
</style>
<g>
	<circle class="st0" cx="128" cy="128" r="126"/>
</g>
<g>
	<path class="st1" d="M130.9,167.2c10.6-6.5,18.7-15.2,24.3-26.1c5.6-11,7.8-22.7,6.9-34.9c11.8,0.9,27.2,9.7,31.7,27.9
		c4,16.5-4.2,34-19.4,41.5C158.3,183.3,140.7,178.3,130.9,167.2z"/>
	<path class="st2" d="M98.9,56.3c30.8,0,56.1,25.2,56.1,56c0,31.3-25.1,56.3-56.5,56.2c-30.6,0-55.7-25.3-55.7-56.1
		C42.8,81.4,67.9,56.3,98.9,56.3z M98.9,161.2c26.9,0,48.8-21.8,48.8-48.9c0-26.8-21.9-48.7-48.7-48.8c-27,0-48.9,21.8-48.9,48.8
		C50.1,139.3,71.9,161.2,98.9,161.2z"/>
	<path class="st2" d="M112.3,174.9c2-0.6,4-1.1,6-1.8c1-0.3,1.5-0.2,2.1,0.6c11.8,14.3,31.1,20.8,48.9,16.4
		c18.5-4.5,32.5-18.9,36.4-37.2c5.8-27.2-12.1-53.6-39.4-58.3c-2-0.3-4-0.4-6-0.7c-0.3,0-0.6-0.2-0.7-0.4c-0.8-2.3-1.6-4.5-2.3-6.8
		c19-0.9,45.7,11.1,54.4,39.8c8.6,28.3-6.5,58.3-33.8,68.6C150.8,205.2,124.1,192.7,112.3,174.9z"/>
	<path class="st3" d="M98.9,75.7c20.2,0,36.7,16.5,36.7,36.6c0,20.4-16.4,36.9-36.8,36.8c-20.2,0-36.6-16.5-36.6-36.7
		C62.2,92.1,78.6,75.7,98.9,75.7z"/>
</g>
</svg>
