<?xml version="1.0" encoding="utf-8"?>
<!-- Generator: Adobe Illustrator 24.2.1, SVG Export Plug-In . SVG Version: 6.00 Build 0)  -->
<svg version="1.1" id="Layer_1" xmlns="http://www.w3.org/2000/svg" xmlns:xlink="http://www.w3.org/1999/xlink" x="0px" y="0px"
	 viewBox="0 0 256 256" style="enable-background:new 0 0 256 256;" xml:space="preserve">
<style type="text/css">
	.st0{fill:#FFFFFF;}
	.st1{fill:#28ABE3;}
</style>
<g>
	<circle class="st0" cx="128" cy="128" r="125"/>
</g>
<path class="st1" d="M79.5,61.1h21.6V45.2h18.7v15.8h7.2V45.2h20.2v15.8c0,0,20.2,4.3,28.8,20.2c0,0,11.5,17.3-2.9,41.8
	c0,0,15.8,13,13,36c-2.9,23-20.2,34.6-38.9,37.4v14.4h-20.2V195h-5.8v15.8c-2.9,0-20.2,0-20.2,0V195H79.5v-27.4h51.8v10.1l23-20.2
	l-23-20.2v10.1H79.5v-40.3h51.8v11.5l24.5-20.2l-24.5-21.6v13H79.5V61.1z"/>
<g>
</g>
<g>
</g>
<g>
</g>
<g>
</g>
<g>
</g>
<g>
</g>
<g>
</g>
<g>
</g>
<g>
</g>
<g>
</g>
<g>
</g>
<g>
</g>
<g>
</g>
<g>
</g>
<g>
</g>
</svg>
