<?xml version="1.0" encoding="utf-8"?>
<!-- Generator: Adobe Illustrator 24.2.1, SVG Export Plug-In . SVG Version: 6.00 Build 0)  -->
<svg version="1.1" id="Layer_1" xmlns="http://www.w3.org/2000/svg" xmlns:xlink="http://www.w3.org/1999/xlink" x="0px" y="0px"
	 viewBox="0 0 256 256" style="enable-background:new 0 0 256 256;" xml:space="preserve">
<style type="text/css">
	.st0{fill:#FFFFFF;}
	.st1{fill:#28ABE3;}
</style>
<g>
	<path class="st0" d="M255.7,128c0,70.5-57.2,127.7-127.8,127.8C57.4,255.8,0.2,198.6,0.3,128C0.2,57.4,57.4,0.2,128,0.2
		S255.7,57.4,255.7,128L255.7,128z"/>
	<g>
		<path class="st1" d="M178.3,96.7c-1.6-17.1-16.4-22.8-35.1-24.5V48.5h-14.4v23.1c-3.8,0-7.7,0.1-11.5,0.2V48.5h-14.4l0,23.7
			c-3.1,0.1-6.2,0.1-9.2,0.1v-0.1l-19.9,0v15.4c0,0,10.7-0.2,10.5,0c5.9,0,7.8,3.4,8.3,6.3v27c0.4,0,0.9,0,1.5,0.1h-1.5l0,37.9
			c-0.3,1.8-1.3,4.8-5.4,4.8c0.2,0.2-10.5,0-10.5,0l-2.9,17.3h18.8c3.5,0,6.9,0.1,10.3,0.1l0,24h14.4v-23.8c4,0.1,7.8,0.1,11.5,0.1
			l0,23.6h14.4v-24c24.3-1.4,41.3-7.5,43.4-30.3c1.7-18.4-6.9-26.6-20.7-29.9C174.2,116.7,179.5,109.2,178.3,96.7L178.3,96.7z
			 M158,148c0,17.9-30.7,15.9-40.5,15.9v-31.8C127.3,132.1,158,129.3,158,148z M151.3,103.2c0,16.3-25.6,14.4-33.8,14.4V88.7
			C125.7,88.7,151.3,86.1,151.3,103.2z"/>
		<path class="st1" d="M92.4,120.4h2.1v1.6h-2.1V120.4z"/>
	</g>
</g>
<g>
</g>
<g>
</g>
<g>
</g>
<g>
</g>
<g>
</g>
<g>
</g>
<g>
</g>
<g>
</g>
<g>
</g>
<g>
</g>
<g>
</g>
<g>
</g>
<g>
</g>
<g>
</g>
<g>
</g>
</svg>
