<?xml version="1.0" encoding="utf-8"?>
<!-- Generator: Adobe Illustrator 16.0.0, SVG Export Plug-In . SVG Version: 6.00 Build 0)  -->
<!DOCTYPE svg PUBLIC "-//W3C//DTD SVG 1.1//EN" "http://www.w3.org/Graphics/SVG/1.1/DTD/svg11.dtd">
<svg version="1.1" id="Layer_1" xmlns="http://www.w3.org/2000/svg" xmlns:xlink="http://www.w3.org/1999/xlink" x="0px" y="0px"
	 width="128px" height="128px" viewBox="0 0 128 128" enable-background="new 0 0 128 128" xml:space="preserve">
<circle fill="#28ABE3" cx="63.664" cy="63.664" r="61.244"/>
<circle fill="#28ABE3" cx="-8.937" cy="7.471" r="6.656"/>
<g id="Black-_x26_-White">
	<g id="Bitcoin" transform="translate(-328.000000, -409.000000)">
		<g transform="translate(300.000000, 381.000000)">
			<path fill="#FFFFFF" d="M86.973,94.045L98.369,97.1c5.316,1.426,7.531,5.817,6.049,10.848c-0.982,3.672-3.514,6.523-6.889,6.976
				c-1.275,0.2-2.956-0.114-4.348-0.487l-10.89-2.916L86.973,94.045z M107.327,74.802c1.94,1.877,2.401,4.714,1.62,7.626
				c-1.221,4.557-4.727,7.01-9.284,5.789l-10.384-2.782l4.104-15.319l9.116,2.442C104.527,73.102,106.232,73.83,107.327,74.802z
				 M91.852,123.441c-1.583,5.908-2.375,8.863-2.375,8.863s-1.983-0.533-5.95-1.597l2.375-8.862l-6.204-1.662
				c-1.583,5.908-2.375,8.863-2.375,8.863s-1.983-0.531-5.95-1.596l2.375-8.862c-7.934-2.124-11.901-3.188-11.901-3.188
				s0.723-2.699,2.171-8.103l3.672,0.984c1.898,0.51,3.699-0.638,4.173-2.409l9.601-35.831c0.509-1.898-0.636-3.698-2.409-4.173
				c-2.448-0.656-3.672-0.984-3.672-0.984s0.724-2.701,2.171-8.103l11.901,3.189c1.583-5.909,2.375-8.862,2.375-8.862
				s1.985,0.531,5.952,1.594l-2.374,8.862l6.204,1.663c1.582-5.908,2.373-8.863,2.373-8.863s1.982,0.532,5.951,1.595l-2.41,8.989
				c3.007,0.94,5.311,1.965,7.442,3.623c4.776,3.451,7.125,9.371,5.36,15.955c-1.491,5.571-5.246,9.45-10.574,10.602
				c6.005,3.916,7.393,10.395,5.729,16.598c-2.265,7.94-9.143,12.342-16.016,12.672C96.732,124.479,94.385,124.121,91.852,123.441z
				 M31.861,75.886c-8.888,33.171,10.853,67.363,44.024,76.253c33.171,8.889,67.365-10.854,76.253-44.023
				c8.889-33.172-10.854-67.364-44.023-76.253C74.941,22.974,40.75,42.715,31.861,75.886z"/>
		</g>
	</g>
</g>
</svg>
