<?xml version="1.0" encoding="utf-8"?>
<!-- Generator: Adobe Illustrator 24.2.1, SVG Export Plug-In . SVG Version: 6.00 Build 0)  -->
<svg version="1.1" id="Layer_1" xmlns="http://www.w3.org/2000/svg" xmlns:xlink="http://www.w3.org/1999/xlink" x="0px" y="0px"
	 viewBox="0 0 256 256" style="enable-background:new 0 0 256 256;" xml:space="preserve">
<style type="text/css">
	.st0{fill:#FFFFFF;}
	.st1{fill:#28ABE3;}
	.st2{fill:#374955;stroke:#FFFFFF;stroke-width:6;stroke-miterlimit:10;}
	.st3{fill:none;stroke:#28ABE3;stroke-width:6;stroke-miterlimit:10;}
	.st4{fill:none;stroke:#FFFFFF;stroke-width:17;stroke-miterlimit:10;}
	.st5{fill:none;stroke:#374955;stroke-width:6;stroke-miterlimit:10;}
	.st6{fill:#374955;}
	.st7{fill:none;stroke:#FFFFFF;stroke-width:17;stroke-linecap:round;stroke-miterlimit:10;}
	.st8{fill:none;stroke:#28ABE3;stroke-width:9;stroke-linecap:round;stroke-miterlimit:10;}
</style>
<g>
	<circle class="st0" cx="128" cy="128" r="118"/>
	<g>
		<g>
			<circle class="st1" cx="127.4" cy="136.4" r="34.1"/>
			<circle class="st2" cx="127.6" cy="136.6" r="27"/>
			<g id="XMLID_765_">
				<path id="XMLID_766_" class="st0" d="M135.5,135.1c0,0,4.1-1.9,2.3-6.3c-1.9-4.4-7.8-3.7-7.8-3.7V120H127v5.4h-2.3V120h-3v5.4
					h-6.3v3h4.2v16h-3.5v3.9h5.9v4.9h2.7v-5h2.5v4.9h3v-4.9c0,0,9.5,0,9.5-6.3C139.8,135.7,135.5,135.1,135.5,135.1z M124.7,128.4
					h3.7c0.7,0,1.4,0.2,1.9,0.6c0.7,0.5,1.5,1.4,1.5,2.8c0,2.4-2.9,2.8-3.6,2.8c-0.6,0-3.6,0-3.6,0V128.4z M127.3,144.7
					c-1.2,0-2.4,0-2.4,0v-7h4.7c1,0,1.9,0.3,2.7,0.9c0.7,0.6,1.2,1.4,1.2,2.7C133.5,144.4,128.4,144.7,127.3,144.7z"/>
				<path id="XMLID_1297_" class="st0" d="M122.6,152.7v-4.5c0-0.2-0.2-0.4-0.4-0.4h-5.5c0,0,0,0,0,0V145c0,0,0,0,0,0h3
					c0.2,0,0.4-0.2,0.4-0.4v-16.3c0-0.2-0.2-0.3-0.3-0.3h-3.8c0,0,0,0,0,0V126c0,0,0,0,0,0h6c0.2,0,0.3-0.2,0.3-0.3v-5.1
					c0,0,0,0,0,0h1.9c0,0,0,0,0,0v5.1c0,0.2,0.2,0.3,0.3,0.3h2.7c0.2,0,0.3-0.2,0.3-0.3v-5.1c0,0,0,0,0,0h1.8c0,0,0,0,0,0v4.7
					c0,0.2,0.2,0.4,0.5,0.4l0.1,0c0,0,0.3,0,0.8,0c1.8,0,5.1,0.4,6.4,3.4c1.6,3.9-1.8,5.5-2,5.6l0,0c-0.5,0.2-0.4,0.9,0.2,1l0,0
					c0.2,0,3.9,0.6,3.9,6.3c0,5.7-8.9,5.7-9,5.7h-0.1c-0.2,0-0.4,0.2-0.4,0.4v4.5c0,0,0,0,0,0h-1.9c0,0,0,0,0,0v-4.4
					c0-0.2-0.2-0.4-0.4-0.4h-2.7c-0.2,0-0.4,0.2-0.4,0.4v4.5c0,0,0,0,0,0L122.6,152.7C122.6,152.7,122.6,152.7,122.6,152.7z
					 M124.4,144.8c0,0.2,0.2,0.4,0.4,0.4h2.5c0.3,0,6.8,0,6.8-3.9c0-1.2-0.5-2.3-1.4-3.1c-0.8-0.7-1.9-1.1-3-1.1h-4.7
					c-0.3,0-0.5,0.2-0.5,0.5V144.8z M124.2,134.6c0,0.3,0.2,0.5,0.5,0.5h3.6c1.1,0,4.1-0.6,4.1-3.4c0-1.6-0.9-2.6-1.7-3.2
					c-0.6-0.5-1.4-0.7-2.2-0.7h-3.7c-0.3,0-0.5,0.2-0.5,0.5V134.6z"/>
			</g>
			<line class="st3" x1="101.3" y1="120.6" x2="86.6" y2="111"/>
			<circle class="st1" cx="76" cy="103.2" r="15.2"/>
			<circle class="st0" cx="76" cy="103.2" r="8.1"/>
			<g>
				<line class="st4" x1="111.3" y1="157.2" x2="75.6" y2="192.8"/>
				<line class="st5" x1="114.4" y1="154" x2="80.8" y2="187.6"/>
				<circle class="st6" cx="77" cy="191.4" r="12.6"/>
				<circle class="st0" cx="77" cy="191.4" r="6.3"/>
			</g>
			<g>
				<line class="st4" x1="128.7" y1="108.8" x2="128.7" y2="58.4"/>
				<line class="st5" x1="128.7" y1="113.3" x2="128.7" y2="65.8"/>
				<circle class="st6" cx="128.7" cy="60.7" r="12.4"/>
				<circle class="st0" cx="128.7" cy="60.7" r="6.2"/>
			</g>
			<g>
				<line class="st4" x1="147.9" y1="119.9" x2="186" y2="86.9"/>
				<line class="st5" x1="144.5" y1="122.9" x2="180.4" y2="91.7"/>
				<circle class="st6" cx="184.3" cy="88.3" r="12.5"/>
				<circle class="st0" cx="184.3" cy="88.3" r="6.3"/>
			</g>
		</g>
		<g>
			<line class="st7" x1="141.3" y1="154" x2="151.5" y2="166.7"/>
			<path class="st1" d="M170.5,153.4c-1.6,1.4-1.8,3.7-0.4,5.3l-1.6-1.9c-1.4-1.6-3.7-1.8-5.3-0.4s-1.8,3.7-0.4,5.3l-1.6-1.9
				c-1.4-1.6-3.7-1.8-5.3-0.4s-1.8,3.7-0.4,5.3l-8.2-9.5c-1.4-1.6-3.7-1.8-5.3-0.4s-1.8,3.7-0.4,5.3l20.4,23.8l-9.4,2.4
				c-0.9,0.2-1.8,0.7-2.6,1.3c-1.5,1.3-1.7,3.5-0.4,5l0,0c0.6,0.7,1.5,1.2,2.4,1.2l22.9,1.7c4.8,0.4,9.6-1.2,13.2-4.3l0,0
				c6.3-5.4,7-14.9,1.6-21.2l-13.9-16.2C174.5,152.3,172.1,152.1,170.5,153.4z"/>
			<line class="st8" x1="152.4" y1="166.6" x2="141.3" y2="154.6"/>
		</g>
	</g>
</g>
<g>
</g>
<g>
</g>
<g>
</g>
<g>
</g>
<g>
</g>
<g>
</g>
<g>
</g>
<g>
</g>
<g>
</g>
<g>
</g>
<g>
</g>
<g>
</g>
<g>
</g>
<g>
</g>
<g>
</g>
</svg>
