<?xml version="1.0" encoding="utf-8"?>
<!-- Generator: Adobe Illustrator 16.0.0, SVG Export Plug-In . SVG Version: 6.00 Build 0)  -->
<!DOCTYPE svg PUBLIC "-//W3C//DTD SVG 1.1//EN" "http://www.w3.org/Graphics/SVG/1.1/DTD/svg11.dtd">
<svg version="1.1" id="Layer_1" xmlns="http://www.w3.org/2000/svg" xmlns:xlink="http://www.w3.org/1999/xlink" x="0px" y="0px"
	 width="128px" height="128px" viewBox="0 0 128 128" enable-background="new 0 0 128 128" xml:space="preserve">
<circle fill="#FFFFFF" cx="63.664" cy="63.664" r="61.244"/>
<circle fill="#28ABE3" cx="-8.937" cy="7.471" r="6.656"/>
<g id="Black-_x26_-White">
	<g id="BitShares" transform="translate(-3911.000000, -2488.000000)">
		<g transform="translate(3911.000000, 2488.000000)">
			<path id="Logo" fill="#28ABE3" d="M36.923,80.49h17.434c0.19,1.301,0.699,2.535,1.482,3.598l-12.31,12.447
				C39.645,92.043,37.325,86.41,36.923,80.49z M36.889,54.14l19.002,18.997c-0.785,1.055-1.299,2.287-1.495,3.592l-17.507,0.098
				V54.14L36.889,54.14z M62.174,40.641v28.381c-1.301,0.189-2.534,0.701-3.598,1.482L36.93,48.679V18.22L62.174,40.641z
				 M81.855,58.227L69.527,70.555c-1.054-0.785-2.287-1.299-3.592-1.494l-0.097-17.507C71.762,51.982,77.385,54.325,81.855,58.227z
				 M91.077,76.84H73.643c-0.188-1.303-0.699-2.537-1.481-3.6l12.31-12.447C88.356,65.285,90.674,70.918,91.077,76.84z
				 M84.437,96.521l-12.327-12.33c0.785-1.055,1.299-2.287,1.495-3.592l17.507-0.098C90.683,86.426,88.339,92.049,84.437,96.521z
				 M65.825,105.742V88.307c1.302-0.189,2.535-0.697,3.598-1.48l12.448,12.309C77.379,103.02,71.745,105.338,65.825,105.742z
				 M46.145,99.102l12.327-12.328c1.056,0.787,2.288,1.299,3.593,1.498l0.097,17.504C56.238,105.348,50.616,103.004,46.145,99.102z"
				/>
		</g>
	</g>
</g>
</svg>
