<?xml version="1.0" encoding="utf-8"?>
<!-- Generator: Adobe Illustrator 24.2.1, SVG Export Plug-In . SVG Version: 6.00 Build 0)  -->
<svg version="1.1" id="Layer_1" xmlns="http://www.w3.org/2000/svg" xmlns:xlink="http://www.w3.org/1999/xlink" x="0px" y="0px"
	 viewBox="0 0 512 512" style="enable-background:new 0 0 512 512;" xml:space="preserve">
<style type="text/css">
	.st0{fill:#FFFFFF;}
	.st1{fill:#28ABE3;}
</style>
<g>
	<circle class="st0" cx="259.59" cy="259.41" r="238.41"/>
	<g>
		<path class="st1" d="M434.57,222.74c-2.36-11.45-5.84-22.63-10.4-33.39c-4.49-10.6-9.99-20.74-16.42-30.29
			c-6.37-9.44-13.64-18.23-21.71-26.27c-8.04-8.07-16.84-15.34-26.28-21.71c-9.56-6.4-19.7-11.89-30.28-16.42
			c-44.2-18.74-94.11-18.74-138.31,0c-21.15,8.92-40.36,21.88-56.56,38.15c-8.07,8.03-15.34,16.82-21.71,26.25
			c-6.4,9.57-11.89,19.71-16.42,30.29c-18.74,44.2-18.74,94.11,0,138.31c4.38,10.58,10.04,20.61,16.42,30.28
			c6.37,9.44,13.64,18.24,21.71,26.28c8.04,8.07,16.84,15.34,26.28,21.71c9.48,6.38,19.7,11.86,30.28,16.42
			c44.2,18.74,94.11,18.74,138.31,0c10.58-4.38,20.61-10.04,30.28-16.42c9.44-6.37,18.24-13.64,26.28-21.71
			c8.07-8.04,15.34-16.84,21.71-26.28c6.38-9.48,11.86-19.7,16.42-30.28C438.21,294.55,441.83,257.95,434.57,222.74z M260.49,414.13
			c-85.93,0-155.44-69.7-155.44-155.46s69.7-155.46,155.44-155.46c85.75,0,155.46,69.7,155.46,155.46S346.25,414.13,260.49,414.13z"
			/>
		<path class="st1" d="M263.24,400.63h4.2c0.73,0,1.45,0,2.18-0.19h0.19c0.73,0,1.27,0,2-0.18h0.55c0.55,0,1.1,0,1.64-0.18h0.55
			c0.55,0,1.1-0.18,1.83-0.18h0.36c0.73,0,1.46-0.19,2.19-0.19c0.73,0,1.28-0.18,2.01-0.36h0.36c0.55,0,1.1-0.18,1.64-0.18h0.37
			c0.73-0.19,1.28-0.19,2.01-0.37c1.45-0.18,2.91-0.55,4.19-0.91h0.37c0.54-0.18,1.27-0.18,1.82-0.37h0.18
			c1.46-0.36,2.74-0.73,4.2-1.09c-13.67,0.43-27.33-0.85-40.68-3.83c-20.09-4.38-39.23-12.22-55.47-25.73
			c-25.93-21.58-40.8-53.66-40.5-87.39c0.13-24.85,8.97-48.87,24.99-67.87c20.8-24.63,50.36-37.59,80.64-38.32h4.2v-24.26h-4.74
			c-9.21,0.17-18.38,1.27-27.37,3.28c-9.05,2.05-17.85,5.04-26.27,8.94c-8.58,4.02-16.61,8.94-24.09,14.6
			c-7.73,5.88-14.77,12.61-20.98,20.07c-5.85,6.91-10.93,14.43-15.14,22.44c-4.17,7.72-7.53,15.85-10.04,24.26
			c-2.46,8.28-4.11,16.78-4.92,25.38l-0.55,8.02v4.74c0.18,9.31,1.28,18.43,3.28,27.37c2.01,9.13,5.11,17.88,8.94,26.28
			c4.57,10.03,12.78,24.81,25,35.94c24.95,19.67,55.8,30.34,87.57,30.29C259.95,400.63,263.24,400.63,263.24,400.63z"/>
		<path class="st1" d="M303.01,377.27c-9-0.32-17.96-1.3-26.82-2.92c-37.58-6.75-69.88-29.74-81.73-64.4
			c-14.42-42.15,7.66-87.76,49.62-101.62c8-2.68,16.38-4.04,24.81-4.02c10.77,0,21.53,2.19,31.4,6.2l10.21-21.71
			c-3.07-1.23-6.17-2.38-9.3-3.46c-10.45-3.28-21.35-4.94-32.3-4.93c-10.98,0.02-21.88,1.81-32.29,5.29
			c-13.29,4.38-25.52,11.46-35.94,20.8c-5.02,4.48-9.61,9.43-13.68,14.78c-4.03,5.29-7.51,10.98-10.4,16.97
			c-5.88,12.05-9.36,25.13-10.22,38.5c-0.91,13.86,0.91,27.71,5.47,40.86c4.65,13.52,12.11,25.9,21.9,36.31
			c8.94,9.67,19.34,16.97,31.92,23.72c13.14,6.93,29.38,10.58,46.34,12.96c10.95,1.45,25.55,1.82,34.12,1.82
			c7.48-2.74,10.58-4.02,14.6-5.66c3.47-1.64,6.93-3.28,10.4-5.29s4.02-2.38,9.85-6.2c0.52-0.32,1.01-0.69,1.46-1.1
			C322.35,377.64,317.24,377.45,303.01,377.27z"/>
		<path class="st1" d="M347.91,350.09c-5.66,0.36-13.69,0.89-22.81,0.89c-16.24,0-36.13-1.45-53.09-7.11
			c-26.28-8.75-51.09-31.19-51.09-58.93c-0.02-27.58,22.32-49.97,49.9-49.99c0.03,0,0.06,0,0.09,0c18.79,0,35.03,10.4,43.61,25.54
			l21.71-10.76c-3.4-6.41-7.78-12.25-12.96-17.33c-28.87-28.92-75.72-28.96-104.65-0.09c-0.03,0.03-0.06,0.06-0.09,0.09
			c-13.9,13.88-21.71,32.72-21.71,52.36c0.05,10.19,2.23,20.26,6.41,29.56c3.81,8.39,9.12,16.24,15.87,23.54
			c11.86,12.75,28.09,22.98,45.43,28.82c16.6,5.47,41.05,7.48,64.77,5.84c6.56-0.55,11.49-1.1,19.88-2.92
			c8.1-6.39,15.44-13.67,21.9-21.71C365.42,348.45,355.02,349.54,347.91,350.09z"/>
	</g>
</g>
<g>
</g>
<g>
</g>
<g>
</g>
<g>
</g>
<g>
</g>
<g>
</g>
<g>
</g>
<g>
</g>
<g>
</g>
<g>
</g>
<g>
</g>
<g>
</g>
<g>
</g>
<g>
</g>
<g>
</g>
</svg>
