<?xml version="1.0" encoding="utf-8"?>
<!-- Generator: Adobe Illustrator 16.0.0, SVG Export Plug-In . SVG Version: 6.00 Build 0)  -->
<!DOCTYPE svg PUBLIC "-//W3C//DTD SVG 1.1//EN" "http://www.w3.org/Graphics/SVG/1.1/DTD/svg11.dtd">
<svg version="1.1" id="Layer_1" xmlns="http://www.w3.org/2000/svg" xmlns:xlink="http://www.w3.org/1999/xlink" x="0px" y="0px"
	 width="128px" height="128px" viewBox="0 0 128 128" enable-background="new 0 0 128 128" xml:space="preserve">
<circle fill="#28ABE3" cx="64.121" cy="64.12" r="60.712"/>
<g>
	<title>Layer 1</title>
	<g id="svg_2">
		<path id="svg_3" fill="#FFFFFF" d="M64.584,20.213c-23.067,0-41.769,18.7-41.769,41.769c0,12.059,5.115,22.921,13.289,30.546
			c0.517,0.65,1.301,1.066,2.18,1.066c1.188,0,2.203-0.76,2.616-1.836c0.007-0.003,0.012-0.008,0.019-0.01
			c1.278-2.729,3.022-5.241,5.179-7.398c4.893-4.893,11.608-7.676,18.53-7.676c6.924,0,13.64,2.783,18.533,7.676
			c2.056,2.054,3.736,4.431,4.996,7.011c0.123,0.239,0.242,0.481,0.355,0.729c0.014,0.006,0.026,0.012,0.04,0.017
			c0.496,0.813,1.374,1.354,2.378,1.354c0.647,0,1.246-0.229,1.723-0.611c0.028-0.005,0.059-0.013,0.088-0.02
			c8.366-7.637,13.614-18.629,13.614-30.848C106.354,38.914,87.653,20.213,64.584,20.213L64.584,20.213z M65.063,75.026
			c-7.821,0-14.35-6.526-14.35-14.349c0-7.821,6.528-14.349,14.35-14.349c7.822,0,14.35,6.529,14.35,14.349
			C79.414,68.5,72.886,75.026,65.063,75.026L65.063,75.026z"/>
		<circle id="svg_4" fill="#FFFFFF" cx="65.026" cy="98.281" r="14.079"/>
	</g>
</g>
<g>
</g>
<g>
</g>
<g>
</g>
<g>
</g>
<g>
</g>
<g>
</g>
</svg>
