<?xml version="1.0" encoding="utf-8"?>
<!-- Generator: Adobe Illustrator 24.2.1, SVG Export Plug-In . SVG Version: 6.00 Build 0)  -->
<svg version="1.1" id="Layer_1" xmlns="http://www.w3.org/2000/svg" xmlns:xlink="http://www.w3.org/1999/xlink" x="0px" y="0px"
	 viewBox="0 0 256 256" style="enable-background:new 0 0 256 256;" xml:space="preserve">
<style type="text/css">
	.st0{fill:#FFFFFF;}
	.st1{fill:#28ABE3;}
</style>
<g>
	<g>
		<circle class="st0" cx="128" cy="128" r="121.5"/>
	</g>
	<g>
		<g>
			<g>
				<path class="st1" d="M57.7,158.7c-3.7-3.6-5.5-8.8-5.5-15.6v-5.4c0-6.8,1.8-11.9,5.5-15.5c3.7-3.5,8.8-5.3,15.3-5.3
					c6.4,0,11.4,1.5,14.9,4.5c3.6,3,5.4,7.1,5.4,12.4v0.5H82.7v-0.4c0-2.3-0.8-4.1-2.5-5.4c-1.7-1.3-4-2-6.9-2c-3.4,0-6,0.9-7.7,2.7
					c-1.7,1.8-2.6,4.7-2.6,8.6v5.2c0,4,0.9,6.9,2.6,8.6c1.8,1.8,4.4,2.7,7.9,2.7c2.8,0,5-0.6,6.6-1.9c1.6-1.3,2.4-3,2.4-5.1v-0.4
					h10.6v0.4c0,5.2-1.8,9.3-5.4,12.3c-3.6,3-8.5,4.5-14.8,4.5C66.5,164,61.4,162.2,57.7,158.7z"/>
			</g>
			<g>
				<path class="st1" d="M183,164c-6.3,0-11.3-1.5-14.8-4.5c-3.6-3-5.4-7.1-5.4-12.3v-0.4h10.6v0.4c0,2.2,0.8,3.9,2.4,5.1
					c1.6,1.3,3.8,1.9,6.6,1.9c3.5,0,6.1-0.9,7.9-2.7c1.8-1.8,2.6-4.7,2.6-8.6v-5.2c0-3.9-0.9-6.8-2.6-8.6c-1.7-1.8-4.3-2.7-7.7-2.7
					c-2.9,0-5.2,0.7-6.9,2c-1.7,1.3-2.5,3.1-2.5,5.4v0.4h-10.6v-0.5c0-5.3,1.8-9.4,5.4-12.4c3.6-3,8.5-4.5,14.9-4.5
					c6.5,0,11.6,1.8,15.3,5.3c3.7,3.5,5.5,8.7,5.5,15.5v5.4c0,6.8-1.8,12.1-5.5,15.6C194.6,162.2,189.5,164,183,164z"/>
			</g>
			<g>
				<path class="st1" d="M107,151.7l24.9-26.6c2.1-2.1,3.6-3.9,4.4-5.6c0.8-1.6,1.3-3.4,1.3-5.4v-1.1c0-2.6-0.9-4.6-2.6-6.1
					c-1.7-1.5-4-2.2-7-2.2c-2.9,0-5.2,0.7-6.9,2.1c-1.7,1.4-2.5,3.4-2.5,5.9v1.5h-12.1V112c0-5.5,1.9-9.8,5.8-13.1
					c3.9-3.2,9.1-4.9,15.8-4.9c4.5,0,8.4,0.8,11.8,2.4c3.3,1.6,5.9,3.8,7.7,6.6c1.8,2.8,2.7,6.1,2.7,9.7v1.3c0,3.4-0.7,6.5-2,9.3
					c-1.4,2.8-3.4,5.6-6.3,8.4l-18,18.9h26.4v11.1H107V151.7z"/>
			</g>
		</g>
		<circle class="st1" cx="149.7" cy="85.7" r="7.6"/>
	</g>
</g>
<g>
</g>
<g>
</g>
<g>
</g>
<g>
</g>
<g>
</g>
<g>
</g>
<g>
</g>
<g>
</g>
<g>
</g>
<g>
</g>
<g>
</g>
<g>
</g>
<g>
</g>
<g>
</g>
<g>
</g>
</svg>
