<?xml version="1.0" encoding="utf-8"?>
<!-- Generator: Adobe Illustrator 24.2.1, SVG Export Plug-In . SVG Version: 6.00 Build 0)  -->
<svg version="1.1" id="Layer_1" xmlns="http://www.w3.org/2000/svg" xmlns:xlink="http://www.w3.org/1999/xlink" x="0px" y="0px"
	 viewBox="0 0 256 256" style="enable-background:new 0 0 256 256;" xml:space="preserve">
<style type="text/css">
	.st0{fill:#FFFFFF;}
	.st1{fill:#28ABE3;}
</style>
<g>
	<circle class="st0" cx="128" cy="128" r="124.5"/>
</g>
<path id="Fill-42_8_" class="st1" d="M141.4,109.8c0.4,0,0.4,0.4,0.8,0.8c0,0.4,0,0.8,0,1.2l-4.7,6.7c0,0.4-0.4,0.4-0.8,0.4
	s-0.8,0-0.8-0.4c-0.8-0.8-2-1.2-3.1-1.6c-1.2-0.4-2.3-0.8-3.5-0.4c-3.1,0-5.9,1.2-7.8,3.1c-0.8,1.2-1.6,2.3-2.3,3.5
	c-1.2,2.7-1.2,5.9,0,8.6c0.4,1.2,1.2,2.3,2.3,3.5c2,2.3,4.7,3.5,7.8,3.1c2.3,0,4.7-0.8,6.7-2.3c0.4,0,0.4-0.4,0.8-0.4
	c0.4,0,0.4,0.4,0.8,0.4l5.1,7c0,0.4,0,0.8,0,1.2c0,0.4-0.4,0.4-0.8,0.8c-2,1.2-3.5,2-5.9,2.7c-2,0.8-4.3,1.2-6.7,1.2
	c-5.9,0-11.4-2.3-15.3-6.3c-1.2-1.2-2.3-2.7-3.5-4.3c-0.8-1.6-1.6-3.5-2.3-5.1c-1.6-5.5-0.8-11.7,2.3-16.8c0.8-1.6,2-3.1,3.5-4.3
	c1.2-1.2,2.7-2.3,4.3-3.5c1.6-0.8,3.5-1.6,5.1-2.3c3.9-1.2,8.2-1.2,12.1,0C137.5,107.5,139.5,108.7,141.4,109.8z M137.1,50.3
	c0-5.1-3.9-9-9-9c-5.1,0-9,3.9-9,9s3.9,9,9,9l0,0C133.2,59.3,137.1,55.4,137.1,50.3z M141.8,68.7c-10.2,7.4-24.3,5.5-31.7-4.7
	s-5.5-24.3,4.7-31.7s24.3-5.5,31.7,4.7l0,0C153.6,46.8,151.6,60.9,141.8,68.7L141.8,68.7z M69.8,166.6c0-5.1-3.9-9-9-9s-9,3.9-9,9
	c0,5.1,3.9,9,9,9l0,0C65.9,175.6,70.2,171.3,69.8,166.6C70.2,166.6,70.2,166.6,69.8,166.6L69.8,166.6z M74.5,184.6
	c-9.8,7.4-24.3,5.5-31.7-4.3c-7.4-10.2-5.5-24.3,4.3-32.1c9.8-7.8,24.3-5.5,32.1,4.3c0,0,0,0,0,0.4
	C86.6,163.1,84.7,177.2,74.5,184.6z M204.1,166.2c0-5.1-3.9-9-9-9c-5.1,0-9,3.9-9,9c0,5.1,3.9,9,9,9l0,0
	C200.2,175.6,204.1,171.3,204.1,166.2C204.5,166.6,204.5,166.6,204.1,166.2L204.1,166.2z M179.8,149.8c9.4-8.6,23.5-7.8,32.1,1.2
	c8.6,9.4,7.8,23.5-1.2,32.1c-9.4,8.6-23.5,7.8-32.1-1.2l0,0C170,172.5,170.4,158,179.8,149.8L179.8,149.8z M70.2,89.1
	c0-5.1-3.9-9-9-9s-9,3.9-9,9c0,5.1,3.9,9,9,9l0,0C65.9,98.1,69.8,94.2,70.2,89.1L70.2,89.1z M137.1,205c0-5.1-3.9-9-9-9
	c-5.1,0-9,3.9-9,9c0,5.1,3.9,9,9,9l0,0C133.2,214,137.1,210.1,137.1,205z M159.8,132.2c2.3-17.6-9.8-34.1-27.4-36.4
	s-34.1,9.8-36.4,27.4c-2.3,17.6,9.8,33.7,27.4,36.4S157.5,150.2,159.8,132.2C159.8,132.5,159.8,132.2,159.8,132.2z M204.1,89.1
	c0-5.1-3.9-9.4-9-9.4c-5.1,0-9.4,3.9-9.4,9c0,5.1,3.9,9.4,9,9.4c0,0,0,0,0.4,0C200.2,98.1,204.1,94.2,204.1,89.1L204.1,89.1z
	 M134.8,172.9v8.2c0,0.4-0.4,2.3,0,2.7c3.5,1.2,6.7,3.1,9,5.5c9,9,9,23.5,0,32.1c-9,9-23.5,9-32.1,0c-9-9-9-23.5,0-32.1
	c2.3-2.3,5.1-4.3,8.6-5.5c0.4,0,0.8,0,0.8-0.8v-9.4c0-0.4,0-0.8-0.4-0.8h-1.2c-7-1.2-14.1-4.3-19.6-9c-11.7-9-18-23.5-17.2-38.4
	c0-3.5,0.8-7,2-10.6c0.4-0.8,0.4-1.6,0.8-2.3c0-0.4,0.4-0.8,0-1.2l-1.2-0.8l-4.7-2.7l-2.3-1.6c-0.4-0.4-0.8-0.4-1.2,0l-1.2,0.8
	c-1.6,1.2-2.7,2-4.7,2.7c-3.5,1.6-7,2.3-11,2c-12.5-0.8-21.9-11.7-21.1-24.3s11.7-21.9,24.3-21.1s21.9,11.7,21.1,24.3
	c0,0.4,0,1.2,0,1.6s0,0.8-0.4,1.2c-0.4,0.8-0.4,0.4,0,0.4l0.4,0.4l2.3,1.2l4.7,2.7l1.2,0.8c0.4,0.4,0.8,0,0.8-0.4l1.6-2
	c11.4-12.5,28.6-17.6,45-13.3c6.7,1.6,13.3,5.1,18.4,9.8c1.6,1.2,2.7,2.3,3.9,3.9l0.8,1.2c0.4,0.4,0.4,1.2,0.8,0.8l2.3-1.6l4.7-2.7
	l1.2-0.8l0.8-0.4c0.4,0,0-0.4,0-0.4c-2.3-12.5,5.5-24.3,18-27c12.5-2.3,24.3,5.5,27,18c2.3,12.5-5.5,24.3-18,27
	c-1.6,0.4-3.5,0.4-5.1,0.4c-3.9,0-7.4-1.2-10.6-2.7c-1.6-0.8-2.7-2-4.3-3.1c-0.4-0.4-1.2,0.4-1.2,0.4l-1.2,0.8l-1.6,1.6l-2.3,1.6
	l-1.2,0.8l-0.4,0.4c0,0-0.8,0-0.4,0.4c2,5.1,3.1,11,3.1,16.4c0,7-1.6,14.1-4.7,20.4C162.2,161.1,149.7,170.5,134.8,172.9
	L134.8,172.9z"/>
<g>
</g>
<g>
</g>
<g>
</g>
<g>
</g>
<g>
</g>
<g>
</g>
<g>
</g>
<g>
</g>
<g>
</g>
<g>
</g>
<g>
</g>
<g>
</g>
<g>
</g>
<g>
</g>
<g>
</g>
</svg>
