<?xml version="1.0" encoding="utf-8"?>
<!-- Generator: Adobe Illustrator 16.0.0, SVG Export Plug-In . SVG Version: 6.00 Build 0)  -->
<!DOCTYPE svg PUBLIC "-//W3C//DTD SVG 1.1//EN" "http://www.w3.org/Graphics/SVG/1.1/DTD/svg11.dtd">
<svg version="1.1" id="Layer_1" xmlns="http://www.w3.org/2000/svg" xmlns:xlink="http://www.w3.org/1999/xlink" x="0px" y="0px"
	 width="128px" height="128px" viewBox="0 0 128 128" enable-background="new 0 0 128 128" xml:space="preserve">
<circle fill="#FFFFFF" cx="63.664" cy="63.664" r="61.244"/>
<circle fill="#28ABE3" cx="-8.937" cy="7.471" r="6.656"/>
<g id="Black-_x26_-White">
	<g id="Civic" transform="translate(-5792.000000, -3963.000000)">
		<g transform="translate(5792.000000, 3963.000000)">
			<path id="Logo" fill="#28ABE3" d="M26.323,64c0-21.183,17.18-38.412,38.293-38.412c17.232,0,31.373,10.689,36.63,27.948h13.197
				c-5.564-25.014-25.469-40.756-49.828-40.756c-28.199,0-51.059,22.932-51.059,51.219s22.859,51.219,51.058,51.219
				c24.36,0,44.172-15.332,49.827-40.756h-13.197C96,91.674,81.848,102.414,64.615,102.414C43.499,102.416,26.323,85.184,26.323,64z
				 M76.578,57.198c0-6.628-5.358-12-11.963-12c-6.605,0-11.967,5.371-11.967,11.999c-0.005,4.585,2.602,8.771,6.717,10.789v14.822
				h10.5v-14.82C73.979,65.966,76.584,61.78,76.578,57.198z"/>
		</g>
	</g>
</g>
</svg>
