<?xml version="1.0" encoding="utf-8"?>
<!-- Generator: Adobe Illustrator 16.0.0, SVG Export Plug-In . SVG Version: 6.00 Build 0)  -->
<!DOCTYPE svg PUBLIC "-//W3C//DTD SVG 1.1//EN" "http://www.w3.org/Graphics/SVG/1.1/DTD/svg11.dtd">
<svg version="1.1" id="Layer_1" xmlns="http://www.w3.org/2000/svg" xmlns:xlink="http://www.w3.org/1999/xlink" x="0px" y="0px"
	 width="128px" height="128px" viewBox="0 0 128 128" enable-background="new 0 0 128 128" xml:space="preserve">
<circle fill="#28ABE3" cx="63.664" cy="63.664" r="61.244"/>
<circle fill="#28ABE3" cx="-8.937" cy="7.471" r="6.656"/>
<g id="Black-_x26_-White">
	<g id="Dash" transform="translate(-3305.000000, -410.000000)">
		<g transform="translate(3305.000000, 410.000000)">
			<path id="Logo" fill="#FFFFFF" d="M64,126.5c34.518,0,62.5-27.982,62.5-62.5c0-34.518-27.982-62.5-62.5-62.5
				C29.482,1.5,1.5,29.482,1.5,64C1.5,98.518,29.482,126.5,64,126.5z M36.421,51.924c0.058-0.211,0.106-0.42,0.173-0.621
				c1.206-3.613,2.413-7.223,3.621-10.835c0.21-0.628,0.212-0.63,0.887-0.63c11.922,0,23.843,0,35.766,0
				c6.521,0,13.047,0.005,19.569-0.003c1.861-0.003,3.584,0.482,5.197,1.378c0.868,0.481,1.553,1.164,2.078,2.012
				c0.872,1.416,1.292,2.958,1.479,4.604c0.19,1.666-0.109,3.216-0.664,4.778c-0.756,2.135-1.393,4.311-2.078,6.468
				c-1.756,5.514-3.501,11.032-5.273,16.542c-0.371,1.152-0.982,2.205-1.557,3.27c-1.163,2.153-2.865,3.83-4.708,5.395
				c-1.343,1.138-2.869,1.982-4.38,2.863c-1.385,0.808-2.901,1.141-4.455,1.328c-0.766,0.092-1.543,0.108-2.314,0.108
				c-18.159,0.006-36.318,0.006-54.479,0.002c-0.264,0-0.528-0.017-0.867-0.026c0.048-0.232,0.066-0.41,0.121-0.574
				c1.233-3.692,2.468-7.385,3.707-11.075c0.169-0.505,0.175-0.505,0.77-0.505c7.314,0,14.629,0,21.943,0h27.238
				c0.119,0,0.236,0,0.354,0c0.552-0.004,0.556-0.002,0.729-0.543c1.271-3.892,2.541-7.783,3.813-11.674
				c1.239-3.796,2.481-7.59,3.724-11.386c0.064-0.204,0.113-0.412,0.188-0.684c-0.264-0.016-0.474-0.038-0.687-0.039
				c-3.446-0.001-6.895-0.001-10.34-0.001c-12.88,0-25.761,0-38.64-0.001C37.043,52.071,36.734,52.127,36.421,51.924 M22.611,69.646
				c0.073-0.264,0.118-0.469,0.189-0.666c1.129-3.135,2.261-6.265,3.393-9.396c0.102-0.284,0.205-0.567,0.305-0.851
				c0.07-0.198,0.203-0.298,0.418-0.287c0.133,0.006,0.267-0.001,0.401-0.001c9.474,0,18.948,0,28.422,0.001
				c0.23,0,0.459,0.02,0.761,0.033c-0.062,0.246-0.096,0.438-0.156,0.621c-1.106,3.32-2.214,6.639-3.324,9.957
				c-0.213,0.637-0.216,0.639-0.88,0.639c-9.155,0-18.311,0-27.466,0c-0.503,0-1.005,0.003-1.509-0.002
				C23.003,69.688,22.842,69.666,22.611,69.646"/>
		</g>
	</g>
</g>
</svg>
