<?xml version="1.0" encoding="utf-8"?>
<!-- Generator: Adobe Illustrator 16.0.0, SVG Export Plug-In . SVG Version: 6.00 Build 0)  -->
<!DOCTYPE svg PUBLIC "-//W3C//DTD SVG 1.1//EN" "http://www.w3.org/Graphics/SVG/1.1/DTD/svg11.dtd">
<svg version="1.1" id="Layer_1" xmlns="http://www.w3.org/2000/svg" xmlns:xlink="http://www.w3.org/1999/xlink" x="0px" y="0px"
	 width="128px" height="128px" viewBox="0 0 128 128" enable-background="new 0 0 128 128" xml:space="preserve">
<circle fill="#28ABE3" cx="63.664" cy="63.664" r="61.244"/>
<circle fill="#28ABE3" cx="-8.937" cy="7.471" r="6.656"/>
<path id="path1_fill" fill="#FFFFFF" d="M1.26,64.003c0-34.642,28.099-62.74,62.74-62.74c34.641,0,62.74,28.098,62.74,62.74
	c0,17.889-7.475,34.012-19.482,45.451C89.396,78.083,74.867,43.17,64,4.267v-0.54C53.104,42.75,38.514,77.813,20.532,109.273
	C8.645,97.835,1.26,81.775,1.26,64.003z M63.94,64.604c-3.903,19.212-11.317,38.576-22.004,58.148
	c14.139,5.282,29.72,5.313,43.888,0.089C75.139,103.239,67.783,83.816,63.94,64.604L63.94,64.604z"/>
</svg>
