<?xml version="1.0" encoding="utf-8"?>
<!-- Generator: Adobe Illustrator 16.0.0, SVG Export Plug-In . SVG Version: 6.00 Build 0)  -->
<!DOCTYPE svg PUBLIC "-//W3C//DTD SVG 1.1//EN" "http://www.w3.org/Graphics/SVG/1.1/DTD/svg11.dtd">
<svg version="1.1" id="Layer_1" xmlns="http://www.w3.org/2000/svg" xmlns:xlink="http://www.w3.org/1999/xlink" x="0px" y="0px"
	 width="128px" height="128px" viewBox="0 0 128 128" enable-background="new 0 0 128 128" xml:space="preserve">
<circle fill="#FFFFFF" cx="63.664" cy="63.664" r="61.244"/>
<circle fill="#28ABE3" cx="-8.937" cy="7.471" r="6.656"/>
<g id="Black-_x26_-White">
	<g id="DigiByte" transform="translate(-4518.000000, -4670.000000)">
		<g transform="translate(4518.000000, 4670.000000)">
			<path id="Combined-Shape" fill="#28ABE3" d="M64,126.365C29.557,126.365,1.635,98.443,1.635,64
				C1.635,29.557,29.557,1.635,64,1.635c34.443,0,62.365,27.922,62.365,62.365C126.365,98.443,98.443,126.365,64,126.365z
				 M64,114.592c27.939,0,50.592-22.65,50.592-50.592c0-27.941-22.65-50.593-50.592-50.593c-27.941,0-50.593,22.651-50.593,50.593
				C13.407,91.939,36.059,114.592,64,114.592z"/>
			<path id="Fill-6" fill="#28ABE3" d="M81.625,32.789h-7.666l-2.302,6.006h-2.564l2.011-6.006h-7.737l-2.019,5.222
				c-14.672-0.014-22.007-0.014-22.007,0L32.534,49.83c0,0,13.474-0.132,40.419-0.397c15.595,0,1.006,32.204-19.972,30.672
				l9.602-26.226H47.626C37.565,78.771,32.534,91.215,32.534,91.215s2.604,0,7.811,0l-1.004,3.951h8.052l1.391-3.951h2.313
				l-1.257,3.951h7.957l2.028-6.133c27.993,0.351,56.969-50.255,19.452-50.036L81.625,32.789z"/>
		</g>
	</g>
</g>
</svg>
