<?xml version="1.0" encoding="utf-8"?>
<!-- Generator: Adobe Illustrator 24.2.1, SVG Export Plug-In . SVG Version: 6.00 Build 0)  -->
<svg version="1.1" id="Layer_1" xmlns="http://www.w3.org/2000/svg" xmlns:xlink="http://www.w3.org/1999/xlink" x="0px" y="0px"
	 viewBox="0 0 256 256" style="enable-background:new 0 0 256 256;" xml:space="preserve">
<style type="text/css">
	.st0{fill-rule:evenodd;clip-rule:evenodd;fill:#FFFFFF;}
	.st1{fill-rule:evenodd;clip-rule:evenodd;fill:#28ABE3;}
</style>
<path id="rect10" class="st0" d="M128,3.9L128,3.9c68.9,0,124.1,55.8,124.1,124.1l0,0c0,68.9-55.8,124.1-124.1,124.1l0,0
	C59.7,252.7,3.9,196.9,3.9,128l0,0C3.9,59.7,59.7,3.9,128,3.9z"/>
<path id="path12" class="st1" d="M60.6,63.5h73.9c30.1,0,60.8,21.3,60.8,64.5s-30.7,64.5-60.8,64.5H80.1V123h32v38.2h21.3
	c13.8,0,30.1-15.7,30.1-33.2s-15.7-33.2-30.1-33.2H98.2C82.6,94.8,70,84.1,60.6,63.5z"/>
<g>
</g>
<g>
</g>
<g>
</g>
<g>
</g>
<g>
</g>
<g>
</g>
<g>
</g>
<g>
</g>
<g>
</g>
<g>
</g>
<g>
</g>
<g>
</g>
<g>
</g>
<g>
</g>
<g>
</g>
</svg>
