<?xml version="1.0" encoding="utf-8"?>
<!-- Generator: Adobe Illustrator 16.0.0, SVG Export Plug-In . SVG Version: 6.00 Build 0)  -->
<!DOCTYPE svg PUBLIC "-//W3C//DTD SVG 1.1//EN" "http://www.w3.org/Graphics/SVG/1.1/DTD/svg11.dtd">
<svg version="1.1" id="Layer_1" xmlns="http://www.w3.org/2000/svg" xmlns:xlink="http://www.w3.org/1999/xlink" x="0px" y="0px"
	 width="128px" height="128px" viewBox="0 0 128 128" enable-background="new 0 0 128 128" xml:space="preserve">
<circle fill="#28ABE3" cx="63.664" cy="63.664" r="61.244"/>
<circle fill="#28ABE3" cx="-8.937" cy="7.471" r="6.656"/>
<g id="Page-1">
	<g id="crypto" transform="translate(-505.000000, -208.000000)">
		<g id="Dogecoin" transform="translate(505.000000, 208.000000)">
			<circle id="Oval" fill="#FFFFFF" cx="63.522" cy="63.522" r="61.643"/>
			<path id="Shape" fill="#28ABE3" d="M29.298,98.137V81.801h9.527V44.466h-9.527V28.714h39.861c2.725,0,5.449,0.777,7.977,1.75
				c5.055,1.945,9.524,4.861,13.028,9.14c3.11,3.694,5.248,7.973,6.415,12.834c1.945,8.167,1.945,16.529-0.39,24.697
				c-3.11,10.695-9.722,17.888-21.001,20.418c-1.944,0.387-4.084,0.583-6.029,0.777H30.853
				C30.271,98.137,29.88,98.137,29.298,98.137z M58.271,81.801c2.14,0,4.279,0.195,6.417,0c2.725-0.194,5.252-1.165,7.002-3.5
				c1.555-1.943,2.919-4.082,3.694-6.416c1.553-5.251,0.973-10.502-0.195-15.752c-0.58-3.111-2.14-6.028-4.084-8.363
				c-1.165-1.36-2.721-2.916-4.473-3.11c-2.721-0.583-5.639-0.194-8.361-0.194V81.801z"/>
		</g>
	</g>
</g>
</svg>
