<?xml version="1.0" encoding="utf-8"?>
<!-- Generator: Adobe Illustrator 16.0.0, SVG Export Plug-In . SVG Version: 6.00 Build 0)  -->
<!DOCTYPE svg PUBLIC "-//W3C//DTD SVG 1.1//EN" "http://www.w3.org/Graphics/SVG/1.1/DTD/svg11.dtd">
<svg version="1.1" id="Layer_1" xmlns="http://www.w3.org/2000/svg" xmlns:xlink="http://www.w3.org/1999/xlink" x="0px" y="0px"
	 width="128px" height="128px" viewBox="0 0 128 128" enable-background="new 0 0 128 128" xml:space="preserve">
<circle fill="#FFFFFF" cx="63.664" cy="63.664" r="61.244"/>
<circle fill="#28ABE3" cx="-8.937" cy="7.471" r="6.656"/>
<g id="Black-_x26_-White">
	<g id="Ethereum" transform="translate(-1507.000000, -410.000000)">
		<g transform="translate(1507.000000, 410.000000)">
			<path id="Combined-Shape" fill="#25A9D8" d="M31.007,64L64.846,9.857v39.565L31.007,64z M96.993,64L64.846,49.441V9.857
				L96.993,64z"/>
			<path id="Combined-Shape_1_" fill="#25A9D8" d="M64.846,84.303L31.007,65.271l33.839-14.806V84.303z M96.993,65.274
				L64.846,84.303V50.464L96.993,65.274z"/>
			<path id="Combined-Shape_2_" fill="#25A9D8" d="M31.007,72.459l33.839,19.535v26.148L31.007,72.459z M96.993,72.459
				l-32.147,45.684v-26.15L96.993,72.459z"/>
			<polygon id="Path-3" fill="#28ABE3" points="96.993,64 64.846,49.441 64.846,9.857 			"/>
			<polygon id="Path-5" fill="#28ABE3" points="96.993,65.274 64.846,50.464 64.846,84.303 			"/>
			<polygon id="Path-7" fill="#28ABE3" points="96.993,72.459 64.846,91.992 64.846,118.143 			"/>
		</g>
	</g>
</g>
</svg>
