<?xml version="1.0" encoding="utf-8"?>
<!-- Generator: Adobe Illustrator 24.2.1, SVG Export Plug-In . SVG Version: 6.00 Build 0)  -->
<svg version="1.1" id="Layer_1" xmlns="http://www.w3.org/2000/svg" xmlns:xlink="http://www.w3.org/1999/xlink" x="0px" y="0px"
	 width="128px" height="128px" viewBox="0 0 128 128" style="enable-background:new 0 0 128 128;" xml:space="preserve">
<style type="text/css">
	.st0{fill:#FFFFFF;}
	.st1{fill:#0097BF;}
	.st2{fill:#D9D9D9;}
	.st3{fill:#353434;}
	.st4{fill:#28ABE3;}
	.st5{fill:#13A1D3;}
	.st6{fill:#F2F2F2;}
</style>
<g>
	<circle class="st0" cx="64" cy="64" r="63"/>
</g>
<path class="st1" d="M40.1,76.2c0,0,8.5,12.6,23.7,0.3c0,0-8.2-10.4-10.5-14C53.3,62.5,43.6,75.3,40.1,76.2z"/>
<path class="st1" d="M87.2,49.8c0,0-8.5-12.6-23.7-0.3c0,0,8.2,10.4,10.5,14C74,63.5,83.7,50.6,87.2,49.8z"/>
<circle id="Shape_1_copy" class="st2" cx="63.5" cy="61.8" r="4.2"/>
<circle id="Shape_1_copy_2" class="st3" cx="101.2" cy="63.4" r="4.2"/>
<path class="st4" d="M20.6,50.6c0,0,11.7-8.7,22,0.5c0,0,8.3,8.3,13.4,15.9c0,0,9.7,14.5,20,18.5c9.6,3.7,22,2.5,31-11
	c0,0-12.9,10.1-24.8-2.8c0,0-8.7-9.7-9.5-11.6c0,0-13.3-19.6-26.2-21.5C46.6,38.6,31.6,34.3,20.6,50.6z"/>
<path class="st5" d="M63.9,76.7c0,0-13,14.5-28,9.5c-15-5-17.1-16.3-17.5-21.2s1.3-10.1,7.4-10.9c0,0,6.2-1,8.2,5
	c0,0,0.4,1.2,1.2,6.4c0.8,5.2,3.3,9,6.4,12.5c0,0,8.6,9.7,22.1-1.5L63.9,76.7z"/>
<path class="st5" d="M63.6,49.2c0,0,13.2-14.3,28.1-9s16.8,16.6,17.1,21.5c0.3,4.9-1.5,10.1-7.6,10.8c0,0-6.2,0.9-8.2-5.1
	c0,0-0.4-1.2-1.1-6.4c-0.7-5.2-3.2-9-6.2-12.6c0,0-8.5-9.8-22.1,1.1L63.6,49.2z"/>
<circle class="st6" cx="63.6" cy="61.8" r="4.5"/>
<ellipse class="st6" cx="101.3" cy="63.4" rx="4.3" ry="4.3"/>
<ellipse transform="matrix(0.4052 -0.9142 0.9142 0.4052 -40.6107 61.1511)" class="st6" cx="26.7" cy="61.8" rx="4.2" ry="4.2"/>
<g>
</g>
<g>
</g>
<g>
</g>
<g>
</g>
<g>
</g>
<g>
</g>
<g>
</g>
<g>
</g>
<g>
</g>
<g>
</g>
<g>
</g>
<g>
</g>
<g>
</g>
<g>
</g>
<g>
</g>
</svg>
