<?xml version="1.0" encoding="utf-8"?>
<!-- Generator: Adobe Illustrator 16.0.0, SVG Export Plug-In . SVG Version: 6.00 Build 0)  -->
<!DOCTYPE svg PUBLIC "-//W3C//DTD SVG 1.1//EN" "http://www.w3.org/Graphics/SVG/1.1/DTD/svg11.dtd">
<svg version="1.1" id="Layer_1" xmlns="http://www.w3.org/2000/svg" xmlns:xlink="http://www.w3.org/1999/xlink" x="0px" y="0px"
	 width="128px" height="128px" viewBox="0 0 128 128" enable-background="new 0 0 128 128" xml:space="preserve">
<circle fill="#FFFFFF" cx="63.664" cy="63.664" r="61.244"/>
<circle fill="#28ABE3" cx="-8.937" cy="7.471" r="6.656"/>
<g id="Black-_x26_-White">
	<g id="Factom" transform="translate(-3911.000000, -3280.000000)">
		<g transform="translate(3911.000000, 3280.000000)">
			<path id="Fill-1" fill="#28ABE3" d="M84.403,42.355h-0.656c0-0.217,0.217-0.44,0.217-0.44h0.218
				C84.403,42.137,84.403,42.355,84.403,42.355"/>
			<path id="Fill-3" fill="#28ABE3" d="M56.131,32.716c-2.904,1.643-3.929-1.403-2.627-2.193c2.627-1.65,24.034-17.745,6.315-18.133
				C86.341,9.453,59.036,31.074,56.131,32.716z"/>
			<path id="Fill-5" fill="#28ABE3" d="M46.707,58.135c-3.947,1.753-7.889,3.066-11.396,4.162c-3.773,1.323-4.803-3.315-0.657-4.38
				c4.146-1.064,6.797-2.192,10.521-3.723c19.946-8.547,51.191-31.871,37.256-38.779C106.379,21.387,67.749,49.153,46.707,58.135z"
				/>
			<path id="Fill-7" fill="#28ABE3" d="M74.984,88.806c-2.848,1.551-4.252-2.232-1.971-3.506
				c19.918-10.617,42.311-28.298,39.666-39.437C120.311,59.638,99.895,74.129,74.984,88.806z"/>
			<path id="Fill-9" fill="#28ABE3" d="M96.9,85.294c-1.757,1.343-4.02-0.995-1.098-3.286c10.305-7.668,20.577-18.458,19.507-24.979
				C118.528,68.773,106.764,77.846,96.9,85.294z"/>
			<path id="Fill-15" fill="#28ABE3" d="M80.456,20.006c-2.192,8.327-18.63,21.252-36.599,28.919
				c-14.244,5.92-25.206,7.017-28.05,2.848c-1.108-1.898-0.748-4.595,1.082-8.088c-0.49,1.583-0.413,2.964,0.233,4.143
				c2.627,3.724,12.714,2.849,25.645-2.626c16.438-7.228,31.561-19.06,33.532-26.51c0.556-2.405-0.778-4.428-3.998-6.07
				C78.955,13.298,81.675,15.759,80.456,20.006z"/>
			<path id="Fill-17" fill="#28ABE3" d="M15.585,63.016c-2.777-1.769-3.447-5.059-2.008-9.869c-0.629,2.407,0.257,4.237,2.66,5.491
				C19.759,60.475,17.396,64.169,15.585,63.016z"/>
			<path id="Fill-19" fill="#28ABE3" d="M97.996,29.65C95.145,40.607,73.672,57.473,50.22,67.334
				c-22.355,9.641-31.423,7.24-34.575,5.551c-3.129-2.063-4.159-4.86-3.085-8.389c0.348,2.144,1.679,3.748,3.99,4.807
				c19.481,8.18,77.546-28.098,78.157-44.031c0.219-3.066-1.327-3.733-2.41-4.819C97.094,22.636,98.994,25.702,97.996,29.65z"/>
			<path id="Fill-21" fill="#28ABE3" d="M14.927,79.38c-0.217-0.874-0.438-1.754-0.217-2.851
				C14.489,77.626,14.71,78.506,14.927,79.38"/>
			<path id="Fill-23" fill="#28ABE3" d="M105.004,36.879c-2.929,11.627-25.643,29.357-50.626,39.873
				c-23.668,10.3-40.501,11.036-40.717-1.821c4.059,8.152,19.899,5.983,38.97-2.125c24.326-10.299,46.463-27.822,49.531-39.218
				c0.711-3.088,0.168-4.417-1.129-6.143C103.565,29.451,106.344,31.565,105.004,36.879z"/>
			<path id="Fill-25" fill="#28ABE3" d="M97.99,62.297C90.053,70.08,74.097,79.824,59.198,86.18
				c-22.138,9.206-33.087,8.08-36.803,6.17c-3.717-1.91-4.183-5.296-4.623-5.952c4.164,5.475,19.142,4.213,39.232-4.163
				c15.552-6.481,32.514-18.426,38.793-23.882C98.203,56.456,99.996,60.08,97.99,62.297z"/>
			<path id="Fill-27" fill="#28ABE3" d="M42.544,101.077c-2.208,0.557-15.536,3.066-19.288-5.916
				c2.653,3.176,10.11,3.964,16.877,2.626C44.693,96.896,44.752,100.519,42.544,101.077z"/>
			<path id="Fill-29" fill="#28ABE3" d="M65.995,102.167c-5.97,2.983-27.501,10.539-35.503,1.098
				c4.603,3.944,18.037,2.427,33.315-3.724C66.9,98.295,68.813,100.76,65.995,102.167z"/>
			<path id="Fill-31" fill="#28ABE3" d="M73.448,106.113c-13.371,5.699-25.294,8.979-33.533,3.29
				c17.297,6.95,70.453-21.351,75.733-39.921C114.587,82.09,93.833,97.348,73.448,106.113z"/>
			<path id="Fill-33" fill="#28ABE3" d="M49.997,113.563c21.147,3.375,60.762-22.78,63.782-34.616
				C111.266,95.769,66.432,120.801,49.997,113.563z"/>
			<path id="Fill-35" fill="#28ABE3" d="M61.174,115.532c14.417,0.487,35.918-13.816,40.208-17.174
				C94.609,106.101,71.403,118.089,61.174,115.532z"/>
			<path id="Fill-45" fill="#28ABE3" d="M45.833,26.579c-0.665,0.351-14.191,7.849-17.974,4.161c-0.889-1.137,0.688-3.5,1.345-4.374
				c-0.861,0.652-4.755,3.038-4.609,6.693c0.145,3.654,8.091,2.725,15.761-0.563c2.628-0.88,6.117-2.729,7.231-3.505
				C48.784,28.155,47.96,25.456,45.833,26.579z"/>
			<path id="Fill-45_1_" fill="#28ABE3" d="M36.273,38.585c-1.864,0.907-20.756,5.775-13.262-5.777
				c-12.313,13.989,4.912,13.558,13.464,9.17C39.555,40.399,38.136,37.679,36.273,38.585z"/>
		</g>
	</g>
</g>
</svg>
