<?xml version="1.0" encoding="utf-8"?>
<!-- Generator: Adobe Illustrator 24.2.1, SVG Export Plug-In . SVG Version: 6.00 Build 0)  -->
<svg version="1.1" id="Layer_1" xmlns="http://www.w3.org/2000/svg" xmlns:xlink="http://www.w3.org/1999/xlink" x="0px" y="0px"
	 width="256px" height="256px" viewBox="0 0 256 256" style="enable-background:new 0 0 256 256;" xml:space="preserve">
<style type="text/css">
	.st0{fill:#FFFFFF;}
	.st1{fill:#28ABE3;}
	.st2{clip-path:url(#SVGID_1_);}
	.st3{fill:#28ABE3;stroke:#FF1672;stroke-width:0.2161;stroke-miterlimit:10;}
	.st4{clip-path:url(#SVGID_2_);}
	.st5{clip-path:url(#SVGID_3_);}
	.st6{fill-rule:evenodd;clip-rule:evenodd;fill:#28ABE3;}
</style>
<g>
	<circle class="st0" cx="128" cy="128" r="127.5"/>
</g>
<g id="_2130718188000">
	<polygon class="st1" points="154.6,129.1 118.2,129.1 109,147 145.4,147 	"/>
	<g>
		<defs>
			<polygon id="SVGID_11_" points="154.6,129.1 118.2,129.1 109,147 145.4,147 			"/>
		</defs>
		<use xlink:href="#SVGID_11_"  style="overflow:visible;fill:#28ABE3;"/>
		<clipPath id="SVGID_1_">
			<use xlink:href="#SVGID_11_"  style="overflow:visible;"/>
		</clipPath>
		<g class="st2">
			<g>
				<polygon id="_x31_" class="st3" points="103.3,155.9 141.8,155.9 151.2,138 112.7,138 				"/>
			</g>
		</g>
	</g>
	<polygon class="st1" points="154.6,129.1 118.2,129.1 109,147 145.4,147 	"/>
	<polygon class="st1" points="178.6,113.5 102.4,113.5 93.6,95.5 173,95.5 	"/>
	<g>
		<defs>
			<polygon id="SVGID_14_" points="178.6,113.5 102.4,113.5 93.6,95.5 173,95.5 178.6,113.5 			"/>
		</defs>
		<use xlink:href="#SVGID_14_"  style="overflow:visible;fill:#28ABE3;"/>
		<clipPath id="SVGID_2_">
			<use xlink:href="#SVGID_14_"  style="overflow:visible;"/>
		</clipPath>
		<g class="st4">
			<g>
				<polygon id="_x31__1_" class="st3" points="86.9,86.7 170.5,86.7 180,104.6 96.4,104.6 				"/>
			</g>
		</g>
	</g>
	<polygon class="st1" points="178.6,113.5 102.4,113.5 93.6,95.5 173,95.5 	"/>
	<polygon class="st1" points="123.9,116.2 103.6,116.2 85,176.3 92.6,176.3 85.9,201.8 117.2,164 109.1,164 	"/>
	<g>
		<defs>
			<polygon id="SVGID_17_" points="123.9,116.2 103.6,116.2 85,176.3 92.6,176.3 85.9,201.8 117.2,164 109.1,164 123.9,116.2 			"/>
		</defs>
		<use xlink:href="#SVGID_17_"  style="overflow:visible;fill:#28ABE3;"/>
		<clipPath id="SVGID_3_">
			<use xlink:href="#SVGID_17_"  style="overflow:visible;"/>
		</clipPath>
		<g class="st5">
			<g>
				<polygon id="_x31__2_" class="st3" points="134.9,110 114.6,110 96,170 103.5,170 96.9,195.5 128.1,157.8 120.1,157.8 				"/>
			</g>
		</g>
	</g>
	<polygon class="st1" points="123.9,116.2 103.6,116.2 85,176.3 92.6,176.3 85.9,201.8 117.2,164 109.1,164 	"/>
	<path class="st6" d="M123.3,57l-1.7,1c-0.6,0.4-1.2,0.7-1.8,1l-4.4,2.5c-0.1,0.1-0.3,0.2-0.4,0.3l-3.1,1.8
		c-1.4,0.9-2.9,1.7-4.4,2.5l-3.5,2c-0.2,0.1-0.3,0.2-0.4,0.3c-1.4,0.9-2.9,1.7-4.4,2.5c-0.1,0.1-0.3,0.2-0.4,0.3l-2.6,1.5
		c-0.3,0.2-0.6,0.3-0.9,0.5c-1.8,1-3.5,2-5.2,3c-0.6,0.4-1.2,0.7-1.8,1l-7,4.1c-0.6,0.3-1.1,0.7-1.7,1c-0.3,0.2-0.6,0.3-0.9,0.5
		L69,88.6c-0.5,0.3-0.5,0.1-1,0c-1-0.3-2-0.2-2.9,0.2c-0.7,0.2-1.4,0.7-1.8,1.3c-0.5,0.7-0.8,1-1.1,2c-0.1,0.6-0.2,1.3-0.1,1.9
		c0,0.3,0.1,0.5,0.2,0.8c0.2,0.6,0.5,1.2,1,1.7c0.1,0.1,0.1,0.2,0.2,0.3c0.3,0.3,0.8,0.8,1.2,0.9v61c-1.8,1.2-2.7,3.3-2,5.5
		c0.3,0.9,0.9,1.7,1.6,2.3c1.8,1.5,4.7,1.3,6.4-0.4c0.6-0.6,1.1-1.4,1.3-2.3c0.3-1.3,0-2.8-0.8-3.9c-0.1-0.2-0.3-0.3-0.4-0.5
		c-0.2-0.3-0.8-0.7-1.1-0.8c-0.2-0.1-0.4-0.3-0.6-0.3V97.5c0.1,0,0.4-0.2,0.5-0.3c0.2-0.1,0.3-0.2,0.5-0.4c0.2-0.1,0.3-0.3,0.4-0.4
		c0.9-1.1,1.3-2.3,1.1-3.7c0-0.2-0.1-0.4-0.1-0.6c0.2-0.1,0.6-0.3,0.8-0.5l8.4-4.9c0.3-0.2,0.6-0.3,0.9-0.5c0.3-0.2,0.5-0.3,0.8-0.5
		c0.9-0.5,1.7-1,2.5-1.5l4.6-2.7c1.4-0.8,2.8-1.7,4.2-2.5c0.9-0.5,1.7-1,2.5-1.5l3-1.7c1.3-0.7,2.9-1.7,4.2-2.4l1.7-1
		c0.2-0.1,0.3-0.2,0.4-0.2l2.9-1.7c0.6-0.3,1.1-0.6,1.7-1l5.9-3.4c0.2-0.1,0.3-0.2,0.4-0.2c0.2-0.1,0.3-0.2,0.4-0.3l6.7-3.9
		c0.1-0.1,0.3-0.2,0.4-0.2l1.3-0.7l0.6,0.3c1.7,0.8,3.5,0.7,5-0.3l3.7,2.2c1.4,0.8,2.8,1.6,4.2,2.4l2.9,1.7c0.3,0.2,0.5,0.3,0.8,0.5
		l2.5,1.5c2.5,1.5,5,2.9,7.5,4.3c1.9,1.2,3.9,2.2,5.9,3.4l2.5,1.4c1.5,0.9,3.4,2,5,2.9c0.1,0.1,0.3,0.2,0.4,0.2
		c0.1,0.1,0.3,0.2,0.4,0.2c0.1,0.1,0.3,0.2,0.4,0.2l2.1,1.2c0.3,0.2,0.5,0.3,0.8,0.5l1.3,0.7c2.1,1.2,4.2,2.4,6.3,3.6
		c1.4,0.8,2.8,1.6,4.2,2.4c0.3,0.2,0.5,0.3,0.8,0.5c0.1,0.1,0.3,0.2,0.4,0.2l1.3,0.7c0,1.7,0.5,3,1.7,4.1c0.4,0.3,0.8,0.5,1.2,0.7
		v61.7c-0.8,0.1-2,1-2.5,1.5c-0.6,0.8-1.2,1.7-1.2,2.8l0,1.1c0,0.2,0.1,0.3,0.1,0.5c-1.1,0.6-2.2,1.3-3.3,1.9
		c-0.2,0.1-0.3,0.2-0.5,0.3l-3.3,1.9c-1.5,0.8-2.8,1.7-4.3,2.5c-1.3,0.7-2.5,1.5-3.8,2.2c-1.3,0.7-2.5,1.5-3.8,2.2l-12,7
		c-1.3,0.8-2.6,1.5-3.8,2.2l-2.4,1.4c-0.3,0.2-0.6,0.4-1,0.6l-4.8,2.8c-0.2,0.1-0.3,0.2-0.5,0.3c-0.2,0.1-0.3,0.2-0.5,0.3
		c-0.3,0.2-0.6,0.4-1,0.6l-1.9,1.1c-0.2,0.1-0.3,0.2-0.5,0.3l-1.5,0.8c-0.3,0.2-0.6,0.4-1,0.6c-1,0.6-2.1,1.2-3.1,1.8
		c-0.3,0.2-0.5,0-0.8-0.2c-0.8-0.4-2.1-0.7-3.1-0.4c-0.2,0-0.4,0.1-0.6,0.2c-1.8,0.6-3.2,2.4-3.2,4.3c0,0.8,0.1,1.6,0.5,2.3
		c0.4,0.8,0.9,1.4,1.6,1.9c1.7,1.1,3.9,1.2,5.5,0c1.3-1,2-2.4,2-4.1c0.6-0.3,1.1-0.7,1.7-1c0.6-0.3,1.1-0.7,1.7-1l1.7-1
		c1.4-0.8,2.9-1.7,4.3-2.5l6-3.5c1.7-1,3.5-2,5.2-3c1.7-1,3.4-2,5.2-3l3-1.7c1.8-1,3.8-2.2,5.6-3.2l12-7c0.1-0.1,0.3-0.2,0.4-0.2
		c0.2-0.1,0.3-0.2,0.4-0.3c1.4-0.8,2.9-1.8,4.3-2.5l2.1-1.2c0.2-0.1,0.2-0.2,0.5-0.1c1.1,0.4,2.5,0.2,3.5-0.3c0.5-0.2,1-0.6,1.4-1
		c1.4-1.4,1.7-3.7,0.8-5.5c-0.2-0.4-0.5-0.8-0.8-1.2c-0.1-0.1-0.3-0.3-0.3-0.4V96.4c0-0.1,0.5-0.4,0.6-0.5c1-0.9,1.7-2,1.7-3.5
		c0-0.8-0.1-1.6-0.4-2.3c-0.7-1.5-2.3-2.7-4.1-2.7c-0.6,0-1.2,0.1-1.7,0.2c-1.3,0.5-0.7,0.7-1.9,0l-13.4-7.8c-0.9-0.5-1.7-1-2.5-1.5
		l-1.7-1c-0.2-0.1-0.3-0.2-0.4-0.2c-0.2-0.1-0.3-0.2-0.4-0.2l-1.3-0.7c-0.2-0.1-0.3-0.2-0.4-0.2l-4.2-2.4c-1.3-0.7-2.5-1.5-3.8-2.2
		c-0.1-0.1-0.3-0.2-0.4-0.2c-0.1-0.1-0.3-0.2-0.4-0.2l-2.9-1.7c-2.8-1.7-5.6-3.2-8.4-4.9c-2.5-1.5-5-2.9-7.5-4.4
		c-0.6-0.3-1.1-0.6-1.7-1c-0.2-0.1-3.1-1.9-3.4-1.9c0-0.7-0.1-1.4-0.4-2c-0.3-0.7-0.5-0.9-0.9-1.4c-0.4-0.5-1.1-0.9-1.7-1.2
		c-0.2-0.1-0.3-0.1-0.5-0.2c-1.5-0.4-3-0.1-4.2,0.8c-0.3,0.3-0.6,0.5-0.9,0.9C123.7,54.9,123.3,55.8,123.3,57L123.3,57z"/>
</g>
<g>
</g>
<g>
</g>
<g>
</g>
<g>
</g>
<g>
</g>
<g>
</g>
<g>
</g>
<g>
</g>
<g>
</g>
<g>
</g>
<g>
</g>
<g>
</g>
<g>
</g>
<g>
</g>
<g>
</g>
</svg>
