<?xml version="1.0" encoding="utf-8"?>
<!-- Generator: Adobe Illustrator 24.2.1, SVG Export Plug-In . SVG Version: 6.00 Build 0)  -->
<svg version="1.1" id="Layer_1" xmlns="http://www.w3.org/2000/svg" xmlns:xlink="http://www.w3.org/1999/xlink" x="0px" y="0px"
	 viewBox="0 0 256 256" style="enable-background:new 0 0 256 256;" xml:space="preserve">
<style type="text/css">
	.st0{fill:#FFFFFF;}
	.st1{fill:#28ABE3;}
</style>
<g>
	<circle class="st0" cx="128" cy="128" r="127"/>
</g>
<path class="st1" d="M183,120.7v107.5l-20.7-32.3h-35.5c-9,0-16.2-7.3-16.2-16.2v-99c0-9,7.3-16.2,16.2-16.2h40
	c9,0,16.2,7.3,16.2,16.2v39.4L183,120.7z M176.2,160.8l-17.7-23.1l13.7-11.4c3.1-2.6,3.5-7.1,0.9-10.2c-2.6-3.1-7.1-3.5-10.2-0.9
	l-18.5,15.4V96.3c0-4-3.2-7.2-7.2-7.2c-4,0-7.2,3.2-7.2,7.2v49.8v0V164c0,4,3.2,7.2,7.2,7.2c4,0,7.2-3.2,7.2-7.2v-14.6l3-2.5
	l17.4,22.7c1.4,1.9,3.6,2.8,5.7,2.8c1.5,0,3.1-0.5,4.4-1.5C178.1,168.5,178.7,164,176.2,160.8z M89.4,98.6h12V83.1H82.7
	c-8.8,0-16,7.1-16,16v12.6H56.7v14.9h10.1V169h20.3v-42.5h12.1l2.2-14.9H87.1V101C87.1,99.7,88.1,98.6,89.4,98.6z"/>
<g>
</g>
<g>
</g>
<g>
</g>
<g>
</g>
<g>
</g>
<g>
</g>
<g>
</g>
<g>
</g>
<g>
</g>
<g>
</g>
<g>
</g>
<g>
</g>
<g>
</g>
<g>
</g>
<g>
</g>
</svg>
