<?xml version="1.0" encoding="utf-8"?>
<!-- Generator: Adobe Illustrator 16.0.0, SVG Export Plug-In . SVG Version: 6.00 Build 0)  -->
<!DOCTYPE svg PUBLIC "-//W3C//DTD SVG 1.1//EN" "http://www.w3.org/Graphics/SVG/1.1/DTD/svg11.dtd">
<svg version="1.1" id="Layer_1" xmlns="http://www.w3.org/2000/svg" xmlns:xlink="http://www.w3.org/1999/xlink" x="0px" y="0px"
	 width="128px" height="128px" viewBox="0 0 128 128" enable-background="new 0 0 128 128" xml:space="preserve">
<circle fill="#FFFFFF" cx="63.664" cy="63.664" r="61.244"/>
<circle fill="#28ABE3" cx="-8.937" cy="7.471" r="6.656"/>
<g id="Black-_x26_-White">
	<g id="Golem" transform="translate(-2719.000000, -2488.000000)">
		<g transform="translate(2719.000000, 2488.000000)">
			<path id="Logo" fill="#28ABE3" d="M61.692,56.977c-4.107,0.007-8.05-1.626-10.949-4.536c-2.894-2.952-4.536-6.805-4.536-10.949
				c-0.004-4.107,1.629-8.048,4.536-10.949c2.894-2.952,6.805-4.536,10.949-4.536c4.109-0.007,8.05,1.626,10.949,4.536
				c2.952,2.893,4.536,6.804,4.536,10.949c0.006,4.108-1.626,8.049-4.536,10.949C69.748,55.407,65.851,56.977,61.692,56.977
				 M72.642,82.219c2.894,2.952,4.536,6.806,4.536,10.948c0.006,4.107-1.626,8.05-4.536,10.949
				c-2.894,2.952-6.804,4.536-10.949,4.536c-4.107,0.007-8.05-1.626-10.949-4.536c-2.894-2.952-4.536-6.805-4.536-10.949
				c-0.006-4.108,1.627-8.049,4.536-10.948c2.894-2.952,6.805-4.536,10.949-4.536C65.851,77.696,69.748,79.267,72.642,82.219
				 M80.638,41.433c0-4.443-1.558-8.745-4.404-12.156l11.021-11.022l-2.457-2.384L73.776,26.893
				c-3.403-2.835-7.62-4.406-12.084-4.406c-10.471,0.007-18.953,8.501-18.945,18.973c0.003,5.017,1.995,9.829,5.54,13.379
				c3.141,3.141,7.241,5.104,11.646,5.482v13.973c-4.415,0.367-8.55,2.313-11.646,5.481c-7.387,7.411-7.387,19.402,0,26.813
				c3.592,3.593,8.317,5.54,13.406,5.54c5.028,0.017,9.855-1.979,13.405-5.54c3.593-3.592,5.541-8.317,5.541-13.405
				c0-5.09-1.948-9.815-5.541-13.407c-3.14-3.14-7.238-5.102-11.646-5.479V60.321c4.417-0.363,8.555-2.31,11.646-5.482
				C78.689,51.248,80.638,46.522,80.638,41.433z"/>
		</g>
	</g>
</g>
</svg>
