<?xml version="1.0" encoding="utf-8"?>
<!-- Generator: Adobe Illustrator 24.2.1, SVG Export Plug-In . SVG Version: 6.00 Build 0)  -->
<svg version="1.1" id="Layer_1" xmlns="http://www.w3.org/2000/svg" xmlns:xlink="http://www.w3.org/1999/xlink" x="0px" y="0px"
	 viewBox="0 0 256 256" style="enable-background:new 0 0 256 256;" xml:space="preserve">
<style type="text/css">
	.st0{fill:#E6E6E6;}
	.st1{fill:#28ABE3;}
</style>
<path class="st0" d="M223.1,113.2c0.4,50.3-40.1,91.3-90.4,91.7c-17,0.1-33-4.4-46.7-12.5l-45,49.2V116.7l0,0.1c0-0.8,0-1.5,0-2.3
	c-0.4-50.3,40.1-91.3,90.3-91.7C181.7,22.5,222.7,63,223.1,113.2z"/>
<g id="Layer_x0020_1">
	<g id="_1421344023328">
		<path class="st1" d="M167.7,91.3c-1.3-12.2-11.8-16.2-25.1-17.3l-0.1-16.9l-10.3,0.1l0.1,16.5c-2.7,0-5.5,0.1-8.2,0.2L124,57.3
			l-10.3,0.1l0.1,16.9c-2.2,0.1-4.4,0.1-6.6,0.1l0-0.1L93,74.5l0.1,11c0,0,7.6-0.2,7.5-0.1c4.2,0,5.5,2.4,6,4.5l0.1,19.3
			c0.3,0,0.7,0,1.1,0.1c-0.3,0-0.7,0-1.1,0l0.2,27c-0.2,1.3-0.9,3.4-3.8,3.4c0.1,0.1-7.5,0.1-7.5,0.1l-2,12.3l13.4-0.1
			c2.5,0,4.9,0,7.4,0l0.1,17.1l10.3-0.1l-0.1-16.9c2.8,0,5.6,0,8.2,0l0.1,16.8l10.3-0.1l-0.1-17.1c17.3-1.1,29.4-5.6,30.8-21.8
			c1.1-13.1-5.1-18.9-14.9-21.2C165,105.6,168.7,100.3,167.7,91.3L167.7,91.3L167.7,91.3z M153.6,128c0.1,12.8-21.8,11.5-28.8,11.5
			l-0.2-22.7C131.6,116.8,153.5,114.7,153.6,128L153.6,128z M148.6,96.1c0.1,11.6-18.2,10.4-24,10.4L124.4,86
			C130.2,85.9,148.5,83.9,148.6,96.1L148.6,96.1z"/>
	</g>
</g>
<g>
</g>
<g>
</g>
<g>
</g>
<g>
</g>
<g>
</g>
<g>
</g>
<g>
</g>
<g>
</g>
<g>
</g>
<g>
</g>
<g>
</g>
<g>
</g>
<g>
</g>
<g>
</g>
<g>
</g>
</svg>
