<?xml version="1.0" encoding="utf-8"?>
<!-- Generator: Adobe Illustrator 24.2.1, SVG Export Plug-In . SVG Version: 6.00 Build 0)  -->
<svg version="1.1" id="Layer_1" xmlns="http://www.w3.org/2000/svg" xmlns:xlink="http://www.w3.org/1999/xlink" x="0px" y="0px"
	 viewBox="0 0 256 256" style="enable-background:new 0 0 256 256;" xml:space="preserve">
<style type="text/css">
	.st0{fill:#28ABE3;}
	.st1{fill:#FFFFFF;}
</style>
<g id="Layer_2_1_">
	<g id="Layer_1-2">
		<circle class="st0" cx="129.8" cy="129.6" r="110.4"/>
		<path class="st1" d="M135.9,9C69.4,5.4,12.5,56.4,8.9,122.9s47.5,123.4,114,126.9c66.5,3.6,123.4-47.5,126.9-114
			c0-0.5,0.1-1,0.1-1.5C252.5,68.5,201.8,12.7,135.9,9z M129.2,208.5c-38.8,0-68.6-39.2-58.8-76.8c3.3-11.6,8.5-22.6,15.3-32.5
			c11.5-17.4,24.5-33.8,38.8-49c3.5-3.9,6.3-3.9,9.8-0.4c16.8,17.4,31.6,36.8,43.9,57.6c7.1,12.9,12.5,26.3,12.2,41.2
			c-1.4,33-28.1,59.3-61.1,60.1L129.2,208.5z"/>
	</g>
</g>
<g>
</g>
<g>
</g>
<g>
</g>
<g>
</g>
<g>
</g>
<g>
</g>
<g>
</g>
<g>
</g>
<g>
</g>
<g>
</g>
<g>
</g>
<g>
</g>
<g>
</g>
<g>
</g>
<g>
</g>
</svg>
