<?xml version="1.0" encoding="utf-8"?>
<!-- Generator: Adobe Illustrator 24.2.1, SVG Export Plug-In . SVG Version: 6.00 Build 0)  -->
<svg version="1.1" id="Layer_1" xmlns="http://www.w3.org/2000/svg" xmlns:xlink="http://www.w3.org/1999/xlink" x="0px" y="0px"
	 viewBox="0 0 512 512" style="enable-background:new 0 0 512 512;" xml:space="preserve">
<style type="text/css">
	.st0{fill:#FFFFFF;}
	.st1{fill:#F5FEFF;}
	.st2{fill:#28ABE3;}
	.st3{fill:#666666;}
	.st4{fill:#CCCCCC;}
	.st5{fill:#5AD4FF;}
	.st6{fill:#333333;}
	.st7{fill:#4C5376;}
	.st8{display:none;}
	.st9{display:inline;fill:#D2EEFF;}
	.st10{display:inline;fill:#4C5376;}
	.st11{display:inline;fill:#666666;}
	.st12{display:inline;fill:#CCCCCC;}
	.st13{display:inline;fill:#F15A24;}
	.st14{display:inline;}
	.st15{display:inline;fill:#FFFFFF;}
</style>
<circle class="st0" cx="256" cy="256" r="229"/>
<path class="st1" d="M243.39,266.89c-6.1-2.44,0-6.1,0-6.1s2.44-9.75,0-12.19c-2.44-2.44-6.1-8.53-6.1-8.53s-2.87-4.18,0-6.1
	c3.66-2.44,17.07-17.07,17.07-17.07s1.72-4.01,1.62-7.32h0.82c0,0,0-4.88,0-6.1s-9.75-1.22-9.75-1.22l-4.88,1.22v0.07
	c-7.72,0.8-21.95,8.46-21.95,8.46s-11.48,6.61-13.41,8.54c-5.17,5.17-6.37,13.41-6.27,20.4c0.03,2.22,1.18,6.24-1.42,7.34
	c-1.98,0.83-4.92-1.01-6.9-1.28c-3.77-0.51-7.57-0.84-11.36-1.04c-1.79-0.1-17.56-1.29-16.72,2.62c0,0,1.22,6.1,4.88,7.32
	c2.58,0.86,3.65,4.87,3.66,4.88c0.59,2.22,0.86,5.16,0,7.34c0.08-0.19,8.84,7.28,9.42,7.88c6.54,6.75,12.69,14.07,20.53,19.39
	c8.98,6.09,19.51,8.75,29.88,11.41c7.98,2.05,16.27,4.47,24.09,7.49c4.04,1.56,7.89,3.44,11.83,5.22c3.58,1.62,3.75-0.45,5.59-3.58
	c1.7-2.87,3.25-5.83,4.73-8.82C278.75,307.12,249.48,269.33,243.39,266.89z"/>
<path class="st2" d="M389.67,360.8c-0.6-0.67-1.42-1.2-2.2-1.66c-16.96-10.09-34.63-18.92-52.02-28.24
	c-24.1-12.92-49.74-26.47-66.82-48.7c-2.25-2.92,0.05-4.14,1.62-6.49c0.84-1.25,1.08-2.64,1.88-3.79c1.32-1.91,1.41-2.75,1.78-4.9
	c0.31-1.79,1.99-3.17,1.95-5.02c-0.03-1.44-0.71-3.29,1.06-3.93c2.9-1.05,2.4-4.72,2.03-6.3c-0.37-1.58,1.09-2.79,0.37-4.52
	c-0.32-0.77-0.91-1.5-0.81-2.33c0.12-0.96,1.14-1.56,1.46-2.47c0.48-1.36-0.69-3.03,0.09-4.24c0.79-1.24,2.6-1.18,3.48-2.42
	c1.17-1.65,1.16-3.29,3.18-4.44c0.68-0.39,1.45-0.66,1.99-1.22c0.61-0.63,0.89-1.56,1.62-2.04c0.53-0.35,1.19-0.39,1.8-0.52
	c2.31-0.48,4.23-2.44,4.67-4.76c0.17-0.9,0.16-1.92,0.77-2.61c0.85-0.97,2.37-0.76,3.66-0.81c1.99-0.07,3.94-1,5.26-2.5
	c2.07-2.36,3.23-2.06,5.94-3.17c1.78-0.73,3.23-2.05,3.84-3.9c0.27-0.84,1.08-1.35,1.96-1.35c5.78,0.06,7.42-3.77,7.89-5.96
	c0.18-0.86,0.93-1.47,1.8-1.54c5.41-0.42,7.22-2.95,7.83-4.6c0.31-0.83,1.11-1.37,1.99-1.32c8.98,0.5,11.73-1.51,12.58-2.79
	c0.39-0.59,1.1-0.9,1.81-0.86c6.95,0.3,10.45-3.87,11.56-5.54c0.29-0.44,0.74-0.74,1.26-0.84c4.45-0.85,24.25-4.85,10.12-5.94
	c-17.21-1.32-35.55,2.6-52.53,5c-24.99,3.52-49.22,8.94-73.09,17.17c-2.76,0.95,1.56,2.61,2.29,3.07c2.14,1.36,3.53,3.02,3.79,5.7
	c0.5,5.22-3.64,10.31-7.16,13.72c-3.49,3.39-7.54,6.16-11.19,9.38c-0.73,0.65-1.47,1.34-1.86,2.23c-0.74,1.69-0.06,3.68,1.01,5.18
	c4.23,5.89,12.73,12.51,5.84,20.23c-0.6,0.68-1.31,1.28-1.81,2.03c-2.89,4.33,11.51,16.83,14.19,19.67
	c4.73,5.02,9.53,9.97,14.4,14.85c0.03,0.04,0.06,0.06,0.09,0.1c0.62,0.73,7.27,8.59,7.27,10.92c0,1.9-4.46,8.27-6.42,10.97
	c-2.96,4.1,8.94,13.49,11.25,16.12c15.21,17.32,25.71,38.26,37.82,57.72c1.13,1.82,7.81,9.76,6.12,2.98
	c-2.21-8.83-6.29-17.41-9.33-25.97c-1.33-3.72-13.26-32-7.73-33.82c0.64-0.21,1.32-0.16,1.99-0.1c15.8,1.48,30.93,8.38,45.62,13.93
	c11.07,4.18,21.99,8.75,33.01,13.05c0.61,0.24,1.46,0.39,1.77-0.18c0.12-0.22,0.11-0.5,0.05-0.74
	C390.34,361.73,390.05,361.23,389.67,360.8z"/>
<path class="st2" d="M243.39,126.67c-1.22,1.22,0,2.44,0,2.44c3.66,4.88-2.44,9.75-3.66,10.97c-1.22,1.22,0,2.44,0,2.44
	c3.66,4.88,0,7.32,0,7.32s-4.88,2.44-3.66,3.66c7.37,7.37-2.44,14.63-2.44,14.63c2.44,6.1-2.44,9.75-2.44,9.75
	c3.66,4.88,0,8.53,0,8.53c2.44,3.66,0,8.53,0,8.53c2.44,2.44,0,6.1,0,6.1c1.24,1.24,1.91,3.81,0.58,5.24c-0.59,0.63-1.4,1-2.19,1.36
	c-7.74,3.46-15.88,7.16-21.84,13.37c-4.04,4.21-6.12,9.61-6.83,15.34c-0.48,3.9,2.09,15.75-5,12.98c-5.01-1.96-10.68-3.11-16.2-3.25
	c-2.99-0.07-6.05-0.17-9.01,0.34c-1.33,0.23-3.24,0.47-4.27,1.45c-1.27,1.21-0.73,3.42-2.47,4.1c-0.96,0.37-2.04,0.19-3.04-0.08
	c-2.84-0.75-4.85-2.21-6.43-4.66c-1.19-1.83-4.02-4.59-3.81-6.94c0.3-3.3,5.92-5.87,8.5-6.94c7.32-3.05,17.14-5.03,24.67-1.74
	c2.16,0.94,7.19,4.4,9.48,2.35c1.81-1.62-0.3-4.42-1.22-5.9c-6.72-10.81-2.2-22.56,2.85-32.88c4.79-9.79,10.25-19.26,15.81-28.63
	c8.99-15.15,18.42-30.06,28.14-44.75c0.27-0.41,0.57-0.82,0.82-1.24c0,0,3.66-6.1,6.1-7.32c4.5-2.25,3.66,4.88,3.66,4.88
	C251.92,121.79,244.61,125.45,243.39,126.67z"/>
<path class="st3" d="M121.46,231.53"/>
<polygon class="st3" points="151.94,251.04 151.71,251.01 150.72,248.6 145.85,246.16 139.75,249.82 153.16,255.91 "/>
<polygon class="st4" points="147.37,248.99 150.24,249.79 149.95,247.52 "/>
<path class="st5" d="M172.53,267.35c-0.39,0.07-0.86,0.03-1.42-0.14c-2.84-0.88-5.84-3.39-8.4-4.89
	c-1.04-0.61-14.25-9.01-14.42-8.84c0.07-0.07,0.52-0.51,0.6-0.59c0.47-0.52,0.77-2.41,0.62-3.06c-0.25-1.1-1.22-2.44-3.66-3.66
	l4.88-6.1c0,0,8.53,2.44,8.53,10.97c0,0,0.02,2.44,1.23,3.05c0,0,0.81,0.61,2.84,0.61c0,0,2.01-1.21,2.03-2.52
	c0.01-0.38,0-0.76,0-1.14c0.04,3.59,4.17,4.89,6.38,6.94C173.94,260.01,175.52,266.82,172.53,267.35z"/>
<circle class="st6" cx="162.31" cy="250.43" r="4.27"/>
<path class="st3" d="M149.5,252.26L149.5,252.26L149.5,252.26z"/>
<circle class="st1" cx="236.07" cy="255.91" r="9.75"/>
<path class="st7" d="M249.48,201.05"/>
<path class="st7" d="M245.83,199.83"/>
<circle class="st0" cx="164.13" cy="248.6" r="1.22"/>
<g class="st8">
	<path class="st9" d="M172.67,268.11c0,0,9.75,7.32,12.19,10.97c2.44,3.66,13.41,14.63,20.73,18.29c7.32,3.66,15.85,7.32,23.17,8.53
		c7.32,1.22,39.02,10.97,40.87,15.04c1.1,2.4,9.12-13.82,9.12-13.82s-29.26-37.8-35.36-40.24c-6.1-2.44,0-6.1,0-6.1
		s2.44-9.75,0-12.19c-2.44-2.44-6.1-8.53-6.1-8.53s-2.87-4.18,0-6.1c3.66-2.44,17.07-17.07,17.07-17.07s3.66-8.53,0-10.97
		c-2.27-1.51-3.66-2.44-10.97-2.44s-23.17,8.53-23.17,8.53s-11.48,6.61-13.41,8.53c-2.44,2.44-6.1,10.97-6.1,15.85s0,12.19,0,12.19
		s-3.83,0.29-6.1-1.22c-3.66-2.44-9.75-1.22-10.97-1.22c-1.22,0-7.12,0-10.97,0c-4.88,0-8.53,2.44-8.53,2.44s1.22,6.1,4.88,7.32
		c2.59,0.86,3.66,4.88,3.66,4.88S173.89,265.67,172.67,268.11z"/>
	<path class="st9" d="M242.17,203.49v1.22l8.53,4.88h6.1c0,0,0-4.88,0-6.1c0-1.22-9.75-1.22-9.75-1.22L242.17,203.49z"/>
	<path class="st10" d="M389.7,360.77c-2.42-3.63-108.52-56.09-115.75-71.5c-0.12-0.27-6.37-8.81-6.37-8.81
		c-0.59-0.79-0.51-1.9,0.18-2.6c2.56,0,3.33-2.99,3.56-4.78c0.08-0.66,0.48-1.24,1.08-1.53c1.72-0.86,1.74-4.04,1.6-5.84
		c-0.05-0.64,0.34-1.19,0.9-1.49c1.19-0.64,1.07-2.47,0.76-3.92c-0.21-0.94,0.33-1.9,1.24-2.23c2.9-1.05,2.4-4.72,2.03-6.3
		c-0.1-0.43-0.08-0.89,0.13-1.28c0.93-1.78,0.44-3.24-0.23-4.21c-0.5-0.73-0.47-1.73,0.15-2.36c1.26-1.27,1.22-2.82,0.85-4.06
		c-0.33-1.1,0.31-2.23,1.42-2.53c2.75-0.75,3.48-2.76,3.63-4.2c0.09-0.87,0.72-1.57,1.57-1.76c1.84-0.4,2.64-1.46,2.99-2.31
		c0.28-0.69,0.91-1.18,1.66-1.27c4.71-0.59,5.77-4.2,5.95-6.51c0.08-0.99,0.99-1.81,1.98-1.79c5.7,0.15,7.84-2.52,8.59-4.03
		c0.3-0.59,0.88-0.99,1.54-1.04c4.91-0.35,6.55-2.92,7.1-4.59c0.27-0.84,1.08-1.35,1.96-1.35c5.78,0.06,7.42-3.77,7.89-5.96
		c0.18-0.86,0.93-1.47,1.8-1.54c5.41-0.42,7.22-2.95,7.83-4.6c0.31-0.83,1.11-1.37,1.99-1.32c8.98,0.5,11.73-1.51,12.58-2.79
		c0.39-0.59,1.1-0.9,1.81-0.86c6.95,0.3,10.45-3.87,11.56-5.54c0.29-0.44,0.74-0.74,1.26-0.84c4.45-0.85,24.25-4.85,10.12-5.94
		c-15.85-1.22-68.28,7.32-81.69,9.75c-8.55,1.55-26.98,7.07-39.24,10.86c0,0,0,0,0,0c-0.07-0.04-0.8,0.2-1.76,0.55
		c-0.11,0.04-0.24,0.07-0.35,0.11c-0.05,0.02-0.08,0.05-0.13,0.07c-2.08,0.76-4.84,1.83-4.84,1.83l4.69,1.79l-0.02-0.05
		c0.08,0.04,0.15,0.1,0.24,0.14c0.44,0.16,0.83,0.35,1.18,0.56c2.31,1.38,2.44,3.66,2.44,3.66c1.22,7.32-10.97,18.29-10.97,18.29
		s-6.1,6.1-8.53,7.32c-1.22,0.61-1.35,1.89-1.17,3.02c0.17,1.07,0.63,2.08,1.27,2.96c1.24,1.7,4.03,5.45,5.57,6.9
		c1.67,1.56,2.41,3.81,2.62,4.56c0.02,0.16,0.05,0.31,0.07,0.47c0.09,2.76-0.39,5.74-0.73,7.46c-0.15,0.75-0.67,1.4-1.41,1.59
		c-2.57,0.64-2.57,3.53-2.57,3.53c0,3.57,27.95,31.61,29.22,32.88c0.03,0.04,0.06,0.06,0.09,0.1c0.62,0.73,7.27,8.59,7.27,10.92
		c0,1.9-4.46,8.27-6.42,10.97c-0.53,0.73-0.5,1.71,0.06,2.41c4.81,5.92,26,32.15,27.08,35.39c1.22,3.66,25.6,41.46,25.6,41.46
		s3.66,2.44,2.44-2.44c-1.22-4.88-18.29-49.99-18.29-58.53c0-8.53,81.69,25.6,81.69,25.6S392.14,364.43,389.7,360.77z"/>
	<path class="st10" d="M243.39,126.67c-1.22,1.22,0,2.44,0,2.44c3.66,4.88-2.44,9.75-3.66,10.97c-1.22,1.22,0,2.44,0,2.44
		c3.66,4.88,0,7.32,0,7.32s-4.88,2.44-3.66,3.66c7.37,7.37-2.44,14.63-2.44,14.63c2.44,6.1-2.44,9.75-2.44,9.75
		c3.66,4.88,0,8.53,0,8.53c2.44,3.66,0,8.53,0,8.53c2.44,2.44,0,6.1,0,6.1c2.44,2.44,0.52,5.58,0.52,5.58l-9.05,4.12
		c0,0-10.99,6.15-14.22,8.52c-3.24,2.37-5.3,8.6-6.47,10.66c-1.17,2.07-1.27,8.13-1.27,8.13v10.53c0,0-3.66,2.44-6.1,0
		c-2.44-2.44-16.97-2.44-16.97-2.44s-12.29,1.22-12.29,3.66c0,2.44-2.44,2.44-2.44,2.44l-6.1-1.22l-6.1-10.97
		c0,0,1.22-3.66,7.32-6.1c0,0,7.32-3.66,15.85-3.66c0,0,8.53,0,12.19,2.44c0,0,4.88,2.44,7.32,1.22l1.22-1.22
		c0,0-3.66-4.88-4.88-8.53s-1.22-10.97-1.22-10.97c0-15.85,51.21-92.67,51.21-92.67s3.66-6.1,6.1-7.32c4.5-2.25,3.66,4.88,3.66,4.88
		C251.92,121.79,244.61,125.45,243.39,126.67z"/>
	<path class="st11" d="M121.46,231.53"/>
	<polygon class="st11" points="151.94,251.04 151.71,251.01 150.72,248.6 145.85,246.16 139.75,249.82 153.16,255.91 	"/>
	<polygon class="st12" points="147.37,248.99 150.24,249.79 149.95,247.52 	"/>
	<path class="st13" d="M172.67,268.11c0,0-24.77-14.27-24.39-14.63c0.07-0.07,0.52-0.51,0.6-0.59c0.47-0.52,0.77-2.41,0.62-3.06
		c-0.25-1.1-1.22-2.44-3.66-3.66l4.88-6.1c0,0,8.53,2.44,8.53,10.97c0,0,0.02,2.44,1.23,3.05c0,0,0.81,0.61,2.84,0.61
		c0,0,2.03-1.22,2.03-2.54c0-1.12,0-1.12,0-1.12s1.22,3.66,3.66,4.88c0,0,3.66,1.22,4.88,4.88c0,0,0.72,4.51-0.25,5.92
		C172.67,268.11,172.67,268.11,172.67,268.11z"/>
	<circle class="st14" cx="162.31" cy="250.43" r="4.27"/>
	<path class="st11" d="M149.5,252.26L149.5,252.26L149.5,252.26z"/>
	<circle class="st9" cx="236.07" cy="255.91" r="9.75"/>
	<path class="st10" d="M249.48,201.05"/>
	<path class="st10" d="M245.83,199.83"/>
	<circle class="st15" cx="164.13" cy="248.6" r="1.22"/>
</g>
<g>
</g>
<g>
</g>
<g>
</g>
<g>
</g>
<g>
</g>
<g>
</g>
<g>
</g>
<g>
</g>
<g>
</g>
<g>
</g>
<g>
</g>
<g>
</g>
<g>
</g>
<g>
</g>
<g>
</g>
</svg>
