<?xml version="1.0" encoding="utf-8"?>
<!-- Generator: Adobe Illustrator 16.0.0, SVG Export Plug-In . SVG Version: 6.00 Build 0)  -->
<!DOCTYPE svg PUBLIC "-//W3C//DTD SVG 1.1//EN" "http://www.w3.org/Graphics/SVG/1.1/DTD/svg11.dtd">
<svg version="1.1" id="Layer_1" xmlns="http://www.w3.org/2000/svg" xmlns:xlink="http://www.w3.org/1999/xlink" x="0px" y="0px"
	 width="128px" height="128px" viewBox="0 0 128 128" enable-background="new 0 0 128 128" xml:space="preserve">
<circle fill="#28ABE3" cx="64.098" cy="64.099" r="60.809"/>
<circle fill="#28ABE3" cx="-8.937" cy="7.471" r="6.656"/>
<path fill="#FFFFFF" d="M64,3C30.31,3,3,30.31,3,64c0,33.689,27.31,61,61,61c33.689,0,61-27.311,61-61C125,30.31,97.689,3,64,3z
	 M89.18,91.75H38.34l5.02-19.525l-7.63,2.719l2.18-8.471l7.71-2.892l8.73-32.831h19.41l-6.35,24.915l8.07-2.933l-2.021,8.609
	l-8.58,2.88L60.99,79.75H92.3L89.18,91.75z"/>
</svg>
