<?xml version="1.0" encoding="utf-8"?>
<!-- Generator: Adobe Illustrator 24.2.1, SVG Export Plug-In . SVG Version: 6.00 Build 0)  -->
<svg version="1.1" id="Layer_1" xmlns="http://www.w3.org/2000/svg" xmlns:xlink="http://www.w3.org/1999/xlink" x="0px" y="0px"
	 width="256px" height="256px" viewBox="0 0 256 256" style="enable-background:new 0 0 256 256;" xml:space="preserve">
<style type="text/css">
	.st0{fill:#FFFFFF;}
	.st1{fill:#28ABE3;}
</style>
<g>
	<circle class="st0" cx="128" cy="128" r="125.5"/>
</g>
<path class="st1" d="M205.7,116.3l-35.9-49.2c-2.7-3.7-6.8-5.8-11.4-5.8c-4.5,0-8.7,2.1-11.4,5.8l-3.9,5.3l-3.9-5.3
	c-2.7-3.7-6.8-5.8-11.3-5.8c-4.5,0-8.7,2.1-11.4,5.8l-3.9,5.3l-3.9-5.3c-2.7-3.7-6.8-5.8-11.4-5.8c-4.5,0-8.7,2.1-11.3,5.8
	l-35.9,49.2c-5.1,7-5.1,16.4,0,23.4l35.9,49.2c2.7,3.7,6.8,5.8,11.3,5.8c4.5,0,8.7-2.1,11.4-5.8l19.1-26.2l3.9,5.4c0,0,0,0,0,0.1
	l15.1,20.7c2.7,3.7,6.8,5.8,11.4,5.8c4.5,0,8.7-2.1,11.4-5.8l35.9-49.2C210.9,132.7,210.9,123.3,205.7,116.3z M122.3,71.3
	c1.3-1.8,3.4-2.9,5.6-2.9c2.2,0,4.3,1,5.6,2.9l5.2,7.2L128,93.3l-10.9-14.9L122.3,71.3z M103.2,184.7c-1.3,1.8-3.4,2.9-5.6,2.9
	s-4.3-1-5.6-2.9L56,135.5c-3.3-4.5-3.3-10.5,0-15l35.9-49.2c1.3-1.8,3.4-2.9,5.6-2.9s4.3,1,5.6,2.9l5.2,7.1l-27.7,37.9
	c-5.1,7-5.1,16.4,0,23.4l2.1,2.9l18.5,25.5c2.4,3.2,5.9,5.2,9.8,5.7L103.2,184.7z M118.3,163.9c-1.3,1.8-3.4,2.9-5.6,2.9
	c-2.2,0-4.3-1-5.6-2.8L88,137.7l0,0l-1.6-2.2c-3.3-4.5-3.3-10.5,0-15l26.3-36l10.9,14.9l-12.4,17c-5.1,7-5.1,16.4,0,23.4l12.4,17
	L118.3,163.9z M128,105.3l11.1,15.2c3.3,4.5,3.3,10.5,0,15L128,150.7l-11.1-15.2c-3.3-4.5-3.3-10.5,0-15L128,105.3z M144.8,139.7
	c5.1-7,5.1-16.4,0-23.4l-12.4-17l10.8-14.8l26.3,36c3.3,4.5,3.3,10.5,0,15l-4.2,5.8l-16.4,22.5c-1.3,1.8-3.4,2.9-5.6,2.9
	c-2.2,0-4.2-1-5.6-2.8l-5.3-7.3L144.8,139.7z M200,135.5l-35.9,49.2c-1.3,1.8-3.4,2.9-5.6,2.9c-2.2,0-4.3-1-5.6-2.9l-8-10.9
	c3.9-0.4,7.4-2.4,9.8-5.7l14.1-19.4l0,0l2.3-3.2l2.7-3.7l0,0l1.5-2.1c5.1-7,5.1-16.4,0-23.4l-27.6-37.8l5.2-7.2
	c1.3-1.8,3.4-2.9,5.6-2.9c2.2,0,4.3,1,5.6,2.9l35.9,49.2C203.3,125,203.3,131,200,135.5z"/>
</svg>
