<?xml version="1.0" encoding="utf-8"?>
<!-- Generator: Adobe Illustrator 16.0.0, SVG Export Plug-In . SVG Version: 6.00 Build 0)  -->
<!DOCTYPE svg PUBLIC "-//W3C//DTD SVG 1.1//EN" "http://www.w3.org/Graphics/SVG/1.1/DTD/svg11.dtd">
<svg version="1.1" id="Layer_1" xmlns="http://www.w3.org/2000/svg" xmlns:xlink="http://www.w3.org/1999/xlink" x="0px" y="0px"
	 width="128px" height="128px" viewBox="0 0 128 128" enable-background="new 0 0 128 128" xml:space="preserve">
<circle fill="#FFFFFF" cx="64.098" cy="64.099" r="60.809"/>
<circle fill="#28ABE3" cx="-8.937" cy="7.471" r="6.656"/>
<g id="Black-_x26_-White_1_">
	<g id="Nxt" transform="translate(-4518.000000, -5445.000000)">
		<g transform="translate(4518.000000, 5445.000000)">
			<path id="Combined-Shape" fill="#28ABE3" d="M64,119.188C33.521,119.188,8.813,94.479,8.813,64
				C8.813,33.521,33.521,8.813,64,8.813c30.479,0,55.188,24.708,55.188,55.187C119.188,94.479,94.479,119.188,64,119.188z
				 M63.971,111.598c26.304,0,47.626-21.322,47.626-47.626c0-26.302-21.322-47.626-47.626-47.626
				c-26.302,0-47.625,21.323-47.625,47.626C16.346,90.275,37.669,111.598,63.971,111.598z"/>
			<path id="Combined-Shape_1_" fill="#28ABE3" d="M83.857,58.699c-0.002,0-0.006,0-0.008,0H73.166
				c-1.008,0-1.801,0.786-1.801,1.786s0.793,1.785,1.801,1.785h8.914v1.882c0,1.008,0.785,1.801,1.785,1.801
				s1.787-0.793,1.787-1.801V60.5c0-0.002,0-0.005,0-0.008c0-0.002,0-0.004,0-0.007c0-0.499-0.197-0.944-0.521-1.266
				c-0.32-0.322-0.766-0.52-1.266-0.52C83.861,58.699,83.859,58.699,83.857,58.699z M63.944,104.4
				c-22.344,0-40.456-18.113-40.456-40.456s18.113-40.456,40.456-40.456c22.345,0,40.456,18.113,40.456,40.456
				S86.289,104.4,63.944,104.4z M59.386,65.939c-2.77-1.81-4.682-3.089-5.741-3.838c-3.103-2.194-4.903-3.682-6.197-3.682h-3.258
				c-1.125,0-2.008,0.633-2.008,1.757c0,1.125,0.884,1.757,2.008,1.757h2.9c0.655,0.357,2.39,1.597,5.204,3.717
				c4.223,3.182,5.208,3.748,6.222,3.748h3.593c1.162,0,1.785-0.693,1.785-1.729c0-1.034-0.619-1.729-1.785-1.729H59.386z
				 M73.896,65.939c-2.771-1.81-4.685-3.089-5.742-3.838c-3.104-2.194-4.904-3.682-6.199-3.682h-3.257
				c-1.125,0-2.009,0.633-2.009,1.757c0,1.125,0.884,1.757,2.009,1.757h2.9c0.654,0.357,2.389,1.597,5.204,3.717
				c4.223,3.182,5.209,3.748,6.223,3.748h5.266c1.162,0,1.787-0.693,1.787-1.729c0-1.034-0.621-1.729-1.787-1.729H73.896z
				 M47.858,65.852h-3.876c-1.009,0-1.8,0.785-1.8,1.786c0,0.999,0.792,1.786,1.8,1.786h3.876c1.009,0,1.801-0.787,1.801-1.786
				C49.659,66.637,48.867,65.852,47.858,65.852z"/>
		</g>
	</g>
</g>
</svg>
