<?xml version="1.0" encoding="utf-8"?>
<!-- Generator: Adobe Illustrator 16.0.0, SVG Export Plug-In . SVG Version: 6.00 Build 0)  -->
<!DOCTYPE svg PUBLIC "-//W3C//DTD SVG 1.1//EN" "http://www.w3.org/Graphics/SVG/1.1/DTD/svg11.dtd">
<svg version="1.1" id="Layer_1" xmlns="http://www.w3.org/2000/svg" xmlns:xlink="http://www.w3.org/1999/xlink" x="0px" y="0px"
	 width="128px" height="128px" viewBox="0 0 128 128" enable-background="new 0 0 128 128" xml:space="preserve">
<circle fill="#FFFFFF" cx="64.098" cy="64.099" r="60.809"/>
<circle fill="#28ABE3" cx="-8.937" cy="7.471" r="6.656"/>
<g id="Black-_x26_-White">
	<g id="OmiseGO" transform="translate(-2113.000000, -1122.000000)">
		<g transform="translate(2113.000000, 1122.000000)">
			<path id="Logo" fill="#28ABE3" d="M56.608,42.632c0,7.714-6.235,13.967-13.927,13.967s-13.927-6.253-13.927-13.967
				c0-7.713,6.234-13.965,13.926-13.965c7.692,0,13.921,6.255,13.935,13.967h-0.007V42.632z M42.68,22.598
				c-9.51-0.006-17.709,6.712-19.599,16.06c-1.891,9.348,3.05,18.737,11.807,22.448c10.199,4.285,21.94-0.511,26.224-10.71
				c3.114-7.417,1.491-15.978-4.124-21.738h5.663v-6.06H42.68z M85.343,56.607c-7.688,0-13.927-6.252-13.927-13.967
				c0-7.714,6.233-13.967,13.928-13.967s13.928,6.253,13.928,13.967C99.258,50.351,93.026,56.593,85.343,56.607L85.343,56.607z
				 M85.343,22.599c-11.032,0-19.977,8.969-19.977,20.034c0,11.064,8.944,20.034,19.977,20.034c11.033,0,19.978-8.97,19.978-20.034
				c0-11.064-8.941-20.035-19.976-20.035L85.343,22.599z M42.68,99.342c-7.689,0-13.927-6.252-13.927-13.967
				s6.236-13.967,13.927-13.967c7.691,0,13.928,6.252,13.928,13.967C56.594,93.082,50.367,99.334,42.68,99.342L42.68,99.342z
				 M42.68,65.335c-11.033,0-19.976,8.969-19.976,20.034c0,11.063,8.945,20.033,19.977,20.033c11.034,0,19.977-8.971,19.977-20.033
				C62.657,74.303,53.714,65.335,42.68,65.335L42.68,65.335z"/>
		</g>
	</g>
</g>
</svg>
