<?xml version="1.0" encoding="utf-8"?>
<!-- Generator: Adobe Illustrator 16.0.0, SVG Export Plug-In . SVG Version: 6.00 Build 0)  -->
<!DOCTYPE svg PUBLIC "-//W3C//DTD SVG 1.1//EN" "http://www.w3.org/Graphics/SVG/1.1/DTD/svg11.dtd">
<svg version="1.1" id="Layer_1" xmlns="http://www.w3.org/2000/svg" xmlns:xlink="http://www.w3.org/1999/xlink" x="0px" y="0px"
	 width="128px" height="128px" viewBox="0 0 128 128" enable-background="new 0 0 128 128" xml:space="preserve">
<circle fill="#28ABE3" cx="64.098" cy="64.099" r="60.809"/>
<circle fill="#28ABE3" cx="-8.937" cy="7.471" r="6.656"/>
<path fill="#FFFFFF" d="M65,2C30.76,2,3,29.76,3,64s27.76,62,62,62s62-27.76,62-62S99.24,2,65,2z M57.73,26.71
	c-0.28,0.09-0.56,0.19-0.83,0.3c-0.02,0.01-0.04,0.01-0.05,0.01C57.14,26.91,57.43,26.81,57.73,26.71z M51.2,94.37
	c0.05-0.19,0.12-0.39,0.26-0.58C51.38,93.99,51.3,94.18,51.2,94.37z M51.47,93.779h-0.01c0,0,0,0,0.01-0.01
	C51.47,93.77,51.47,93.77,51.47,93.779z M53.55,48.76c-0.38,0.96-0.64,1.98-0.77,3.05c-0.13,1.06-0.02,2.13-0.02,3.2
	c-0.02,11-0.76,22,0.24,33v0.12c0,0.16,0,0.32-0.01,0.49c0,0.12,0,0.239-0.02,0.351c-0.01,0.149-0.03,0.299-0.05,0.449
	c-0.14,1.28-0.49,2.53-0.93,3.67C52,93.15,52,93.21,52,93.27c0,0,0,0,0,0.012c-0.04,0.029-0.08,0.06-0.11,0.09
	c-0.01,0.01-0.01,0.01-0.01,0.01l-0.01,0.01c-0.06,0.17-0.12,0.32-0.19,0.48c0,0.01-0.12,0.08-0.19,0.109
	c0.02-0.051,0.05-0.181,0.07-0.211c0.08-0.09,0.18-0.25,0.31-0.379c-0.13,0.09-0.22,0.18-0.31,0.271
	c-0.01,0.01-0.04,0.021-0.08,0.03c-0.01,0.02-0.02,0.05-0.03,0.068c0,0.01-0.13,0.01-0.25,0.01c-0.1,0.01-0.2,0.01-0.2,0.01
	s0,0,0,0.011c0,0.19,0.02,0.39-0.03,0.58c0,0.01,0.11,0.01,0.11,0.021c-0.04,0.109-0.05,0.221-0.06,0.33
	c0.06-0.109,0.12-0.221,0.17-0.33C51.14,94.6,51.1,94.8,51.02,95c-0.02,0.09-0.06,0.17-0.11,0.25c-0.01,0.02-0.02,0.029-0.04,0.05
	c-0.03,0.05-0.07,0.101-0.11,0.142c-0.01,0.01-0.02,0.02-0.03,0.029c-0.09,0.129-0.2,0.26-0.29,0.391
	c-0.66,1.029-1.5,1.988-2.44,2.898c-0.19,0.19-0.39,0.36-0.59,0.53c-0.04,0.03-0.07,0.069-0.11,0.101
	c-0.25,0.199-0.51,0.399-0.77,0.601c-1.5,1.09-3.21,1.909-5.03,2.329c-0.14,0.029-0.27,0.07-0.41,0.101
	c-0.11,0.05-0.21,0.101-0.32,0.12c-0.44,0.09-0.89,0.25-1.34,0.35c-0.26,0.062-0.53,0.11-0.81,0.11h-0.03c-0.02,0-0.04,0-0.06-0.01
	c0,0.01-0.01,0.01-0.01,0.01c-0.01,0-0.01,0-0.01,0h-0.09c0,0,0,0-0.01,0c-0.02,0-0.04-0.03-0.06-0.069
	c-0.02-0.029-0.04-0.07-0.06-0.109c-0.02-0.021-0.05-0.051-0.08-0.08c-0.01-0.01-0.03-0.021-0.04-0.04
	c-0.03-0.04-0.05-0.08-0.07-0.12c-0.04-0.07-0.08-0.141-0.11-0.2c-0.01-0.021-0.01-0.04-0.01-0.06c0-0.012,0-0.021-0.01-0.03
	c0-0.021-0.01-0.03-0.01-0.04c0-0.02-0.01-0.029-0.01-0.04c-0.01-0.021-0.01-0.04,0-0.06c-0.02-0.211,0.05-0.49,0.05-0.711V52.542
	c0-3.44,0.83-6.7,2.17-9.85c0.19-0.47,0.4-0.93,0.62-1.38c0.02-0.04,0.03-0.08,0.05-0.11c0.17-0.36,0.35-0.71,0.55-1.05
	c0.07-0.15,0.16-0.31,0.25-0.46c0.21-0.38,0.43-0.76,0.67-1.13c0.28-0.43,0.56-0.85,0.86-1.27c0-0.01,0-0.02,0.01-0.02
	c0.25-0.36,0.51-0.71,0.8-1.05c0-0.01,0-0.01,0.01-0.02c0.03-0.04,0.05-0.07,0.08-0.1c0.04-0.07,0.1-0.14,0.17-0.21
	c0.27-0.35,0.56-0.69,0.87-1.02c0.27-0.3,0.55-0.59,0.84-0.88l0.01-0.01c0.08-0.08,0.14-0.15,0.22-0.23
	c0.36-0.37,0.73-0.72,1.12-1.06c0.14-0.13,0.3-0.25,0.45-0.38s0.3-0.26,0.46-0.37c0.07-0.06,0.13-0.12,0.2-0.17
	c0.3-0.25,0.6-0.48,0.91-0.71c0.01,0,0.02-0.01,0.04-0.02c0.04-0.04,0.08-0.07,0.12-0.09c0.1-0.08,0.2-0.16,0.3-0.22
	c0.03-0.02,0.06-0.04,0.09-0.07c0.03-0.03,0.07,0.18,0.11,0.15C50,30.8,50.02,31,50.04,31H50v-0.47c0-0.26,0.51-0.53,0.79-0.53h0.14
	c0.04,0,0.08,0,0.12-0.02c0.27-0.09,0.54-0.44,0.82-0.6l0.01-0.01c0.06-0.04,0.12-0.07,0.17-0.11c0.06-0.03,0.11-0.06,0.17-0.09
	c0.13-0.08,0.27-0.065,0.41-0.135C52.7,28.985,52.78,29,52.86,29c0,0,0,0,0.01,0c0.03,0,0.05-0.125,0.08-0.135
	c0.2-0.11,0.4-0.262,0.6-0.352c-0.15,0.08-0.28,0.124-0.43,0.214c-0.08,0.04-0.15,0.066-0.22,0.106c0,0.01,0,0.013,0.01,0.023
	c0.21-0.09,0.43-0.183,0.64-0.293c0.22-0.12,0.44-0.267,0.67-0.377C54.39,28.106,54.56,28,54.73,28h0.09c0.03,0,0.05,0,0.08,0h0.01
	c0.14-0.15,0.29,0,0.43,0h0.01c0.12-0.25,0.24-0.41,0.36-0.52c0.01-0.02,0.03-0.03,0.04-0.04c-0.14,0.05-0.27,0.11-0.4,0.17
	c0.48-0.36,0.97-0.48,1.47-0.58c-0.22,0.08-0.44,0.16-0.66,0.24c0.22-0.04,0.44,0,0.66-0.05c0.01,0,0.02-0.09,0.03-0.1
	c0.01,0,0.03-0.05,0.05-0.06c0.15-0.03,0.31-0.09,0.47-0.13c0.12-0.03,0.24-0.07,0.36-0.11c3.17-1.02,6.41-1.61,9.709-1.49
	c1.91,0.07,3.819,0.43,5.699,0.78c2.66,0.52,5.23,1.39,7.631,2.64c2.631,1.35,5.039,3,7.119,5.07c2.9,2.89,5.17,6.34,6.69,10.15
	c0.29,0.71,0.59,1.43,0.851,2.16c0.311,0.83,0.051,1.19-0.82,1.19c-3.289,0.01-6.569,0.07-9.851-0.03
	c-1.579-0.05-3.188-0.37-4.569-1.21c-0.66-0.4-1.17-1.03-1.689-1.6c-1.561-1.76-3.529-3.12-5.74-3.96c-2.56-1-5.34-1.25-8.05-0.73
	c-0.83,0.15-1.62,0.36-2.38,0.63c-0.19,0.06-0.38,0.13-0.57,0.21c-0.56,0.22-1.11,0.48-1.63,0.76c-0.34,0.19-0.68,0.39-1.01,0.61
	c-0.17,0.11-0.33,0.23-0.5,0.34c-0.48,0.35-0.94,0.73-1.38,1.15c-0.15,0.13-0.3,0.28-0.44,0.43c-0.08,0.07-0.15,0.14-0.22,0.22
	c-0.07,0.08-0.14,0.16-0.21,0.23c-0.24,0.27-0.47,0.54-0.7,0.82c-0.44,0.55-0.84,1.12-1.2,1.71C54.12,47.5,53.81,48.12,53.55,48.76z
	 M95.85,61.56c-1.33,4.07-3.39,7.87-6.09,11.2c-2.898,3.602-6.359,6.53-10.71,8.28c-1.938,0.78-4.03,1.42-6.1,1.681
	c-2.729,0.34-5.521,0.379-8.27,0.271c-1.82-0.07-3.64-0.58-5.44-0.95c-1.02-0.21-2-0.521-3.01-0.79
	c-0.55-0.149-0.93-0.399-0.93-1.08c0.02-5.601,0.02-11.2,0.02-16.8c0-0.12,0.02-0.24,0.05-0.55c1.67,1.98,3.49,3.5,5.71,4.531
	c2.49,1.141,5.13,1.681,7.85,1.33c4.301-0.561,7.852-2.5,10.48-5.971c0.779-1.04,1.93-1.56,3.17-1.76
	c1.279-0.19,2.561-0.28,3.85-0.29c2.9-0.04,5.801-0.02,8.7-0.01C96.08,60.65,96.13,60.71,95.85,61.56z"/>
</svg>
