<?xml version="1.0" encoding="utf-8"?>
<!-- Generator: Adobe Illustrator 16.0.0, SVG Export Plug-In . SVG Version: 6.00 Build 0)  -->
<!DOCTYPE svg PUBLIC "-//W3C//DTD SVG 1.1//EN" "http://www.w3.org/Graphics/SVG/1.1/DTD/svg11.dtd">
<svg version="1.1" id="Layer_1" xmlns="http://www.w3.org/2000/svg" xmlns:xlink="http://www.w3.org/1999/xlink" x="0px" y="0px"
	 width="128px" height="128px" viewBox="0 0 128 128" enable-background="new 0 0 128 128" xml:space="preserve">
<circle fill="#FFFFFF" cx="64.098" cy="64.099" r="60.809"/>
<circle fill="#28ABE3" cx="-8.937" cy="7.471" r="6.656"/>
<g id="Black-_x26_-White">
	<g id="TenX" transform="translate(-906.000000, -2536.000000)">
		<g transform="translate(906.000000, 2536.000000)">
			<path id="Fill-1" fill="#28ABE3" d="M104.026,66.754c-0.428,0.599-5.347,5.897-14.759,15.899l-18.274-18.23l17.975-19.376
				c0,0,13.791,14.319,15.293,16.43C105.764,63.589,104.668,65.859,104.026,66.754z M22.96,62.098
				c3.154-3.48,16.013-17.033,16.013-17.033l17.64,18.825L38.93,82.855c0,0-10.957-11.498-16.186-17.393
				C21.933,64.521,22.204,62.988,22.96,62.098z M118.97,61.316c-1.339-1.491-29.725-32.383-29.771-32.428
				c-0.028-0.03-8.632,9.192-25.802,27.668l-8.969-9.774L38.667,29.067C19.43,49.905,9.431,60.771,8.67,61.664
				c-1.142,1.341-1.061,3.35,0,4.572c5.067,5.675,30.14,32.831,30.14,32.831L63.621,72.34L89.11,99.112
				c19.534-21.211,29.66-32.237,30.375-33.075C120.561,64.78,120.311,62.808,118.97,61.316z"/>
		</g>
	</g>
</g>
</svg>
