<?xml version="1.0" encoding="utf-8"?>
<!-- Generator: Adobe Illustrator 16.0.0, SVG Export Plug-In . SVG Version: 6.00 Build 0)  -->
<!DOCTYPE svg PUBLIC "-//W3C//DTD SVG 1.1//EN" "http://www.w3.org/Graphics/SVG/1.1/DTD/svg11.dtd">
<svg version="1.1" id="Layer_1" xmlns="http://www.w3.org/2000/svg" xmlns:xlink="http://www.w3.org/1999/xlink" x="0px" y="0px"
	 width="128px" height="128px" viewBox="0 0 128 128" enable-background="new 0 0 128 128" xml:space="preserve">
<circle fill="#FFFFFF" cx="64.098" cy="64.099" r="60.809"/>
<circle fill="#28ABE3" cx="-8.937" cy="7.471" r="6.656"/>
<g id="Black-_x26_-White_1_">
	<g id="PIVX" transform="translate(-300.000000, -2488.000000)">
		<g transform="translate(300.000000, 2488.000000)">
			<path id="Combined-Shape" fill="#28ABE3" d="M64,113.772c8.915-3.501,16.624-7.463,23.123-11.887
				c8.597-5.727,14.402-11.713,14.402-17.794c0-4.054,0-21.895,0-53.523L64,24.529l-37.525,6.04c0,31.629,0,49.47,0,53.524
				c0,6.08,5.807,12.066,14.402,17.793C47.377,106.31,55.084,110.271,64,113.772z M64.004,118.985v0.005
				c-0.001-0.001-0.003-0.002-0.004-0.002s-0.002,0.001-0.004,0.002v-0.005c-9.016-4.161-16.723-8.396-23.12-12.705
				c-9.201-6.198-17.667-13.909-17.667-22.188V27.546l40.786-8.525V19.02L64,19.021l0.004-0.001v0.001l40.787,8.526v56.545
				c0,8.278-8.466,15.989-17.666,22.188C80.727,110.589,73.021,114.824,64.004,118.985z"/>
			<path id="Fill-4" fill="#25A8D6" d="M70.087,72.503H57.012V93.2H51.84V67.824h17.545c7.034,0,11.626-4.264,11.626-11.467
				c0-7.12-4.593-11.259-11.544-11.259L50.93,45.14v-4.719h19.114c9.475,0,16.302,6.127,16.302,15.938
				C86.346,66.168,79.521,72.503,70.087,72.503z M47.537,58.552h19.902v-4.14H47.537V58.552z M64.004,28.707L29.87,34.171v48.513
				c0,11.219,24.121,23.059,34.134,26.991c5.835-2.276,34.135-14.704,34.135-26.991V34.17L64.004,28.707z"/>
			<path id="Fill-11" fill="#28ABE3" d="M40.876,101.886c-8.596-5.727-14.401-11.713-14.401-17.793c0-4.054,0-21.896,0-53.524
				l37.529-6.041V19.02l-40.795,8.527v56.546c0,8.278,8.466,15.989,17.667,22.187c6.399,4.311,14.109,8.548,23.128,12.71v-5.216
				C55.087,110.273,47.378,106.31,40.876,101.886z"/>
			<path id="Fill-11_1_" fill="#28ABE3" d="M87.123,101.886c8.597-5.727,14.402-11.713,14.402-17.794c0-4.054,0-21.895,0-53.523
				l-37.529-6.041V19.02l40.795,8.528v56.545c0,8.278-8.465,15.989-17.666,22.188c-6.4,4.311-14.108,8.547-23.129,12.71v-5.216
				C72.914,110.273,80.622,106.31,87.123,101.886z"/>
			<path id="Fill-14" fill="#28ABE3" d="M57.014,74.901v18.296H51.84V70.142C40.957,58.552,37.028,43.856,35.705,33.26L29.87,34.17
				v48.473c0,11.218,24.121,23.098,34.134,27.03c6.316-2.097,27.208-12.447,32.356-21.443
				C81.305,87.357,68.253,83.823,57.014,74.901z"/>
		</g>
	</g>
</g>
</svg>
