<?xml version="1.0" encoding="utf-8"?>
<!-- Generator: Adobe Illustrator 16.0.0, SVG Export Plug-In . SVG Version: 6.00 Build 0)  -->
<!DOCTYPE svg PUBLIC "-//W3C//DTD SVG 1.1//EN" "http://www.w3.org/Graphics/SVG/1.1/DTD/svg11.dtd">
<svg version="1.1" id="Layer_1" xmlns="http://www.w3.org/2000/svg" xmlns:xlink="http://www.w3.org/1999/xlink" x="0px" y="0px"
	 width="128px" height="128px" viewBox="0 0 128 128" enable-background="new 0 0 128 128" xml:space="preserve">
<circle fill="#FFFFFF" cx="64.098" cy="64.099" r="60.809"/>
<circle fill="#28ABE3" cx="-8.937" cy="7.471" r="6.656"/>
<g id="Black-_x26_-White">
	<g id="Qtum" transform="translate(-1507.000000, -1136.000000)">
		<g transform="translate(1507.000000, 1136.000000)">
			<g id="Circles">
				<circle id="Oval-5" fill="#28ABE3" cx="75.035" cy="62.999" r="2.913"/>
				<circle id="Oval-5_1_" fill="#28ABE3" cx="91.458" cy="62.999" r="2.913"/>
				<circle id="Oval-5_2_" fill="#28ABE3" cx="99.581" cy="62.999" r="2.913"/>
				<circle id="Oval-5_3_" fill="#28ABE3" cx="92.87" cy="42.163" r="2.913"/>
				<circle id="Oval-5_4_" fill="#28ABE3" cx="82.806" cy="46.577" r="2.913"/>
				<circle id="Oval-5_5_" fill="#28ABE3" cx="64.088" cy="44.105" r="2.913"/>
				<circle id="Oval-5_6_" fill="#28ABE3" cx="75.035" cy="29.273" r="2.914"/>
				<circle id="Oval-5_7_" fill="#28ABE3" cx="53.318" cy="29.273" r="2.914"/>
				<circle id="Oval-5_8_" fill="#28ABE3" cx="45.548" cy="46.577" r="2.913"/>
				<circle id="Oval-5_9_" fill="#28ABE3" cx="35.484" cy="42.163" r="2.913"/>
				<circle id="Oval-5_10_" fill="#28ABE3" cx="37.073" cy="62.999" r="2.913"/>
				<circle id="Oval-5_11_" fill="#28ABE3" cx="28.774" cy="62.999" r="2.913"/>
				<circle id="Oval-5_12_" fill="#28ABE3" cx="53.318" cy="62.999" r="2.913"/>
				<circle id="Oval-5_13_" fill="#28ABE3" cx="45.548" cy="79.598" r="2.913"/>
				<circle id="Oval-5_14_" fill="#28ABE3" cx="35.484" cy="83.835" r="2.912"/>
				<circle id="Oval-5_15_" fill="#28ABE3" cx="64.088" cy="81.716" r="2.914"/>
				<circle id="Oval-5_16_" fill="#28ABE3" cx="53.318" cy="96.726" r="2.914"/>
				<circle id="Oval-5_17_" fill="#28ABE3" cx="75.035" cy="96.726" r="2.914"/>
				<circle id="Oval-5_18_" fill="#28ABE3" cx="82.806" cy="79.598" r="2.913"/>
				<circle id="Oval-5_19_" fill="#28ABE3" cx="103.906" cy="93.281" r="4.237"/>
			</g>
			<g id="Down" transform="translate(5.493562, 110.420601)">
				<rect id="Rectangle-2" x="50.207" y="-14.49" fill="#28ABE3" width="18.011" height="1.588"/>
				
					<rect id="Rectangle-2_1_" x="40.877" y="-30.702" transform="matrix(0.9926 0.1218 -0.1218 0.9926 -3.2707 -6.2971)" fill="#28ABE3" width="18.011" height="1.59"/>
				
					<rect id="Rectangle-2_2_" x="34.877" y="-23.285" transform="matrix(0.4067 0.9136 -0.9136 0.4067 5.4897 -53.4344)" fill="#28ABE3" width="18.01" height="1.589"/>
				
					<rect id="Rectangle-2_3_" x="30.358" y="-29.465" transform="matrix(-0.9135 0.4067 -0.4067 -0.9135 55.215 -69.0773)" fill="#28ABE3" width="9.181" height="1.589"/>
				
					<rect id="Rectangle-2_4_" x="58.886" y="-30.704" transform="matrix(0.9926 -0.1218 0.1218 0.9926 4.1472 8.0444)" fill="#28ABE3" width="18.013" height="1.588"/>
				
					<rect id="Rectangle-2_5_" x="43.851" y="-21.378" transform="matrix(0.5878 -0.809 0.809 0.5878 38.4375 34.2765)" fill="#28ABE3" width="18.01" height="1.59"/>
				
					<rect id="Rectangle-2_6_" x="55.857" y="-21.021" transform="matrix(0.5877 0.8091 -0.8091 0.5877 10.3757 -60.8163)" fill="#28ABE3" width="18.011" height="1.588"/>
				
					<rect id="Rectangle-2_7_" x="63.979" y="-22.261" transform="matrix(-0.4067 0.9135 -0.9135 -0.4067 83.0594 -96.8747)" fill="#28ABE3" width="18.012" height="1.587"/>
				
					<rect id="Rectangle-2_8_" x="77.753" y="-36.564" transform="matrix(0.0698 0.9976 -0.9976 0.0698 45.0171 -119.8173)" fill="#28ABE3" width="18.011" height="1.589"/>
				
					<rect id="Rectangle-2_9_" x="75.632" y="-29.674" transform="matrix(0.9135 0.4068 -0.4068 0.9135 -4.6576 -35.8501)" fill="#28ABE3" width="12.714" height="1.589"/>
				
					<rect id="Rectangle-2_10_" x="43.92" y="-39.226" transform="matrix(-0.5 -0.866 0.866 -0.5 112.6709 -11.8095)" fill="#28ABE3" width="18.011" height="1.588"/>
				
					<rect id="Rectangle-2_11_" x="27.146" y="-39.4" transform="matrix(-0.4694 -0.883 0.883 -0.4694 87.2094 -24.8064)" fill="#28ABE3" width="18.011" height="1.589"/>
				
					<rect id="Rectangle-2_12_" x="21.672" y="-37.813" transform="matrix(0.0697 -0.9976 0.9976 0.0697 65.4695 -3.8347)" fill="#28ABE3" width="18.014" height="1.589"/>
				
					<rect id="Rectangle-2_13_" x="33.857" y="-37.813" transform="matrix(0.4384 -0.8988 0.8988 0.4384 57.3458 17.7333)" fill="#28ABE3" width="18.01" height="1.588"/>
				
					<rect id="Rectangle-2_14_" x="72.346" y="-39.404" transform="matrix(-0.4693 0.883 -0.883 -0.4693 85.439 -128.5653)" fill="#28ABE3" width="18.012" height="1.59"/>
				
					<rect id="Rectangle-2_15_" x="64.583" y="-39.402" transform="matrix(0.4226 0.9063 -0.9063 0.4226 7.4996 -88.9872)" fill="#28ABE3" width="18.009" height="1.589"/>
				
					<rect id="Rectangle-2_16_" x="55.396" y="-39.227" transform="matrix(0.5 -0.866 0.866 0.5 65.4827 36.5565)" fill="#28ABE3" width="18.01" height="1.59"/>
				
					<rect id="Rectangle-2_17_" x="29.548" y="-21.2" transform="matrix(0.809 0.5877 -0.5877 0.809 -4.6316 -26.5562)" fill="#28ABE3" width="18.011" height="1.589"/>
				
					<rect id="Rectangle-2_18_" x="15.598" y="-38.859" transform="matrix(0.309 0.9511 -0.9511 0.309 -17.9801 -51.3812)" fill="#28ABE3" width="21.542" height="1.59"/>
				
					<rect id="Rectangle-2_19_" x="79.816" y="-38.354" transform="matrix(0.309 -0.9511 0.9511 0.309 98.5193 60.4811)" fill="#28ABE3" width="22.131" height="1.59"/>
				
					<rect id="Rectangle-2_20_" x="68.554" y="-21.181" transform="matrix(0.809 -0.5878 0.5878 0.809 27.0524 42.4774)" fill="#28ABE3" width="20.659" height="1.591"/>
				
					<rect id="Rectangle-2_21_" x="85.253" y="-23.224" transform="matrix(-0.7546 -0.6562 0.6562 -0.7546 176.2342 21.0436)" fill="#28ABE3" width="13.597" height="1.588"/>
				<rect id="Rectangle-2_22_" x="25.134" y="-48.216" fill="#28ABE3" width="66.921" height="1.59"/>
			</g>
			
				<g id="Up" transform="translate(118.935622, 61.253219) rotate(-180.000000) translate(-118.935622, -61.253219) translate(5.493562, 4.944206)">
				<rect id="Rectangle-2_23_" x="159.902" y="87.494" fill="#28ABE3" width="18.011" height="1.59"/>
				
					<rect id="Rectangle-2_24_" x="150.565" y="71.284" transform="matrix(0.9925 0.1219 -0.1219 0.9925 9.9758 -18.9131)" fill="#28ABE3" width="18.01" height="1.589"/>
				
					<rect id="Rectangle-2_25_" x="144.567" y="78.703" transform="matrix(0.4067 0.9135 -0.9135 0.4067 163.732 -93.1333)" fill="#28ABE3" width="18.012" height="1.589"/>
				
					<rect id="Rectangle-2_26_" x="140.048" y="72.513" transform="matrix(-0.9135 0.4067 -0.4067 -0.9135 306.5894 81.4498)" fill="#28ABE3" width="9.181" height="1.59"/>
				
					<rect id="Rectangle-2_27_" x="168.58" y="71.275" transform="matrix(0.9925 -0.1219 0.1219 0.9925 -7.461 22.1853)" fill="#28ABE3" width="18.009" height="1.589"/>
				
					<rect id="Rectangle-2_28_" x="153.546" y="80.612" transform="matrix(0.5878 -0.809 0.809 0.5878 1.1442 165.0597)" fill="#28ABE3" width="18.011" height="1.59"/>
				
					<rect id="Rectangle-2_29_" x="165.555" y="80.96" transform="matrix(0.5878 0.809 -0.809 0.5878 138.1029 -107.5229)" fill="#28ABE3" width="18.011" height="1.588"/>
				
					<rect id="Rectangle-2_30_" x="173.683" y="79.722" transform="matrix(-0.4067 0.9136 -0.9136 -0.4067 330.5444 -53.6321)" fill="#28ABE3" width="18.009" height="1.589"/>
				
					<rect id="Rectangle-2_31_" x="187.44" y="65.426" transform="matrix(0.0697 0.9976 -0.9976 0.0697 248.8128 -134.3636)" fill="#28ABE3" width="18.012" height="1.589"/>
				
					<rect id="Rectangle-2_32_" x="185.325" y="72.301" transform="matrix(0.9136 0.4067 -0.4067 0.9136 46.2937 -71.6359)" fill="#28ABE3" width="12.714" height="1.589"/>
				
					<rect id="Rectangle-2_33_" x="153.612" y="62.763" transform="matrix(-0.5 -0.866 0.866 -0.5 188.8935 236.1654)" fill="#28ABE3" width="18.01" height="1.589"/>
				
					<rect id="Rectangle-2_34_" x="136.839" y="62.577" transform="matrix(-0.4695 -0.8829 0.8829 -0.4695 158.3625 221.8961)" fill="#28ABE3" width="18.012" height="1.588"/>
				
					<rect id="Rectangle-2_35_" x="131.366" y="64.168" transform="matrix(0.0698 -0.9976 0.9976 0.0698 65.7729 200.4594)" fill="#28ABE3" width="18.012" height="1.589"/>
				
					<rect id="Rectangle-2_36_" x="143.552" y="64.17" transform="matrix(0.4383 -0.8988 0.8988 0.4383 27.3005 173.6154)" fill="#28ABE3" width="18.01" height="1.59"/>
				
					<rect id="Rectangle-2_37_" x="182.044" y="62.577" transform="matrix(-0.4695 0.8829 -0.8829 -0.4695 336.7038 -75.5532)" fill="#28ABE3" width="18.009" height="1.588"/>
				
					<rect id="Rectangle-2_38_" x="174.269" y="62.58" transform="matrix(0.4226 0.9063 -0.9063 0.4226 163.2594 -129.5114)" fill="#28ABE3" width="18.012" height="1.59"/>
				
					<rect id="Rectangle-2_39_" x="165.091" y="62.762" transform="matrix(0.5 -0.866 0.866 0.5 32.0062 182.5484)" fill="#28ABE3" width="18.01" height="1.589"/>
				
					<rect id="Rectangle-2_40_" x="139.241" y="80.785" transform="matrix(0.809 0.5878 -0.5878 0.809 76.2684 -71.559)" fill="#28ABE3" width="18.012" height="1.588"/>
				
					<rect id="Rectangle-2_41_" x="125.291" y="63.13" transform="matrix(0.309 0.9511 -0.9511 0.309 154.8177 -85.2313)" fill="#28ABE3" width="21.542" height="1.589"/>
				
					<rect id="Rectangle-2_42_" x="189.504" y="63.628" transform="matrix(0.309 -0.9511 0.9511 0.309 77.33 235.2752)" fill="#28ABE3" width="22.134" height="1.589"/>
				
					<rect id="Rectangle-2_43_" x="178.247" y="80.804" transform="matrix(0.809 -0.5878 0.5878 0.809 -11.9454 126.4354)" fill="#28ABE3" width="20.659" height="1.589"/>
			</g>
		</g>
	</g>
</g>
</svg>
