<?xml version="1.0" encoding="utf-8"?>
<!-- Generator: Adobe Illustrator 16.0.0, SVG Export Plug-In . SVG Version: 6.00 Build 0)  -->
<!DOCTYPE svg PUBLIC "-//W3C//DTD SVG 1.1//EN" "http://www.w3.org/Graphics/SVG/1.1/DTD/svg11.dtd">
<svg version="1.1" id="Layer_1" xmlns="http://www.w3.org/2000/svg" xmlns:xlink="http://www.w3.org/1999/xlink" x="0px" y="0px"
	 width="128px" height="128px" viewBox="0 0 128 128" enable-background="new 0 0 128 128" xml:space="preserve">
<circle fill="#FFFFFF" cx="64.098" cy="64.099" r="60.809"/>
<circle fill="#28ABE3" cx="-8.937" cy="7.471" r="6.656"/>
<g id="Black-_x26_-White">
	<g id="Augur" transform="translate(-5124.000000, -1805.000000)">
		<g transform="translate(5124.000000, 1805.000000)">
			<g id="Clip-2">
				<path id="path-1_1_" fill="#28ABE3" d="M60.766,15.961c0.652-1.171,1.891-1.896,3.233-1.896c1.345,0,2.582,0.726,3.235,1.896
					l36.983,66.369c0.971,1.738,0.383,3.93-1.33,4.954l-36.985,22.123c-0.586,0.349-1.244,0.524-1.904,0.524
					c-0.657,0-1.316-0.176-1.902-0.524L25.11,87.284c-1.71-1.024-2.298-3.216-1.331-4.954L60.766,15.961z M49.85,73.689
					c-1.448-0.741-2.833-1.268-4.138-1.576c-0.135-0.895-0.207-1.81-0.207-2.74c0-0.141,0.009-0.277,0.013-0.417
					c-0.002-0.116,0.004-0.229,0.008-0.343c0.009-0.186,0.019-0.369,0.032-0.555c0.014-0.186,0.028-0.371,0.048-0.555
					c0.013-0.134,0.028-0.27,0.044-0.402c0.026-0.208,0.056-0.415,0.088-0.62c0.025-0.153,0.052-0.306,0.08-0.459
					c0.032-0.172,0.066-0.345,0.103-0.516c0.026-0.119,0.051-0.239,0.08-0.358c0.058-0.244,0.12-0.486,0.188-0.729
					c0.029-0.105,0.061-0.209,0.092-0.313c0.056-0.188,0.116-0.376,0.178-0.563c0.03-0.087,0.058-0.176,0.088-0.264
					c0.088-0.249,0.182-0.496,0.281-0.74c0.034-0.086,0.07-0.172,0.106-0.257c0.099-0.237,0.202-0.472,0.312-0.702
					c0.171-0.362,0.296-0.605,0.425-0.846c0.237-0.435,0.381-0.686,0.531-0.933c0.196-0.317,0.352-0.553,0.51-0.786
					c0.235-0.34,0.415-0.585,0.598-0.826c0.436-0.562,0.846-1.038,1.277-1.491c0.483-0.504,0.946-0.939,1.429-1.352
					c0.784-0.666,1.604-1.255,2.473-1.776c0.509-0.302,0.942-0.539,1.388-0.757l0.325-0.158c4.577-2.058,5.949-4.479,5.949-5.407
					V21.07L28.838,80.847c3.035-1.777,8.004-4.47,12.413-5.857c2.121-0.667,4.869-0.056,8.171,1.821
					c2.251,1.278,3.868,2.754,3.941,2.813l1.327,1.203c0.85,0.686,1.775,1.278,2.764,1.768c0.141,0.068,0.282,0.138,0.426,0.202
					c0.073,0.034,0.147,0.065,0.221,0.096c0.145,0.063,0.29,0.125,0.437,0.185c0.075,0.03,0.15,0.056,0.225,0.084
					c1.297,0.49,2.678,0.807,4.119,0.913c-1.03,0.964-1.965,2.082-2.638,3.351c-0.889-0.184-1.753-0.433-2.591-0.741
					c-0.263-0.095-0.345-0.129-0.429-0.164c-0.589-0.232-1.164-0.493-1.721-0.782c-0.309-0.162-0.503-0.269-0.695-0.379
					c-0.863-0.497-1.684-1.061-2.453-1.684c-0.465-0.386-0.799-0.673-1.119-0.978c-2.567-2.135-6.866-4.823-8.869-4.192
					c-5.157,1.623-11.421,5.349-13.574,6.68l33.359,19.955V91.496c0-5.103,7.438-8.461,8.281-8.839l0.314-0.163
					c1.643-0.84,3.106-1.978,4.321-3.344c0.29-0.336,0.472-0.558,0.647-0.786c0.053-0.065,0.104-0.134,0.154-0.2
					c0.176-0.236,0.342-0.476,0.505-0.722c0.265-0.403,0.44-0.7,0.605-1.003c0.384-0.697,0.716-1.43,0.982-2.191
					c0.609,1.23,1.396,2.542,2.384,3.731c-0.233,0.438-0.488,0.863-0.754,1.281c-0.256,0.396-0.458,0.691-0.67,0.98
					c-0.05,0.065-0.102,0.131-0.151,0.198c-0.177,0.233-0.359,0.463-0.547,0.688c-0.069,0.084-0.14,0.169-0.211,0.25
					c-0.235,0.273-0.478,0.541-0.728,0.8c-0.329,0.33-0.564,0.557-0.805,0.777c-0.078,0.069-0.155,0.139-0.236,0.208
					c-0.067,0.063-0.138,0.128-0.208,0.189c-0.768,0.644-1.583,1.238-2.446,1.763c-0.553,0.335-0.952,0.557-1.362,0.761
					c-2.094,0.95-6.378,3.468-6.378,5.619v13.644l33.242-19.886c-2.515-1.229-8.92-4.364-13.753-6.871
					c-4.213-2.185-6.043-8.667-6.237-9.397l-0.464-1.761c-0.165-1.116-0.46-2.188-0.86-3.208c-0.075-0.193-0.149-0.389-0.233-0.576
					c-0.066-0.148-0.14-0.293-0.209-0.438c-0.074-0.156-0.149-0.313-0.229-0.465c-0.081-0.151-0.168-0.3-0.252-0.447
					c-0.08-0.141-0.159-0.283-0.245-0.421c-0.093-0.149-0.188-0.296-0.287-0.442c-0.084-0.129-0.174-0.259-0.261-0.385
					c-0.107-0.147-0.216-0.291-0.325-0.433c-0.091-0.118-0.182-0.236-0.278-0.353c-0.117-0.143-0.237-0.283-0.36-0.422
					c-0.093-0.108-0.191-0.213-0.289-0.317c-0.13-0.139-0.262-0.276-0.397-0.41c-0.098-0.096-0.197-0.188-0.295-0.281
					c-0.145-0.135-0.289-0.27-0.44-0.399c-0.093-0.082-0.191-0.159-0.287-0.239c-0.161-0.131-0.323-0.264-0.489-0.39
					c-0.084-0.063-0.171-0.12-0.255-0.182c-0.187-0.134-0.372-0.268-0.563-0.392c-0.853-0.542-1.635-0.949-2.452-1.285
					c-1.394-0.571-2.89-0.945-4.455-1.066c1.008-0.963,1.93-2.082,2.595-3.348c0.863,0.18,1.701,0.423,2.517,0.718
					c0.3,0.102,0.595,0.221,0.885,0.344c0.445,0.19,0.773,0.342,1.099,0.504c0.423,0.215,0.742,0.389,1.057,0.573
					c0.399,0.236,0.712,0.434,1.017,0.64c0.371,0.253,0.677,0.473,0.972,0.703c0.341,0.265,0.637,0.51,0.925,0.764
					c2.368,2.093,4.19,4.769,5.242,7.801c0.322,0.933,0.569,1.886,0.739,2.868l0.458,1.805c0.416,1.551,2.015,5.852,4.367,7.071
					c4.111,2.13,9.373,4.724,12.372,6.193L65.849,21.07v26.18c0,5.102-7.4,8.556-8.243,8.934l-1.584,0.773
					c-1.143,0.731-2.178,1.614-3.077,2.622c-0.31,0.354-0.501,0.585-0.685,0.824c-0.23,0.298-0.412,0.558-0.589,0.821
					c-0.253,0.391-0.395,0.623-0.53,0.858c-0.231,0.409-0.374,0.686-0.508,0.969c-0.19,0.416-0.294,0.656-0.391,0.899
					c-0.19,0.489-0.292,0.785-0.385,1.085c-0.123,0.423-0.192,0.68-0.252,0.941c-0.123,0.545-0.184,0.856-0.232,1.172
					c-0.055,0.402-0.086,0.688-0.111,0.978c-0.008,0.085-0.016,0.172-0.02,0.259c-0.021,0.326-0.036,0.656-0.036,0.988
					C49.233,71.033,49.455,72.399,49.85,73.689z"/>
			</g>
		</g>
	</g>
</g>
</svg>
