<?xml version="1.0" encoding="utf-8"?>
<!-- Generator: Adobe Illustrator 16.0.0, SVG Export Plug-In . SVG Version: 6.00 Build 0)  -->
<!DOCTYPE svg PUBLIC "-//W3C//DTD SVG 1.1//EN" "http://www.w3.org/Graphics/SVG/1.1/DTD/svg11.dtd">
<svg version="1.1" id="Layer_1" xmlns="http://www.w3.org/2000/svg" xmlns:xlink="http://www.w3.org/1999/xlink" x="0px" y="0px"
	 width="128px" height="128px" viewBox="0 0 128 128" enable-background="new 0 0 128 128" xml:space="preserve">
<circle fill="#FFFFFF" cx="64.098" cy="64.099" r="60.809"/>
<circle fill="#28ABE3" cx="-8.937" cy="7.471" r="6.656"/>
<g id="Black-_x26_-White_1_">
	<g id="Siacoin" transform="translate(-906.000000, -4013.000000)">
		<g transform="translate(906.000000, 4013.000000)">
			<path id="Fill-1" display="none" fill="#28ABE3" d="M56.836,59.577v21.751c0,1.825,1.48,3.305,3.306,3.305
				c1.826,0,3.304-1.479,3.304-3.305v-21.75c-0.021-1.799-1.498-3.24-3.296-3.218C58.335,56.338,56.859,57.779,56.836,59.577z"/>
			<path id="Fill-3" display="none" fill="#28ABE3" d="M30.334,81.555c-0.767-0.572-1.218-1.472-1.214-2.431
				c0-1.643,1.331-2.977,2.977-2.977h0.054c0.665-0.008,1.316,0.198,1.856,0.588c2.142,1.693,4.786,2.631,7.517,2.67
				c2.67,0,4.246-1.055,4.246-2.765v-0.08c0-1.643-1.015-2.482-5.929-3.738c-5.929-1.507-9.747-3.15-9.747-8.985v-0.079
				c0-5.341,4.286-8.866,10.294-8.866c3.302-0.054,6.549,0.851,9.347,2.604c0.897,0.54,1.441,1.517,1.429,2.563
				c0,1.645-1.333,2.978-2.978,2.979c-0.018,0-0.036,0-0.054,0c-0.581,0-1.149-0.162-1.642-0.468
				c-1.846-1.202-3.98-1.885-6.182-1.977c-2.483,0-3.779,1.136-3.779,2.564v0.079c0,1.936,1.255,2.563,6.341,3.858
				c5.969,1.55,9.347,3.699,9.347,8.813v0.08c0,5.836-4.46,9.12-10.802,9.12c-3.961,0.007-7.828-1.226-11.054-3.524"/>
			<path id="Fill-6" fill="#28ABE3" d="M88.881,69.256c0.359,1.54,0.581,3.111,0.658,4.691V84.74
				c0.064,2.59-1.983,4.743-4.574,4.809c-0.078,0.003-0.158,0.003-0.236,0H74.24c-1.662-0.026-3.316-0.246-4.927-0.656
				c-2.61-0.731-4.987-2.132-6.897-4.059c-6.089-6.278-5.938-16.303,0.338-22.392c6.147-5.964,15.925-5.958,22.066,0.012
				c2.002,1.854,3.42,4.25,4.083,6.897L88.881,69.256z M63.025,50.278c-4.41,1.989-9.579,1.188-13.184-2.042l-0.492-0.47
				l-9.736-9.736c-1.059-1.181-1.563-2.76-1.384-4.34c0.032-0.342,0.032-0.687,0-1.031c0.023-3.111-2.478-5.65-5.589-5.672
				c-3.109-0.023-5.647,2.479-5.672,5.589c-0.022,3.109,2.481,5.649,5.59,5.672c0.369,0.001,0.736-0.033,1.097-0.1
				c1.583-0.188,3.169,0.307,4.364,1.36l9.805,9.808l0.377,0.421c3.233,3.612,4.033,8.791,2.04,13.209
				c-4.791,10.155-2.7,22.221,5.23,30.17c4.484,4.468,10.38,7.236,16.682,7.836c1.572,0.139,23.977,0,23.977,0
				c1.256-0.042,2.448-0.563,3.331-1.455c0.931-0.917,1.49-2.146,1.571-3.449V74.346c-0.031-0.959-0.118-1.915-0.256-2.863
				c-0.548-6.105-3.269-11.808-7.673-16.07c-1.418-1.408-2.994-2.653-4.69-3.706C80.841,46.992,71.235,46.417,63.025,50.278z"/>
		</g>
	</g>
</g>
</svg>
