<?xml version="1.0" encoding="utf-8"?>
<!-- Generator: Adobe Illustrator 16.0.0, SVG Export Plug-In . SVG Version: 6.00 Build 0)  -->
<!DOCTYPE svg PUBLIC "-//W3C//DTD SVG 1.1//EN" "http://www.w3.org/Graphics/SVG/1.1/DTD/svg11.dtd">
<svg version="1.1" id="Layer_1" xmlns="http://www.w3.org/2000/svg" xmlns:xlink="http://www.w3.org/1999/xlink" x="0px" y="0px"
	 width="128px" height="128px" viewBox="0 0 128 128" enable-background="new 0 0 128 128" xml:space="preserve">
<circle fill="#FFFFFF" cx="64.098" cy="64.099" r="60.809"/>
<circle fill="#28ABE3" cx="-8.937" cy="7.471" r="6.656"/>
<g id="Black-_x26_-White">
	<g id="Steem" transform="translate(-3911.000000, -1805.000000)">
		<g transform="translate(3911.000000, 1805.000000)">
			<path id="Fill-1" fill="#28ABE3" d="M89.67,28.941c-3.927,3.295-7.979,7.348-9.625,12.284c-1.9,5.826,0.757,11.778,3.294,16.966
				c2.531,5.32,5.322,10.51,7.727,15.957c1.898,4.304,4.557,9.366,3.926,14.184c-0.505,3.421-1.648,6.709-2.277,10.131
				c-0.506,2.278,1.647,0,2.404-0.632c4.431-3.799,9.24-8.104,11.014-13.931c0.884-2.909,0.379-5.574-0.631-8.356
				c-1.009-2.657-2.152-5.188-3.297-7.854c-2.403-5.32-4.935-10.635-7.472-15.956c-1.011-1.899-2.026-3.926-2.909-5.952
				c-0.884-2.152-1.396-4.431-1.521-6.836c-0.128-1.9-0.128-3.674,0.125-5.574c0.127-1.395,0.506-2.658,0.632-4.052
				C91.191,28.563,90.56,28.303,89.67,28.941 M31.684,28.941c-3.926,3.289-7.979,7.34-9.626,12.284
				c-1.9,5.826,0.757,11.778,3.295,16.966c2.531,5.314,5.314,10.51,7.719,15.949c1.9,4.305,4.558,9.366,3.926,14.185
				c-0.505,3.421-1.648,6.708-2.279,10.131c-0.505,2.277,1.648,0,2.405-0.632c4.431-3.801,9.241-8.104,11.014-13.93
				c0.884-2.911,0.379-5.575-0.631-8.358c-1.009-2.657-2.152-5.188-3.295-7.852c-2.405-5.321-4.936-10.636-7.474-15.958
				c-1.009-1.899-2.025-3.926-2.909-5.952c-0.884-2.153-1.396-4.432-1.521-6.836c-0.126-1.9-0.126-3.673,0.126-5.574
				c0.126-1.395,0.505-2.658,0.632-4.052C33.198,28.563,32.567,28.303,31.684,28.941"/>
			<path id="Fill-4" fill="#28ABE3" d="M59.79,19.314c-4.431,3.675-9.24,8.105-11.903,13.294c-1.9,3.673-2.153,7.473-1.143,11.267
				c1.27,4.557,3.036,9.114,4.935,13.545c3.675,8.483,8.484,16.462,12.032,25.071c1.269,3.035,2.656,6.456,2.909,9.878
				c0.252,4.18-1.143,8.61-2.279,12.535c-0.252,1.144-1.008,2.657-0.883,3.8c0.126,0.883,0.631,0.506,1.144,0.127
				c2.151-1.647,4.302-3.548,6.205-5.447c5.186-4.937,11.138-11.527,10.634-19.244c-0.253-3.17-1.771-6.206-3.034-9.114
				c-1.397-3.416-2.91-6.703-4.432-9.998c-2.783-6.205-5.698-12.283-8.735-18.362c-1.008-2.153-2.278-4.178-3.035-6.332
				c-1.143-2.909-1.648-5.952-1.773-8.988c-0.126-2.279,0-4.683,0.253-6.962c0.126-1.521,0.632-2.91,0.632-4.431
				C61.69,18.558,60.933,18.432,59.79,19.314"/>
		</g>
	</g>
</g>
</svg>
