<?xml version="1.0" encoding="utf-8"?>
<!-- Generator: Adobe Illustrator 24.0.1, SVG Export Plug-In . SVG Version: 6.00 Build 0)  -->
<svg version="1.1" id="Layer_1" xmlns="http://www.w3.org/2000/svg" xmlns:xlink="http://www.w3.org/1999/xlink" x="0px" y="0px"
	 viewBox="0 0 256 256" style="enable-background:new 0 0 256 256;" xml:space="preserve">
<style type="text/css">
	.st0{fill:#FFFFFF;}
	.st1{fill:#119DCE;}
	.st2{fill:#28ABE3;}
</style>
<circle class="st0" cx="128" cy="128" r="128"/>
<path class="st1" d="M97.6,104.6v-1.7c-11-3.7-21.4-9.5-32.6-12.5c3.2-2.9,7.4-7.4,11.7-8.4c3.4-0.8,7.6,1.1,10.9,1.8
	c6.4,1.5,12.8,3,19.2,4.4c3.2,0.7,6.7,2.1,10,2c3.6-0.1,6.3-2.7,9.2-4.5c4-2.5,8.1-4.8,12.5-6.5c4.9-2,9.7-3.2,15-3
	c2,0.1,4.7,0.3,5.5,2.6c1.1,3.3-2.8,7.7-4.7,9.9c-4.3,4.8-9.1,9.2-14.1,13.3c-2.6,2.2-6.2,4.3-7.3,7.7c-2.6,7.7-1,17.8-1,25.8
	c0,3.6,0.1,8.5-2.2,11.5c-2.6,3.5-8.2,5.9-12,7.7c-0.5-10.5-3.1-21.4-5-31.7c-5.9,2.8-11.2,7.2-15.9,11.7c-3.4,3.2-6.8,6.6-9.9,10
	c-14.3,15.4-28.7,43.2-10.1,60.8c19.6,18.5,48.4,17.7,73.4,17.7l-0.8-113.6h36.7c4.1,0,11.1,1.3,14.8-0.9c3.8-2.3,6.3-8.8,8.6-12.5
	c6.6-10.5,14-21.3,19.2-32.6H87.6c-11.8,0-23.3,0.3-35.1,1.5c-9.4,1-19.2,2.5-26.7,8.8C6.2,90.3,14.1,123.9,40,127.6
	C61.1,130.7,80.6,115,97.6,104.6z"/>
<path class="st2" d="M97.6,104.6v-1.7c-11-3.7-21.4-9.5-32.6-12.5c3.2-2.9,7.4-7.4,11.7-8.4c3.4-0.8,7.6,1.1,10.9,1.8
	c6.4,1.5,12.8,3,19.2,4.4c3.2,0.7,6.7,2.1,10,2c3.6-0.1,6.3-2.7,9.2-4.5c4-2.5,8.1-4.8,12.5-6.5c4.9-2,9.7-3.2,15-3
	c2,0.1,4.7,0.3,5.5,2.6c1.1,3.3-2.8,7.7-4.7,9.9c-4.3,4.8-9.1,9.2-14.1,13.3c-2.6,2.2-6.2,4.3-7.3,7.7c-2.6,7.7-1,17.8-1,25.8
	c0,3.6,0.1,8.5-2.2,11.5c-2.6,3.5-8.2,5.9-12,7.7c-0.5-10.5-3.1-21.4-5-31.7c-5.9,2.8-11.2,7.2-15.9,11.7c-3.4,3.2-6.8,6.6-9.9,10
	c-14.3,15.4-28.7,43.2-10.1,60.8c19.6,18.5,48.4,17.7,73.4,17.7l-0.8-113.6h36.7c4.1,0,11.1,1.3,14.8-0.9c3.8-2.3,6.3-8.8,8.6-12.5
	c6.6-10.5,14-21.3,19.2-32.6L89,68c-23,2-10.3,0.7-22,2c-9.4,1-25.4,2.7-33,9c-19.7,16.3-19.9,44.9,6,48.6
	C61.1,130.7,80.6,115,97.6,104.6z"/>
</svg>
