<?xml version="1.0" encoding="utf-8"?>
<!-- Generator: Adobe Illustrator 16.0.0, SVG Export Plug-In . SVG Version: 6.00 Build 0)  -->
<!DOCTYPE svg PUBLIC "-//W3C//DTD SVG 1.1//EN" "http://www.w3.org/Graphics/SVG/1.1/DTD/svg11.dtd">
<svg version="1.1" id="Layer_1" xmlns="http://www.w3.org/2000/svg" xmlns:xlink="http://www.w3.org/1999/xlink" x="0px" y="0px"
	 width="128px" height="128px" viewBox="0 0 128 128" enable-background="new 0 0 128 128" xml:space="preserve">
<circle fill="#FFFFFF" cx="64" cy="64.001" r="60.85"/>
<path fill="#28ABE3" d="M97.574,44.993c-3.255-2.277-6.735-4.704-10.142-7.112c-0.075-0.057-0.15-0.113-0.244-0.169
	c-0.376-0.283-0.809-0.584-1.336-0.753l-0.037-0.019c-9.107-2.201-18.363-4.459-27.319-6.641
	c-8.129-1.976-16.238-3.952-24.366-5.927c-0.207-0.056-0.414-0.113-0.64-0.169c-0.734-0.207-1.581-0.433-2.483-0.32
	c-0.263,0.038-0.49,0.132-0.696,0.264l-0.226,0.188c-0.357,0.339-0.546,0.771-0.64,1.017l-0.056,0.15v0.865l0.038,0.132
	c5.137,14.394,10.405,28.995,15.485,43.124c3.914,10.877,7.978,22.146,11.948,33.21c0.245,0.753,0.941,1.242,1.806,1.317h0.189
	c0.809,0,1.523-0.395,1.881-1.035l14.901-21.731c3.633-5.287,7.262-10.593,10.895-15.88c1.486-2.165,2.972-4.347,4.46-6.51
	c2.444-3.576,4.967-7.264,7.469-10.857l0.133-0.188V47.72C98.646,47.063,98.667,45.708,97.574,44.993 M80.113,52.914
	c-3.5,1.825-7.074,3.707-10.667,5.569c2.088-2.239,4.195-4.497,6.285-6.736c2.614-2.822,5.342-5.738,8.014-8.599l0.057-0.057
	c0.227-0.301,0.509-0.583,0.809-0.884c0.207-0.207,0.433-0.414,0.64-0.658c1.393,0.959,2.805,1.937,4.158,2.897
	c0.979,0.696,1.977,1.393,2.991,2.089C88.262,48.643,84.122,50.806,80.113,52.914 M71.12,52.011
	c-2.691,2.917-5.476,5.908-8.241,8.862c-5.362-6.511-10.837-13.114-16.143-19.492c-2.409-2.898-4.836-5.814-7.244-8.712
	l-0.019-0.019c-0.546-0.621-1.073-1.298-1.6-1.938c-0.338-0.433-0.696-0.847-1.054-1.279c2.183,0.564,4.384,1.091,6.548,1.599
	c1.9,0.451,3.876,0.922,5.814,1.411c10.913,2.653,21.844,5.306,32.757,7.959C78.309,44.277,74.657,48.209,71.12,52.011
	 M61.656,88.683c0.207-1.977,0.433-4.007,0.621-6.002c0.169-1.601,0.339-3.237,0.508-4.799c0.265-2.502,0.546-5.098,0.772-7.638
	l0.056-0.453c0.188-1.617,0.376-3.292,0.488-4.967c0.208-0.113,0.433-0.227,0.678-0.319c0.282-0.133,0.565-0.245,0.848-0.414
	c4.346-2.276,8.691-4.554,13.057-6.812c4.347-2.258,8.807-4.591,13.229-6.905c-4.027,5.833-8.071,11.721-11.986,17.46
	c-3.367,4.912-6.829,9.973-10.272,14.959c-1.355,1.995-2.767,4.027-4.102,5.983c-1.506,2.182-3.049,4.421-4.554,6.66
	C61.187,93.18,61.412,90.902,61.656,88.683 M35.428,33.873c-0.245-0.678-0.507-1.374-0.734-2.033
	c5.08,6.134,10.198,12.305,15.184,18.289c2.578,3.105,5.156,6.191,7.733,9.314c0.509,0.583,1.017,1.204,1.506,1.807
	c0.64,0.771,1.279,1.579,1.976,2.352c-0.226,1.938-0.414,3.896-0.621,5.777c-0.132,1.315-0.264,2.633-0.414,3.97v0.019
	c-0.056,0.848-0.169,1.693-0.263,2.522c-0.132,1.147-0.434,3.743-0.434,3.743l-0.019,0.131c-0.339,3.802-0.752,7.64-1.147,11.364
	c-0.169,1.544-0.32,3.125-0.489,4.705c-0.095-0.283-0.207-0.565-0.301-0.828c-0.282-0.752-0.564-1.542-0.828-2.314l-2.014-5.588
	C48.185,69.359,41.807,51.634,35.428,33.873"/>
<g>
</g>
<g>
</g>
<g>
</g>
<g>
</g>
<g>
</g>
<g>
</g>
</svg>
