<?xml version="1.0" encoding="utf-8"?>
<!-- Generator: Adobe Illustrator 16.0.0, SVG Export Plug-In . SVG Version: 6.00 Build 0)  -->
<!DOCTYPE svg PUBLIC "-//W3C//DTD SVG 1.1//EN" "http://www.w3.org/Graphics/SVG/1.1/DTD/svg11.dtd">
<svg version="1.1" id="Layer_1" xmlns="http://www.w3.org/2000/svg" xmlns:xlink="http://www.w3.org/1999/xlink" x="0px" y="0px"
	 width="128px" height="128px" viewBox="0 0 128 128" enable-background="new 0 0 128 128" xml:space="preserve">
<circle fill="#28ABE3" cx="64.098" cy="64.099" r="60.809"/>
<circle fill="#28ABE3" cx="-8.937" cy="7.471" r="6.656"/>
<path fill="#FFFFFF" d="M98.432,60.59c0,3.14-11.256,5.79-26.356,6.46c-0.431,0.021-2.558,0.16-7.478,0.16
	c-3.939,0-6.598-0.12-7.598-0.17v0.021C42,66.38,30.56,63.75,30.56,60.59c0-3.15,11.44-5.78,26.44-6.46v10.3
	c1,0.07,3.71,0.24,7.62,0.24c4.7,0,7.38-0.2,7.38-0.24v-10.3C87,54.81,98.432,57.45,98.432,60.59z"/>
<path fill="#FFFFFF" d="M64.44,2.47c-34.23,0-61.97,27.74-61.97,61.97c0,34.24,27.75,61.98,61.97,61.98
	c34.23,0,61.98-27.75,61.98-61.98C126.42,30.22,98.67,2.47,64.44,2.47z M72,69.55V99H57V69.561c-17-0.801-30.02-4.189-30.02-8.25
	c0-4.07,13.02-7.46,30.02-8.25V44H36V30h57v14H72v9h0.1c17.102,1,29.91,4.215,29.91,8.275S89,68.76,72,69.55z"/>
</svg>
