<?xml version="1.0" encoding="utf-8"?>
<!-- Generator: Adobe Illustrator 24.2.1, SVG Export Plug-In . SVG Version: 6.00 Build 0)  -->
<svg version="1.1" id="Layer_1" xmlns="http://www.w3.org/2000/svg" xmlns:xlink="http://www.w3.org/1999/xlink" x="0px" y="0px"
	 viewBox="0 0 256 256" style="enable-background:new 0 0 256 256;" xml:space="preserve">
<style type="text/css">
	.st0{fill:#F2F2F2;}
	.st1{fill:#28ABE3;}
	.st2{fill:#FFFFFF;}
	.st3{clip-path:url(#SVGID_2_);fill:#28ABE3;}
</style>
<circle class="st0" cx="128" cy="128" r="97.5"/>
<circle class="st1" cx="128" cy="128" r="91.5"/>
<circle class="st2" cx="128" cy="128" r="61.5"/>
<g>
	<defs>
		<circle id="SVGID_1_" cx="128" cy="128" r="62.5"/>
	</defs>
	<clipPath id="SVGID_2_">
		<use xlink:href="#SVGID_1_"  style="overflow:visible;"/>
	</clipPath>
	<polygon class="st3" points="67.5,112.3 105.5,112.5 122.5,154.5 139.5,113.5 188.5,112.3 190.1,121 145.5,121.5 122.5,173.5 
		98.5,121.5 65.5,121 	"/>
	<polygon class="st3" points="69.5,105.8 111,106 122,136 133,106 186.5,105.8 182.9,100.2 128,100 122,121 115,100 72.1,100 	"/>
</g>
<path class="st1" d="M174.1,135.9c-0.5-4.4-4.3-5.9-9.2-6.2l-0.1-6.2l-3.8,0.1l0.1,6c-1,0-2,0-3,0.1l-0.1-6l-3.7,0.1l0.1,6.2
	c-0.8,0-1.6,0.1-2.4,0.1l0,0l-5.2,0.1l0.1,4c0,0,2.8-0.1,2.7,0c1.5,0,2,0.9,2.2,1.6l0.1,7c0.1,0,0.2,0,0.4,0c-0.1,0-0.3,0-0.4,0
	l0.1,9.8c-0.1,0.5-0.3,1.2-1.4,1.3c0,0-2.7,0-2.7,0l-0.7,4.5l4.9-0.1c0.9,0,1.8,0,2.7,0l0.1,6.2l3.7-0.1l-0.1-6.2c1,0,2,0,3,0
	l0.1,6.1l3.8-0.1l-0.1-6.2c6.3-0.4,10.7-2.1,11.2-8c0.4-4.8-1.9-6.9-5.5-7.7C173.1,141.1,174.4,139.1,174.1,135.9L174.1,135.9
	L174.1,135.9z M169,149.3c0.1,4.7-7.9,4.2-10.5,4.3l-0.1-8.3C161,145.2,168.9,144.4,169,149.3L169,149.3z M167.1,137.6
	c0.1,4.2-6.6,3.8-8.7,3.9l-0.1-7.5C160.4,134,167,133.2,167.1,137.6L167.1,137.6z"/>
<g>
</g>
<g>
</g>
<g>
</g>
<g>
</g>
<g>
</g>
<g>
</g>
<g>
</g>
<g>
</g>
<g>
</g>
<g>
</g>
<g>
</g>
<g>
</g>
<g>
</g>
<g>
</g>
<g>
</g>
</svg>
