<?xml version="1.0" encoding="utf-8"?>
<!-- Generator: Adobe Illustrator 24.2.1, SVG Export Plug-In . SVG Version: 6.00 Build 0)  -->
<svg version="1.1" id="Layer_1" xmlns="http://www.w3.org/2000/svg" xmlns:xlink="http://www.w3.org/1999/xlink" x="0px" y="0px"
	 width="256px" height="256px" viewBox="0 0 256 256" style="enable-background:new 0 0 256 256;" xml:space="preserve">
<style type="text/css">
	.st0{fill:#FFFFFF;}
	.st1{fill:#28ABE3;}
</style>
<g>
	<circle class="st0" cx="128" cy="128" r="127.5"/>
</g>
<path class="st1" d="M159.3,132.7l3-6h30v-18h-20l16-27c0,0-30,0-30,0l-29.5,61l-31-61c0,0-30,0-30,0l16,27h-20v18h32l3,6h-36v22h45
	l20.3,41.6l20.3-41.6h45v-22H159.3z"/>
<path class="st1" d="M233,130.8c-2.5,0-4.5,2-4.5,4.5c0,0,0,0,0,0c-3.7,52.2-47.4,93.5-100.5,93.5c-55.5,0-100.7-45.2-100.7-100.7
	S72.5,27.3,128,27.3c53.1,0,96.6,41.2,100.4,93.3c0-0.1,0.1-0.2,0.1-0.3c0,0.2-0.1,0.4-0.1,0.6c0,2.5,2,4.5,4.5,4.5s4.5-2,4.5-4.5
	c0-0.5-0.1-0.9-0.2-1.3c0,0.1,0.1,0.2,0.1,0.2C233.3,63.1,185.9,18.3,128,18.3C67.4,18.3,18.3,67.4,18.3,128S67.4,237.7,128,237.7
	c57.8,0,105.1-44.7,109.4-101.4c0.1-0.3,0.1-0.7,0.1-1C237.5,132.8,235.5,130.8,233,130.8z"/>
</svg>
