<?xml version="1.0" encoding="utf-8"?>
<!-- Generator: Adobe Illustrator 16.0.0, SVG Export Plug-In . SVG Version: 6.00 Build 0)  -->
<!DOCTYPE svg PUBLIC "-//W3C//DTD SVG 1.1//EN" "http://www.w3.org/Graphics/SVG/1.1/DTD/svg11.dtd">
<svg version="1.1" id="Layer_1" xmlns="http://www.w3.org/2000/svg" xmlns:xlink="http://www.w3.org/1999/xlink" x="0px" y="0px"
	 width="128px" height="128px" viewBox="0 0 128 128" enable-background="new 0 0 128 128" xml:space="preserve">
<circle fill="#FFFFFF" cx="64.098" cy="64.099" r="60.809"/>
<circle fill="#28ABE3" cx="-8.937" cy="7.471" r="6.656"/>
<g id="Black-_x26_-White">
	<g id="NEM" transform="translate(-4518.000000, -410.000000)">
		<g transform="translate(4518.000000, 410.000000)">
			<path id="Fill-1" fill="#28ABE3" d="M65.023,106.535c0.164-0.081,0.366-0.204,0.53-0.326c5.146-3.021,9.883-6.614,14.211-10.7
				c0.286-0.242,0.489-0.57,0.652-0.896c0.286-0.53,0.57-1.103,0.818-1.633c2.039-4.246,2.489-8.656,1.143-13.229
				c-2.654-8.818-11.147-13.882-19.681-12.82c-2.451,0.285-4.697,1.063-6.82,2.286c-4.041,2.286-8.37,3.223-13.025,2.775
				c-2.286-0.203-4.45-0.817-6.533-1.714c-1.633-0.737-3.184-1.634-4.573-2.735c-0.082-0.082-0.204-0.124-0.408-0.245
				c0.041,0.204,0.082,0.326,0.124,0.408c1.836,4.653,4.083,9.063,6.736,13.269c2.898,4.533,6.206,8.737,9.963,12.576
				c3.755,3.84,7.88,7.269,12.331,10.25C62.533,105.106,64.453,106.29,65.023,106.535 M86.38,88.283
				c0.203-0.121,0.324-0.285,0.407-0.407c1.633-2.044,3.185-4.165,4.614-6.37c5.104-7.92,8.696-16.453,10.696-25.681
				c0.694-3.144,1.144-6.289,1.431-9.473c0.206-2.164,0.285-4.328,0.285-6.533c0-0.165,0-0.287-0.04-0.45l-0.611-0.367
				c-1.675-0.94-3.391-1.838-5.104-2.654c-2.533-1.185-5.063-2.247-7.718-3.104c-3.227-1.02-6.49-1.142-9.758-0.325
				c-9.352,2.244-15.354,11.433-13.558,20.864c0.98,5.226,3.798,9.31,8.291,12.167c0.284,0.204,0.612,0.367,0.898,0.572
				c3.306,2,5.878,4.735,7.716,8.124c1.96,3.553,2.817,7.39,2.57,11.433C86.543,86.773,86.46,87.508,86.38,88.283 M26.153,39.37
				v0.49c0,2.981,0.204,6.002,0.572,8.942c0.326,2.695,0.775,5.348,1.388,8.003c0.123,0.45,0.246,0.898,0.45,1.347
				c3.675,7.798,12.167,11.962,20.578,10.044c6.411-1.47,11.638-6.41,13.392-12.738c0.49-1.756,0.654-3.552,0.735-5.349
				c0.042-1.185,0.164-2.369,0.368-3.553c1.389-7.187,6.166-13.107,12.903-15.924c0.368-0.163,0.776-0.286,1.144-0.449
				c0.042-0.041,0.121-0.041,0.121-0.123c-1.06-0.368-7.387-1.021-11.186-1.102c-8.167-0.164-16.17,0.898-23.969,3.266
				C36.851,33.98,31.379,36.349,26.153,39.37 M65.023,110.7l-0.49-0.244C45.425,99.268,30.971,80.813,25.091,58.764
				c-0.94-3.47-1.633-7.022-2.124-10.615c-0.449-3.594-0.694-7.227-0.734-10.86c0-0.614-0.083-0.532,0.489-0.817
				c7.188-4.083,14.781-7.064,22.825-8.942c2.982-0.694,5.961-1.226,8.983-1.592c4.166-0.489,8.329-0.694,12.536-0.612
				c2.367,0.041,4.694,0.204,7.023,0.45c11.717,1.266,22.699,4.777,32.989,10.534c0.165,0.082,0.286,0.164,0.449,0.244
				c0.165,0.083,0.246,0.205,0.246,0.409v0.613c-0.041,2.123-0.124,4.206-0.286,6.329c-0.244,3.021-0.653,6.002-1.226,8.983
				c-1.225,6.411-3.144,12.577-5.798,18.495c-4.205,9.432-9.962,17.844-17.23,25.191c-5.227,5.311-11.065,9.883-17.518,13.68
				C65.472,110.414,65.268,110.536,65.023,110.7"/>
		</g>
	</g>
</g>
</svg>
