<svg xmlns="http://www.w3.org/2000/svg" width="243" height="243" viewBox="0 0 243 243">
  <g id="Group_1" data-name="Group 1" transform="translate(-7 -7)">
    <circle id="Ellipse_1" data-name="Ellipse 1" cx="121.5" cy="121.5" r="121.5" transform="translate(7 7)" fill="#fff"/>
    <g id="icon" transform="translate(17141.387 -7120.864)">
      <path id="Path_1" data-name="Path 1" d="M-16502.6,7838.158l49.467,3.346s-7.275-14.959-9.975-19.962-6.482-12.852-6.482-12.852l-2.707-4.857-2.238-1.875s-.645-1.513-4.576-1.167a10.635,10.635,0,0,0-6.555,3.532,42.841,42.841,0,0,0-5.844,9.719c-2,5.028-6.7,13.963-6.7,13.963l-4.389,9.14Z" transform="translate(-512.273 -540.251)" fill="#28abe3"/>
      <path id="Path_2" data-name="Path 2" d="M-16812.6,5775.975s9.6-24.422,12.428-27.742,4.314-5.919,7.885-7.036,6.561.342,10,2.347,9.756,14.27,11.357,18.86,29.988,73.114,29.988,73.114,3.016,9.63-5.217,22.588-19.9,5.436-21.1,3.75-11.4-24.725-11.666-25.343-6.516-13.676-7.449-14.359-3.008-1.886-7.24,0-7.34,10.359-12.3,21.484-10.176,24.977-11.432,26.614-3.951,9.4-10.6,10.126-13.572-8.294-14.139-10.126-1.857-9.427-1.6-11.253,1.436-9.842,2.9-14.123,12.834-30.742,12.834-30.742l32.721,5.505s2.258.847.6-2.437S-16812.6,5775.975-16812.6,5775.975Z" transform="translate(-201.428 1441.401)" fill="#008bc6"/>
      <path id="Path_3" data-name="Path 3" d="M-17227.266,5812.648s-4.613-2.109-6.836-11.8.7-19.638.7-19.638l35.465-93.621s4.17-9.669,10.629-12.229,48.2,6.667,48.2,6.667-5.672,2.771-11.215,14.119-14.975,37.941-14.975,37.941l-20.736,53.641s-2.176,7.369-2.162,13.119.682,10.992,4.2,15.768,3.871,4.186,3.871,4.186Z" transform="translate(150 1501)" fill="#28abe3"/>
    </g>
  </g>
</svg>
