<?xml version="1.0" encoding="utf-8"?>
<!-- Generator: Adobe Illustrator 16.0.0, SVG Export Plug-In . SVG Version: 6.00 Build 0)  -->
<!DOCTYPE svg PUBLIC "-//W3C//DTD SVG 1.1//EN" "http://www.w3.org/Graphics/SVG/1.1/DTD/svg11.dtd">
<svg version="1.1" id="Layer_1" xmlns="http://www.w3.org/2000/svg" xmlns:xlink="http://www.w3.org/1999/xlink" x="0px" y="0px"
	 width="128px" height="128px" viewBox="0 0 128 128" enable-background="new 0 0 128 128" xml:space="preserve">
<circle fill="#28ABE3" cx="64.098" cy="64.099" r="60.809"/>
<circle fill="#28ABE3" cx="-8.937" cy="7.471" r="6.656"/>
<g id="Black-_x26_-White">
	<g id="Monero" transform="translate(-5792.000000, -410.000000)">
		<g transform="translate(5792.000000, 410.000000)">
			<path id="Fill-1" fill="#FFFFFF" d="M24.576,83.982v-52.47L65,71.688l39.928-40.175v52.47h18.78
				C125.841,77.713,127,70.992,127,64c0-34.242-27.76-62-62-62C30.759,2,3,29.758,3,64c0,6.992,1.159,13.713,3.292,19.982H24.576z"
				/>
			<path id="Fill-3" fill="#E6E6E6" d="M91.536,95.992v-32.24L65,90.288L37.968,63.752v32.24H11.883
				C22.737,113.977,42.464,126,65,126s42.264-12.023,53.117-30.008H91.536z"/>
		</g>
	</g>
</g>
</svg>
