<?xml version="1.0" encoding="utf-8"?>
<!-- Generator: Adobe Illustrator 16.0.0, SVG Export Plug-In . SVG Version: 6.00 Build 0)  -->
<!DOCTYPE svg PUBLIC "-//W3C//DTD SVG 1.1//EN" "http://www.w3.org/Graphics/SVG/1.1/DTD/svg11.dtd">
<svg version="1.1" id="Layer_1" xmlns="http://www.w3.org/2000/svg" xmlns:xlink="http://www.w3.org/1999/xlink" x="0px" y="0px"
	 width="128px" height="128px" viewBox="0 0 128 128" enable-background="new 0 0 128 128" xml:space="preserve">
<circle fill="#FFFFFF" cx="64.098" cy="64.099" r="60.809"/>
<circle fill="#28ABE3" cx="-8.937" cy="7.471" r="6.656"/>
<g id="Layer_1_1_">
	<g id="Black-_x26_-White">
		<g id="Ripple" transform="translate(-2113.000000, -410.000000)">
			<g transform="translate(2113.000000, 410.000000)">
				<path fill="#28ABE3" d="M63.53,40.221c0,3.307,1.176,6.348,2.675,9.169c1.263,2.373,1.901,6.777-2.426,9.275
					c-3.219,1.857-7.236,0.681-9.243-2.529c-1.693-2.714-3.74-5.255-6.604-6.909c-8.16-4.711-18.593-1.914-23.303,6.244
					c-1.538,2.663-2.276,5.567-2.289,8.438c0.027,6.023,3.084,11.719,8.531,14.864c5.279,3.05,11.782,3.05,17.061,0
					c2.863-1.652,4.909-4.19,6.604-6.901c1.391-2.227,4.864-5.065,9.243-2.533c3.212,1.856,4.208,5.925,2.424,9.275
					c-1.498,2.821-2.673,5.861-2.673,9.166c0,9.423,7.64,17.061,17.061,17.061c9.42,0,17.057-7.638,17.057-17.061
					c0-6.094-3.25-11.725-8.527-14.773c-2.888-1.667-6.141-2.149-9.362-2.264c-2.701-0.095-6.732-1.826-6.732-6.742
					c0-3.664,2.969-6.611,6.736-6.743c3.221-0.112,6.471-0.598,9.358-2.264c8.159-4.71,10.953-15.144,6.241-23.304
					c-3.157-5.471-8.894-8.531-14.785-8.531c-2.896,0-5.828,0.738-8.516,2.289C66.782,28.495,63.53,34.128,63.53,40.221z"/>
			</g>
		</g>
	</g>
</g>
</svg>
