<?xml version="1.0" encoding="utf-8"?>
<!-- Generator: Adobe Illustrator 16.0.0, SVG Export Plug-In . SVG Version: 6.00 Build 0)  -->
<!DOCTYPE svg PUBLIC "-//W3C//DTD SVG 1.1//EN" "http://www.w3.org/Graphics/SVG/1.1/DTD/svg11.dtd">
<svg version="1.1" id="Layer_1" xmlns="http://www.w3.org/2000/svg" xmlns:xlink="http://www.w3.org/1999/xlink" x="0px" y="0px"
	 width="128px" height="128px" viewBox="0 0 128 128" enable-background="new 0 0 128 128" xml:space="preserve">
<circle fill="#FFFFFF" cx="64.098" cy="64.099" r="60.809"/>
<circle fill="#28ABE3" cx="-8.937" cy="7.471" r="6.656"/>
<g id="Black-_x26_-White_1_">
	<g id="Zcash" transform="translate(-3305.000000, -1122.000000)">
		<g transform="translate(3305.000000, 1122.000000)">
			<path id="Combined-Shape" fill="#28ABE3" d="M64,127.25C29.621,127.25,1.75,99.38,1.75,65C1.75,30.621,29.621,2.75,64,2.75
				c34.38,0,62.25,27.871,62.25,62.25C126.25,99.38,98.38,127.25,64,127.25z M64,113.633c26.859,0,48.633-21.773,48.633-48.633
				c0-26.859-21.773-48.633-48.633-48.633c-26.859,0-48.633,21.774-48.633,48.633C15.367,91.859,37.141,113.633,64,113.633z"/>
			<path id="Fill-4" fill="#28ABE3" d="M87.236,80.493v13.554H70.628c0.271,3.879,0.419,7.475,0.688,11.339H57.344V94.184H40.737
				c0-4.434-0.554-8.853,0.27-13c0.418-2.217,2.905-4.148,4.432-6.082c5.257-6.229,10.514-12.311,15.906-18.541
				c2.081-2.352,4.148-4.568,6.499-7.189H41.98V35.817h15.351V24.48h13.418v11.067h16.744c0,4.568,0.555,8.987-0.271,13.149
				c-0.42,2.216-2.906,4.149-4.568,6.081c-5.256,6.23-10.514,12.311-15.904,18.542c-2.055,2.473-4.122,4.676-6.487,7.176
				L87.236,80.493L87.236,80.493z"/>
		</g>
	</g>
</g>
</svg>
